<svg width="874" height="890" viewBox="0 0 874 890" fill="none" xmlns="http://www.w3.org/2000/svg">
<g clip-path="url(#clip0_174_85286)">
<g opacity="0.25">
<path opacity="0.25" d="M15.2351 893C-18.5232 771.376 5.73117 641.325 69.1336 544.261C143.557 430.342 260.971 372.168 373.229 353.335C466.367 337.733 561.95 347.55 655.932 345.043C818.194 340.752 977.919 293.628 1139.55 277.331C1197.84 271.459 1256.56 270.225 1314.89 263.041C1364.42 256.947 1417.95 247.13 1459.68 209.775" stroke="white" stroke-width="0.888889"/>
<path opacity="0.25" d="M24.1036 888.275C-7.34472 769.4 17.0002 643.196 78.8249 548.977C150.946 439.05 264.118 382.38 372.587 363.316C462.312 347.55 554.792 356.788 645.204 351.745C725.878 347.28 805.239 323.299 884.607 304.38C921.853 295.508 959.438 287.447 996.986 281.546C1035.03 275.577 1073.49 271.353 1111.85 268.701C1117.43 268.316 1123.04 267.969 1128.63 267.679C1192.68 264.391 1257.36 266.715 1321.18 262.781C1339.35 261.653 1357.86 259.994 1375.64 256.436C1406.43 250.265 1435.66 237.681 1462.21 215.319" stroke="white" stroke-width="0.888889"/>
<path opacity="0.25" d="M33.0114 883.685C3.83531 767.693 28.2482 645.172 88.4348 553.808C158.269 447.795 267.258 392.6 371.953 373.276C458.296 357.347 547.734 366.025 634.591 358.629C713.679 351.879 789.001 316.201 866.112 293.522C904 282.355 942.476 273.175 981.005 267.737C1020.43 262.173 1060.43 259.512 1100.28 258.509C1106.06 258.364 1111.88 258.268 1117.68 258.229C1184.27 257.805 1251.29 263.349 1317.72 263.87C1336.72 264.015 1356.14 263.87 1374.75 261.209C1406.85 256.706 1437.14 244.035 1464.79 220.941" stroke="white" stroke-width="0.888889"/>
<path opacity="0.25" d="M41.964 879.288C15.3394 765.697 39.1407 647.795 97.9685 558.793C165.5 456.58 270.345 402.851 371.318 383.295C454.355 367.211 540.177 374.675 624.075 365.659C702.175 357.202 772.93 309.403 847.512 283.011C885.95 269.425 925.332 259.261 964.873 254.189C1005.72 248.963 1047.29 247.815 1088.58 248.403C1094.58 248.5 1100.62 248.644 1106.62 248.847C1175.8 251.248 1245.14 259.926 1314.13 264.892C1333.91 266.32 1354.14 267.785 1373.72 265.905C1406.58 262.829 1439.6 251.306 1467.24 226.543" stroke="white" stroke-width="0.888889"/>
<path opacity="0.25" d="M50.9482 874.959C26.4221 764.135 50.1933 650.158 107.421 563.817C172.65 465.461 273.404 413.014 370.693 393.199C450.423 376.96 533.151 383.71 613.658 372.689C690.777 362.139 756.429 302.846 828.799 272.886C867.706 256.793 908.062 245.655 948.599 240.94C990.94 236.022 1034.07 236.321 1076.85 238.539C1083.07 238.857 1089.32 239.233 1095.54 239.687C1167.38 244.797 1239.14 256.667 1310.61 266.011C1331.27 268.701 1352.35 271.421 1372.75 270.678C1407.25 269.598 1440.83 256.258 1469.73 232.156" stroke="white" stroke-width="0.888889"/>
<path opacity="0.25" d="M59.9597 870.822C37.502 762.968 61.2204 652.578 116.78 569.005C179.706 474.294 276.422 423.187 370.027 403.159C446.511 386.767 526.174 392.803 603.285 379.901C679.701 367.125 739.73 296.598 810.032 263.118C849.317 244.356 890.421 232.522 932.209 227.941C976.083 223.236 1020.79 224.972 1065.07 228.742C1071.51 229.291 1077.97 229.889 1084.41 230.574C1158.92 238.442 1233.12 253.389 1307.1 267.043C1328.58 271.006 1350.48 275.133 1371.78 275.355C1406.79 275.712 1442.37 263.947 1472.17 237.748" stroke="white" stroke-width="0.888889"/>
<path opacity="0.25" d="M69.0117 866.82C48.5469 761.936 72.152 654.863 126.058 574.289C186.864 483.387 279.087 433.505 369.447 413.13C442.723 396.573 519.358 401.906 593.133 387.23C668.923 372.148 722.632 291.439 791.153 253.822C830.724 232.107 873.246 219.533 915.708 215.338C961.099 210.845 1007.43 213.94 1053.19 219.195C1059.85 219.957 1066.54 220.787 1073.21 221.703C1150.45 232.232 1227.2 250.255 1303.59 268.181C1325.8 273.397 1348.47 279.221 1370.77 280.118C1407.29 281.594 1443.69 270.379 1474.64 243.389" stroke="white" stroke-width="0.888889"/>
<path opacity="0.25" d="M78.086 862.973C59.5461 761.039 83.0229 657.65 135.261 579.698C193.771 492.345 282.07 443.736 368.843 423.091C438.949 406.399 512.61 410.98 583.04 394.664C658.393 377.201 705.527 286.02 772.191 244.884C811.928 220.353 855.613 207.026 899.011 202.986C946.078 198.599 993.997 202.986 1041.34 209.736C1048.22 210.7 1055.14 211.761 1062.02 212.889C1142.04 226.032 1221.3 247.121 1300.13 269.26C1323.22 275.74 1346.75 282.76 1369.85 284.814C1407.41 288.189 1444.81 276.502 1477.14 249.02" stroke="white" stroke-width="0.888889"/>
<path opacity="0.25" d="M87.1974 859.28C70.5145 760.326 93.8253 660.591 144.319 585.185C200.535 501.293 284.953 453.919 368.186 433.023C435.167 416.206 505.522 419.706 572.993 402.166C648.209 382.64 688.777 280.736 753.115 236.311C792.784 208.888 837.835 194.848 882.2 190.914C930.905 186.661 980.44 192.36 1029.35 200.441C1036.47 201.627 1043.62 202.88 1050.72 204.23C1133.57 219.986 1215.39 244.055 1296.62 270.35C1320.52 278.064 1344.85 286.483 1368.85 289.501C1407.8 294.615 1446.94 282.302 1479.57 254.662" stroke="white" stroke-width="0.888889"/>
<path opacity="0.25" d="M96.3301 855.721C81.4439 759.815 104.551 663.658 153.361 590.836C207.298 510.367 287.889 464.15 367.604 443.013C431.49 426.071 498.953 428.78 563.118 409.89C638.138 387.808 671.534 276.03 734.015 228.163C773.616 197.837 820.004 183.026 865.229 179.227C915.602 174.964 966.843 181.907 1017.29 191.415C1024.65 192.803 1032.03 194.26 1039.36 195.822C1125.05 214.075 1209.48 241.142 1293.1 271.556C1317.71 280.514 1342.74 290.542 1367.84 294.303C1408.11 300.301 1447.37 289.26 1481.97 260.303" stroke="white" stroke-width="0.888889"/>
<path opacity="0.25" d="M105.503 852.288C92.3383 759.448 115.173 666.849 162.293 596.544C213.995 519.422 290.766 474.351 367.009 452.974C427.845 435.916 492.432 437.796 553.344 417.662C628.258 392.909 654.181 271.652 714.835 220.391C754.202 187.124 802.024 171.512 848.207 167.751C900.294 163.46 953.226 171.608 1005.22 182.418C1012.82 183.999 1020.43 185.668 1028 187.432C1116.61 208.154 1203.67 238.182 1289.65 272.655C1315.12 282.866 1340.98 294.061 1366.85 298.97C1407.9 306.761 1448.61 295.652 1484.41 265.953" stroke="white" stroke-width="0.888889"/>
<path opacity="0.25" d="M114.689 849.058C103.193 759.275 125.68 669.27 171.124 602.407C220.946 529.122 292.486 485.479 366.397 462.934C424.522 445.211 486.634 447.362 543.65 425.55C618.134 397.055 636.183 268.258 695.562 212.976C734.552 176.69 783.959 160.394 831.025 156.576C884.803 152.207 939.479 161.455 993.098 173.585C1000.93 175.369 1008.78 177.298 1016.59 179.226C1108.07 202.282 1197.86 235.318 1286.17 273.792C1312.41 285.238 1339.07 297.784 1365.84 303.685C1407.99 312.952 1449.81 302.046 1486.81 271.613" stroke="white" stroke-width="0.888889"/>
<path opacity="0.25" d="M123.937 845.943C114.033 759.226 136.196 672.808 179.904 608.347C227.461 538.215 295.355 495.71 365.823 472.905C420.982 455.056 480.316 456.319 534.101 433.543C569.747 418.443 591.608 370.085 609.589 330.318C628.793 287.774 645.672 237.478 676.283 206.023C714.699 166.556 766.114 149.642 813.784 145.785C869.351 141.292 925.718 151.571 980.96 164.984C989.045 166.912 997.137 168.995 1005.18 171.155C1099.54 196.525 1192.09 232.512 1282.68 274.949C1309.63 287.562 1336.95 301.689 1364.82 308.361C1408.36 318.747 1451.14 308.361 1489.2 277.283" stroke="white" stroke-width="0.888889"/>
<path opacity="0.25" d="M133.154 842.974C124.775 759.342 146.561 676.492 188.532 614.393C233.825 547.347 298.435 505.266 365.174 482.866C417.11 465.442 473.741 465.018 524.574 441.644C560.175 425.251 579.877 372.014 595.533 331.196C612.616 286.666 626.936 232.994 656.799 199.418C694.626 156.894 747.823 139.229 796.309 135.265C853.627 130.579 911.888 141.822 968.648 156.479C976.951 158.63 985.323 160.867 993.604 163.229C1090.86 190.566 1186.26 229.764 1279.22 276.107C1307.02 289.973 1335.18 305.267 1363.77 313.058C1408.05 325.111 1452.28 314.726 1491.55 282.963" stroke="white" stroke-width="0.888889"/>
<path opacity="0.25" d="M142.416 840.158C135.501 759.641 156.894 680.291 197.099 620.535C240.127 556.527 301.227 515.43 364.607 492.827C413.674 475.297 467.55 473.918 515.228 449.84C550.708 431.933 568.07 374.251 581.658 332.199C596.627 285.914 608.335 228.848 637.391 193.16C674.493 147.608 729.486 129.113 778.787 125.006C837.91 120.078 897.96 132.295 956.35 148.148C964.918 150.472 973.531 152.892 982.016 155.399C1082.29 184.954 1180.47 227.035 1275.76 277.283C1304.15 292.259 1332.94 309.336 1362.77 317.783C1408.74 330.714 1453.46 320.926 1493.93 288.643" stroke="white" stroke-width="0.888889"/>
<path opacity="0.25" d="M151.7 837.487C146.189 760.113 167.145 684.235 205.576 626.774C246.4 565.726 303.997 525.689 363.987 502.797C410.193 485.171 461.367 482.76 505.95 458.142C541.384 438.615 556.18 376.593 567.805 333.51C580.751 285.441 589.621 225.299 617.891 187.413C654.125 138.794 711.066 119.461 761.145 115.17C822.094 109.953 883.956 123.086 943.999 140.048C952.816 142.536 961.686 145.13 970.42 147.762C1073.7 179.409 1174.73 224.373 1272.29 278.46C1301.45 294.621 1330.99 313.077 1361.74 322.43C1408.79 336.75 1454.59 327.309 1496.28 294.331" stroke="white" stroke-width="0.888889"/>
<path opacity="0.25" d="M161.009 834.932C156.834 760.683 177.307 688.285 213.956 633.09C252.576 574.925 306.354 536.808 363.422 512.73C407.062 494.312 455.057 492.374 496.817 466.522C532.297 444.585 544.269 378.889 553.962 334.899C564.892 285.248 570.886 222.03 598.296 181.926C633.632 130.241 692.543 110.05 743.361 105.537C806.107 99.9537 869.826 113.965 931.56 131.996C940.619 134.648 949.753 137.406 958.781 140.26C1065.1 173.933 1168.93 221.751 1268.83 279.655C1298.94 297.099 1329.31 316.404 1360.69 327.107C1408.25 343.336 1455.71 333.713 1498.61 300.031" stroke="white" stroke-width="0.888889"/>
<path opacity="0.25" d="M170.339 832.588C168.542 760.904 186.878 693.309 222.245 639.56C258.668 584.202 309.169 546.846 362.841 522.729C403.559 504.408 448.973 501.245 487.789 475.056C523.049 451.267 532.372 381.068 540.193 336.538C549.145 285.537 552.233 218.771 578.691 176.912C613.099 122.441 673.489 101.12 725.508 96.299C790.103 90.3013 855.68 105.122 919.105 124.195C928.435 127.001 937.818 129.923 947.096 132.941C1056.49 168.542 1163.15 219.176 1265.38 280.861C1296.06 299.365 1327.05 320.502 1359.65 331.784C1408.97 348.861 1456.81 340.096 1500.93 305.749" stroke="white" stroke-width="0.888889"/>
<path opacity="0.25" d="M179.684 830.361C179.08 761.849 196.888 697.639 230.442 646.089C264.699 593.468 311.871 557.077 362.259 532.69C400.222 514.321 443.258 510.107 478.858 483.657C513.824 457.67 520.331 383.941 526.461 338.322C533.451 286.309 533.428 216.158 559.049 172.264C592.656 114.688 654.821 92.4517 707.542 87.3217C773.971 80.8515 841.442 96.4438 906.596 116.501C916.183 119.461 925.83 122.537 935.364 125.719C1047.84 163.22 1157.37 216.621 1261.93 282.066C1293.37 301.747 1325.07 324.186 1358.56 336.451C1408.99 354.907 1457.88 346.402 1503.23 311.448" stroke="white" stroke-width="0.888889"/>
<path opacity="0.25" d="M189.045 828.278C189.573 763.093 206.853 702.036 238.55 652.713C270.617 602.812 314.589 567.288 361.686 542.651C396.954 524.214 437.363 518.814 470.042 492.345C504.661 464.314 508.314 386.545 512.775 340.26C516.006 306.703 518.06 272.934 522.121 239.522C525.05 215.416 528.379 188.503 539.355 167.973C571.815 107.34 635.979 84.0816 689.47 78.6431C757.764 71.6425 827.145 87.9484 894.043 108.96C903.894 112.046 913.806 115.276 923.604 118.603C1039.21 158.012 1151.61 214.114 1258.52 283.291C1290.9 304.244 1323.44 327.522 1357.56 341.147C1408.31 361.397 1458.98 352.815 1505.52 317.194" stroke="white" stroke-width="0.888889"/>
<path opacity="0.25" d="M198.422 826.349C200.022 764.279 216.659 706.683 246.56 659.434C276.461 612.184 317.187 577.529 361.113 552.621C393.724 534.107 431.521 527.473 461.339 501.139C495.588 470.89 496.244 389.553 499.128 342.429C501.219 308.255 502.148 273.966 504.843 239.84C506.851 214.682 508.949 186.053 519.631 164.126C550.664 100.484 617.123 76.2226 671.301 70.3405C741.452 62.7228 812.788 79.7132 881.422 101.622C891.537 104.852 901.721 108.227 911.776 111.708C1030.55 152.795 1145.84 211.645 1255.06 284.515C1288.05 306.51 1321.18 331.485 1356.46 345.785C1408.49 366.893 1460.39 359.545 1507.81 322.903" stroke="white" stroke-width="0.888889"/>
<path opacity="0.25" d="M207.821 824.556C210.417 765.61 226.368 711.505 254.48 666.184C282.41 621.278 319.83 587.76 360.548 562.534C390.547 543.953 425.694 536.055 452.742 509.972C486.5 477.418 484.175 392.514 485.511 344.696C486.5 309.297 486.205 273.831 487.776 238.462C488.915 212.725 489.844 183.498 499.854 160.587C529.068 94.0523 598.177 68.5473 653.019 62.2313C725.05 53.9964 798.175 71.6811 868.741 94.3319C879.151 97.6779 889.568 101.178 899.903 104.823C1022.03 148.023 1140.08 209.206 1251.62 285.759C1285.5 309.008 1319.48 334.879 1355.39 350.443C1407.92 373.209 1461.45 365.871 1510.07 328.631" stroke="white" stroke-width="0.888889"/>
<path opacity="0.25" d="M217.225 822.917C220.758 767.288 236.097 716.23 262.299 673.127C288.101 630.699 322.523 598 359.973 572.553C387.3 553.981 419.948 544.927 444.255 518.988C459.693 502.518 464.373 472.905 467.392 448.895C471.612 415.367 472.043 381.097 471.922 347.222C471.786 311.891 470.487 276.57 470.661 241.249C470.797 213.989 470.253 182.322 480.097 157.53C507.68 88.1028 579.19 61.3443 634.689 54.6233C708.599 45.6749 783.717 63.9189 856.073 87.4086C866.747 90.88 877.443 94.5056 888.042 98.2952C1013.35 143.037 1134.32 206.834 1248.2 287.042C1282.68 311.332 1317.25 338.852 1354.31 355.1C1408.4 378.831 1462.47 372.226 1512.32 334.368" stroke="white" stroke-width="0.888889"/>
<path opacity="0.25" d="M226.647 821.432C230.965 769.158 245.685 721.089 270.022 680.108C293.786 640.081 325.212 608.183 359.415 582.514C384.213 563.913 414.19 553.46 435.885 528.052C450.333 511.129 454.077 482.22 456.485 458.624C460.154 422.647 459.505 386.015 458.335 349.854C457.089 312.132 454.462 274.497 453.579 236.765C452.953 210.237 451.481 179.448 460.282 154.801C486.137 82.4232 560.108 54.4303 616.233 47.2272C692.016 37.4784 769.263 56.1756 843.339 80.5042C854.27 84.0913 865.23 87.8616 876.131 91.7573C1004.52 137.763 1128.56 204.423 1244.78 288.266C1280.01 313.685 1315.27 342.507 1353.22 359.748C1408.37 384.819 1463.44 378.58 1514.56 340.115" stroke="white" stroke-width="0.888889"/>
<path opacity="0.25" d="M236.075 820.082C241.178 771.203 255.234 726.075 277.653 687.176C299.402 649.425 327.845 618.549 358.856 592.484C381.434 573.508 408.27 561.628 427.626 537.193C442.157 518.872 444.709 486.453 446.271 461.633C448.536 425.415 446.966 388.83 444.761 352.67C442.497 315.063 438.851 277.621 436.669 240.014C435.054 212.176 432.011 178.927 440.443 152.497C464.449 77.2835 540.895 47.9021 597.685 40.1879C675.362 29.6291 754.64 48.7314 830.513 73.7832C841.723 77.486 853.001 81.372 864.135 85.3544C995.824 132.874 1122.82 202.089 1241.36 289.539C1277.48 316.153 1313.56 345.92 1352.13 364.367C1407.73 391 1464.45 384.944 1516.77 345.853" stroke="white" stroke-width="0.888889"/>
<path opacity="0.25" d="M245.517 818.886C251.337 773.305 264.661 731.215 285.179 694.322C304.964 658.75 330.509 628.693 358.296 602.455C378.406 583.459 402.532 570.21 419.442 546.431C432.939 527.493 434.592 496.154 435.604 471.536C437.196 432.907 434.502 393.989 431.135 355.631C427.632 315.748 422.665 276.088 419.283 236.186C416.958 208.801 413.108 176.951 420.559 150.568C442.624 72.4624 521.645 41.731 579.031 33.4479C658.58 21.9634 739.934 41.4899 817.649 67.1974C829.138 71.0063 840.688 74.9984 852.109 79.1351C987.066 128.053 1117.06 199.775 1237.94 290.812C1274.66 318.468 1311.32 349.855 1351.03 369.034C1408.26 396.66 1465.41 391.366 1518.96 351.638" stroke="white" stroke-width="0.888889"/>
<path opacity="0.25" d="M254.969 817.835C261.43 775.571 274.007 736.47 292.614 701.554C310.452 668.093 333.257 638.143 357.738 612.416C375.523 593.738 396.697 578.079 411.448 555.746C424.907 535.381 425.119 500.677 425.277 474.689C425.511 435.897 421.895 397.094 417.562 358.765C413.033 319.056 407.175 279.627 402.578 239.937C399.256 211.298 393.753 177.26 400.743 149.016C420.74 68.2005 502.381 35.878 560.363 27.0357C641.814 14.6158 725.221 34.4413 804.808 60.7852C816.577 64.6423 828.413 68.7983 840.114 73.0507C978.31 123.299 1111.32 197.5 1234.54 292.104C1271.99 320.859 1309.34 353.529 1349.93 373.663C1408.15 402.591 1466.36 397.702 1521.19 357.405" stroke="white" stroke-width="0.888889"/>
<path opacity="0.25" d="M264.427 816.929C271.249 778.538 283.272 741.965 299.952 708.863C315.895 677.341 335.892 648.682 357.187 622.387C372.541 603.439 391.013 587.49 403.537 565.138C415.705 543.413 415.207 510.386 414.86 484.737C414.264 443.572 409.485 402.542 403.922 362.052C398.169 320.155 390.87 278.633 384.997 236.764C381.071 208.801 374.927 175.813 380.898 147.849C398.728 64.3526 483.041 30.3909 541.597 20.941C624.958 7.50873 710.441 27.6041 791.908 54.5941C803.986 58.5862 816.064 62.7904 828.066 67.1297C969.576 118.583 1105.6 195.224 1231.17 293.377C1269.52 323.356 1307.66 356.874 1348.85 378.281C1407.64 408.829 1467.22 403.776 1523.41 363.161" stroke="white" stroke-width="0.888889"/>
<path opacity="0.25" d="M273.894 816.177C281.24 781.024 292.451 747.38 307.192 716.249C321.301 686.578 338.557 658.393 356.644 632.357C369.809 613.409 385.171 595.628 395.732 574.617C407.108 551.985 405.462 517.946 404.383 491.448C402.654 449.088 396.834 407.017 390.168 365.524C383.48 323.848 375.35 282.597 368.337 241.027C363.378 211.626 355.67 176.941 361 147.078C376.331 61.1225 463.663 25.2515 522.71 15.1749C607.944 0.652941 695.578 20.9606 778.924 48.5098C791.266 52.5887 803.677 56.8893 815.913 61.3442C961.015 114.254 1099.62 192.797 1227.71 294.698C1266.68 325.671 1305.32 360.838 1347.7 382.919C1408.09 414.412 1468.11 410.15 1525.55 368.966" stroke="white" stroke-width="0.888889"/>
<path opacity="0.25" d="M283.368 815.569C291.141 783.655 301.514 752.871 314.318 723.722C326.675 695.681 341.184 668.392 356.085 642.318C366.986 623.255 379.313 604.538 388.024 584.173C398.336 560.066 395.671 525.352 393.867 498.294C390.961 454.758 384.054 411.674 376.324 369.169C368.594 326.664 359.316 284.477 351.133 242.029C345.426 212.397 336.632 177.211 341.108 146.692C354.077 58.2103 444.21 20.459 503.755 9.76523C590.891 -5.91384 680.631 14.5867 765.91 42.6277C778.539 46.7837 791.244 51.1711 803.79 55.7225C952.254 109.702 1093.88 190.63 1224.34 296.029C1264.03 328.071 1303.37 364.492 1346.57 387.548C1407.91 420.333 1469.03 416.476 1527.7 374.752" stroke="white" stroke-width="0.888889"/>
<path opacity="0.25" d="M292.84 815.115C300.961 786.413 310.492 758.393 321.375 731.224C332.034 704.61 343.84 678.285 355.556 652.25C364.222 632.964 373.469 613.679 380.467 593.767C389.578 567.789 385.841 533.018 383.275 505.179C379.153 460.524 371.242 416.466 362.395 372.987C353.548 329.508 343.229 286.569 333.883 243.273C327.406 213.246 317.623 177.982 321.246 146.653C331.769 55.674 424.725 16.0038 484.761 4.58679C573.761 -12.3265 665.683 8.27993 752.887 36.8031C765.81 41.0363 778.802 45.4816 791.635 50.139C943.471 105.152 1088.13 188.451 1220.95 297.349C1261.54 330.617 1301.68 367.838 1345.44 392.166C1407.18 426.494 1469.99 422.811 1529.84 380.547" stroke="white" stroke-width="0.888889"/>
<path opacity="0.25" d="M302.323 814.797C325.384 744.087 353.541 675.161 373.01 603.516C380.558 575.658 375.939 540.992 372.579 512.324C367.212 466.589 358.237 421.558 348.31 377.124C338.383 332.69 327.03 289.057 316.605 244.951C309.403 214.596 298.654 179.139 301.409 147.077C309.456 53.6202 405.213 11.9347 465.716 -0.157303C556.612 -18.3338 650.662 2.3016 739.836 31.2491C909.465 86.4361 1070.86 176.782 1217.6 298.69C1258.78 332.902 1299.47 371.714 1344.34 396.776C1407.55 432.097 1470.87 429.156 1532 386.352" stroke="white" stroke-width="0.888889"/>
</g>
<g opacity="0.25">
<path opacity="0.25" d="M15.2351 893C-18.5232 771.376 5.73117 641.325 69.1336 544.261C143.557 430.342 260.971 372.168 373.229 353.335C466.367 337.733 561.95 347.55 655.932 345.043C818.194 340.752 977.919 293.628 1139.55 277.331C1197.84 271.459 1256.56 270.225 1314.89 263.041C1364.42 256.947 1417.95 247.13 1459.68 209.775" stroke="white" stroke-width="0.888889"/>
<path opacity="0.25" d="M24.1036 888.275C-7.34472 769.4 17.0002 643.196 78.8249 548.977C150.946 439.05 264.118 382.38 372.587 363.316C462.312 347.55 554.792 356.788 645.204 351.745C725.878 347.28 805.239 323.299 884.607 304.38C921.853 295.508 959.438 287.447 996.986 281.546C1035.03 275.577 1073.49 271.353 1111.85 268.701C1117.43 268.316 1123.04 267.969 1128.63 267.679C1192.68 264.391 1257.36 266.715 1321.18 262.781C1339.35 261.653 1357.86 259.994 1375.64 256.436C1406.43 250.265 1435.66 237.681 1462.21 215.319" stroke="white" stroke-width="0.888889"/>
<path opacity="0.25" d="M33.0114 883.685C3.83531 767.693 28.2482 645.172 88.4348 553.808C158.269 447.795 267.258 392.6 371.953 373.276C458.296 357.347 547.734 366.025 634.591 358.629C713.679 351.879 789.001 316.201 866.112 293.522C904 282.355 942.476 273.175 981.005 267.737C1020.43 262.173 1060.43 259.512 1100.28 258.509C1106.06 258.364 1111.88 258.268 1117.68 258.229C1184.27 257.805 1251.29 263.349 1317.72 263.87C1336.72 264.015 1356.14 263.87 1374.75 261.209C1406.85 256.706 1437.14 244.035 1464.79 220.941" stroke="white" stroke-width="0.888889"/>
<path opacity="0.25" d="M41.964 879.288C15.3394 765.697 39.1407 647.795 97.9685 558.793C165.5 456.58 270.345 402.851 371.318 383.295C454.355 367.211 540.177 374.675 624.075 365.659C702.175 357.202 772.93 309.403 847.512 283.011C885.95 269.425 925.332 259.261 964.873 254.189C1005.72 248.963 1047.29 247.815 1088.58 248.403C1094.58 248.5 1100.62 248.644 1106.62 248.847C1175.8 251.248 1245.14 259.926 1314.13 264.892C1333.91 266.32 1354.14 267.785 1373.72 265.905C1406.58 262.829 1439.6 251.306 1467.24 226.543" stroke="white" stroke-width="0.888889"/>
<path opacity="0.25" d="M50.9482 874.959C26.4221 764.135 50.1933 650.158 107.421 563.817C172.65 465.461 273.404 413.014 370.693 393.199C450.423 376.96 533.151 383.71 613.658 372.689C690.777 362.139 756.429 302.846 828.799 272.886C867.706 256.793 908.062 245.655 948.599 240.94C990.94 236.022 1034.07 236.321 1076.85 238.539C1083.07 238.857 1089.32 239.233 1095.54 239.687C1167.38 244.797 1239.14 256.667 1310.61 266.011C1331.27 268.701 1352.35 271.421 1372.75 270.678C1407.25 269.598 1440.83 256.258 1469.73 232.156" stroke="white" stroke-width="0.888889"/>
<path opacity="0.25" d="M59.9597 870.822C37.502 762.968 61.2204 652.578 116.78 569.005C179.706 474.294 276.422 423.187 370.027 403.159C446.511 386.767 526.174 392.803 603.285 379.901C679.701 367.125 739.73 296.598 810.032 263.118C849.317 244.356 890.421 232.522 932.209 227.941C976.083 223.236 1020.79 224.972 1065.07 228.742C1071.51 229.291 1077.97 229.889 1084.41 230.574C1158.92 238.442 1233.12 253.389 1307.1 267.043C1328.58 271.006 1350.48 275.133 1371.78 275.355C1406.79 275.712 1442.37 263.947 1472.17 237.748" stroke="white" stroke-width="0.888889"/>
<path opacity="0.25" d="M69.0117 866.82C48.5469 761.936 72.152 654.863 126.058 574.289C186.864 483.387 279.087 433.505 369.447 413.13C442.723 396.573 519.358 401.906 593.133 387.23C668.923 372.148 722.632 291.439 791.153 253.822C830.724 232.107 873.246 219.533 915.708 215.338C961.099 210.845 1007.43 213.94 1053.19 219.195C1059.85 219.957 1066.54 220.787 1073.21 221.703C1150.45 232.232 1227.2 250.255 1303.59 268.181C1325.8 273.397 1348.47 279.221 1370.77 280.118C1407.29 281.594 1443.69 270.379 1474.64 243.389" stroke="white" stroke-width="0.888889"/>
<path opacity="0.25" d="M78.086 862.973C59.5461 761.039 83.0229 657.65 135.261 579.698C193.771 492.345 282.07 443.736 368.843 423.091C438.949 406.399 512.61 410.98 583.04 394.664C658.393 377.201 705.527 286.02 772.191 244.884C811.928 220.353 855.613 207.026 899.011 202.986C946.078 198.599 993.997 202.986 1041.34 209.736C1048.22 210.7 1055.14 211.761 1062.02 212.889C1142.04 226.032 1221.3 247.121 1300.13 269.26C1323.22 275.74 1346.75 282.76 1369.85 284.814C1407.41 288.189 1444.81 276.502 1477.14 249.02" stroke="white" stroke-width="0.888889"/>
<path opacity="0.25" d="M87.1974 859.28C70.5145 760.326 93.8253 660.591 144.319 585.185C200.535 501.293 284.953 453.919 368.186 433.023C435.167 416.206 505.522 419.706 572.993 402.166C648.209 382.64 688.777 280.736 753.115 236.311C792.784 208.888 837.835 194.848 882.2 190.914C930.905 186.661 980.44 192.36 1029.35 200.441C1036.47 201.627 1043.62 202.88 1050.72 204.23C1133.57 219.986 1215.39 244.055 1296.62 270.35C1320.52 278.064 1344.85 286.483 1368.85 289.501C1407.8 294.615 1446.94 282.302 1479.57 254.662" stroke="white" stroke-width="0.888889"/>
<path opacity="0.25" d="M96.3301 855.721C81.4439 759.815 104.551 663.658 153.361 590.836C207.298 510.367 287.889 464.15 367.604 443.013C431.49 426.071 498.953 428.78 563.118 409.89C638.138 387.808 671.534 276.03 734.015 228.163C773.616 197.837 820.004 183.026 865.229 179.227C915.602 174.964 966.843 181.907 1017.29 191.415C1024.65 192.803 1032.03 194.26 1039.36 195.822C1125.05 214.075 1209.48 241.142 1293.1 271.556C1317.71 280.514 1342.74 290.542 1367.84 294.303C1408.11 300.301 1447.37 289.26 1481.97 260.303" stroke="white" stroke-width="0.888889"/>
<path opacity="0.25" d="M105.503 852.288C92.3383 759.448 115.173 666.849 162.293 596.544C213.995 519.422 290.766 474.351 367.009 452.974C427.845 435.916 492.432 437.796 553.344 417.662C628.258 392.909 654.181 271.652 714.835 220.391C754.202 187.124 802.024 171.512 848.207 167.751C900.294 163.46 953.226 171.608 1005.22 182.418C1012.82 183.999 1020.43 185.668 1028 187.432C1116.61 208.154 1203.67 238.182 1289.65 272.655C1315.12 282.866 1340.98 294.061 1366.85 298.97C1407.9 306.761 1448.61 295.652 1484.41 265.953" stroke="white" stroke-width="0.888889"/>
<path opacity="0.25" d="M114.689 849.058C103.193 759.275 125.68 669.27 171.124 602.407C220.946 529.122 292.486 485.479 366.397 462.934C424.522 445.211 486.634 447.362 543.65 425.55C618.134 397.055 636.183 268.258 695.562 212.976C734.552 176.69 783.959 160.394 831.025 156.576C884.803 152.207 939.479 161.455 993.098 173.585C1000.93 175.369 1008.78 177.298 1016.59 179.226C1108.07 202.282 1197.86 235.318 1286.17 273.792C1312.41 285.238 1339.07 297.784 1365.84 303.685C1407.99 312.952 1449.81 302.046 1486.81 271.613" stroke="white" stroke-width="0.888889"/>
<path opacity="0.25" d="M123.937 845.943C114.033 759.226 136.196 672.808 179.904 608.347C227.461 538.215 295.355 495.71 365.823 472.905C420.982 455.056 480.316 456.319 534.101 433.543C569.747 418.443 591.608 370.085 609.589 330.318C628.793 287.774 645.672 237.478 676.283 206.023C714.699 166.556 766.114 149.642 813.784 145.785C869.351 141.292 925.718 151.571 980.96 164.984C989.045 166.912 997.137 168.995 1005.18 171.155C1099.54 196.525 1192.09 232.512 1282.68 274.949C1309.63 287.562 1336.95 301.689 1364.82 308.361C1408.36 318.747 1451.14 308.361 1489.2 277.283" stroke="white" stroke-width="0.888889"/>
<path opacity="0.25" d="M133.154 842.974C124.775 759.342 146.561 676.492 188.532 614.393C233.825 547.347 298.435 505.266 365.174 482.866C417.11 465.442 473.741 465.018 524.574 441.644C560.175 425.251 579.877 372.014 595.533 331.196C612.616 286.666 626.936 232.994 656.799 199.418C694.626 156.894 747.823 139.229 796.309 135.265C853.627 130.579 911.888 141.822 968.648 156.479C976.951 158.63 985.323 160.867 993.604 163.229C1090.86 190.566 1186.26 229.764 1279.22 276.107C1307.02 289.973 1335.18 305.267 1363.77 313.058C1408.05 325.111 1452.28 314.726 1491.55 282.963" stroke="white" stroke-width="0.888889"/>
<path opacity="0.25" d="M142.416 840.158C135.501 759.641 156.894 680.291 197.099 620.535C240.127 556.527 301.227 515.43 364.607 492.827C413.674 475.297 467.55 473.918 515.228 449.84C550.708 431.933 568.07 374.251 581.658 332.199C596.627 285.914 608.335 228.848 637.391 193.16C674.493 147.608 729.486 129.113 778.787 125.006C837.91 120.078 897.96 132.295 956.35 148.148C964.918 150.472 973.531 152.892 982.016 155.399C1082.29 184.954 1180.47 227.035 1275.76 277.283C1304.15 292.259 1332.94 309.336 1362.77 317.783C1408.74 330.714 1453.46 320.926 1493.93 288.643" stroke="white" stroke-width="0.888889"/>
<path opacity="0.25" d="M151.7 837.487C146.189 760.113 167.145 684.235 205.576 626.774C246.4 565.726 303.997 525.689 363.987 502.797C410.193 485.171 461.367 482.76 505.95 458.142C541.384 438.615 556.18 376.593 567.805 333.51C580.751 285.441 589.621 225.299 617.891 187.413C654.125 138.794 711.066 119.461 761.145 115.17C822.094 109.953 883.956 123.086 943.999 140.048C952.816 142.536 961.686 145.13 970.42 147.762C1073.7 179.409 1174.73 224.373 1272.29 278.46C1301.45 294.621 1330.99 313.077 1361.74 322.43C1408.79 336.75 1454.59 327.309 1496.28 294.331" stroke="white" stroke-width="0.888889"/>
<path opacity="0.25" d="M161.009 834.932C156.834 760.683 177.307 688.285 213.956 633.09C252.576 574.925 306.354 536.808 363.422 512.73C407.062 494.312 455.057 492.374 496.817 466.522C532.297 444.585 544.269 378.889 553.962 334.899C564.892 285.248 570.886 222.03 598.296 181.926C633.632 130.241 692.543 110.05 743.361 105.537C806.107 99.9537 869.826 113.965 931.56 131.996C940.619 134.648 949.753 137.406 958.781 140.26C1065.1 173.933 1168.93 221.751 1268.83 279.655C1298.94 297.099 1329.31 316.404 1360.69 327.107C1408.25 343.336 1455.71 333.713 1498.61 300.031" stroke="white" stroke-width="0.888889"/>
<path opacity="0.25" d="M170.339 832.588C168.542 760.904 186.878 693.309 222.245 639.56C258.668 584.202 309.169 546.846 362.841 522.729C403.559 504.408 448.973 501.245 487.789 475.056C523.049 451.267 532.372 381.068 540.193 336.538C549.145 285.537 552.233 218.771 578.691 176.912C613.099 122.441 673.489 101.12 725.508 96.299C790.103 90.3013 855.68 105.122 919.105 124.195C928.435 127.001 937.818 129.923 947.096 132.941C1056.49 168.542 1163.15 219.176 1265.38 280.861C1296.06 299.365 1327.05 320.502 1359.65 331.784C1408.97 348.861 1456.81 340.096 1500.93 305.749" stroke="white" stroke-width="0.888889"/>
<path opacity="0.25" d="M179.684 830.361C179.08 761.849 196.888 697.639 230.442 646.089C264.699 593.468 311.871 557.077 362.259 532.69C400.222 514.321 443.258 510.107 478.858 483.657C513.824 457.67 520.331 383.941 526.461 338.322C533.451 286.309 533.428 216.158 559.049 172.264C592.656 114.688 654.821 92.4517 707.542 87.3217C773.971 80.8515 841.442 96.4438 906.596 116.501C916.183 119.461 925.83 122.537 935.364 125.719C1047.84 163.22 1157.37 216.621 1261.93 282.066C1293.37 301.747 1325.07 324.186 1358.56 336.451C1408.99 354.907 1457.88 346.402 1503.23 311.448" stroke="white" stroke-width="0.888889"/>
<path opacity="0.25" d="M189.045 828.278C189.573 763.093 206.853 702.036 238.55 652.713C270.617 602.812 314.589 567.288 361.686 542.651C396.954 524.214 437.363 518.814 470.042 492.345C504.661 464.314 508.314 386.545 512.775 340.26C516.006 306.703 518.06 272.934 522.121 239.522C525.05 215.416 528.379 188.503 539.355 167.973C571.815 107.34 635.979 84.0816 689.47 78.6431C757.764 71.6425 827.145 87.9484 894.043 108.96C903.894 112.046 913.806 115.276 923.604 118.603C1039.21 158.012 1151.61 214.114 1258.52 283.291C1290.9 304.244 1323.44 327.522 1357.56 341.147C1408.31 361.397 1458.98 352.815 1505.52 317.194" stroke="white" stroke-width="0.888889"/>
<path opacity="0.25" d="M198.422 826.349C200.022 764.279 216.659 706.683 246.56 659.434C276.461 612.184 317.187 577.529 361.113 552.621C393.724 534.107 431.521 527.473 461.339 501.139C495.588 470.89 496.244 389.553 499.128 342.429C501.219 308.255 502.148 273.966 504.843 239.84C506.851 214.682 508.949 186.053 519.631 164.126C550.664 100.484 617.123 76.2226 671.301 70.3405C741.452 62.7228 812.788 79.7132 881.422 101.622C891.537 104.852 901.721 108.227 911.776 111.708C1030.55 152.795 1145.84 211.645 1255.06 284.515C1288.05 306.51 1321.18 331.485 1356.46 345.785C1408.49 366.893 1460.39 359.545 1507.81 322.903" stroke="white" stroke-width="0.888889"/>
<path opacity="0.25" d="M207.821 824.556C210.417 765.61 226.368 711.505 254.48 666.184C282.41 621.278 319.83 587.76 360.548 562.534C390.547 543.953 425.694 536.055 452.742 509.972C486.5 477.418 484.175 392.514 485.511 344.696C486.5 309.297 486.205 273.831 487.776 238.462C488.915 212.725 489.844 183.498 499.854 160.587C529.068 94.0523 598.177 68.5473 653.019 62.2313C725.05 53.9964 798.175 71.6811 868.741 94.3319C879.151 97.6779 889.568 101.178 899.903 104.823C1022.03 148.023 1140.08 209.206 1251.62 285.759C1285.5 309.008 1319.48 334.879 1355.39 350.443C1407.92 373.209 1461.45 365.871 1510.07 328.631" stroke="white" stroke-width="0.888889"/>
<path opacity="0.25" d="M217.225 822.917C220.758 767.288 236.097 716.23 262.299 673.127C288.101 630.699 322.523 598 359.973 572.553C387.3 553.981 419.948 544.927 444.255 518.988C459.693 502.518 464.373 472.905 467.392 448.895C471.612 415.367 472.043 381.097 471.922 347.222C471.786 311.891 470.487 276.57 470.661 241.249C470.797 213.989 470.253 182.322 480.097 157.53C507.68 88.1028 579.19 61.3443 634.689 54.6233C708.599 45.6749 783.717 63.9189 856.073 87.4086C866.747 90.88 877.443 94.5056 888.042 98.2952C1013.35 143.037 1134.32 206.834 1248.2 287.042C1282.68 311.332 1317.25 338.852 1354.31 355.1C1408.4 378.831 1462.47 372.226 1512.32 334.368" stroke="white" stroke-width="0.888889"/>
<path opacity="0.25" d="M226.647 821.432C230.965 769.158 245.685 721.089 270.022 680.108C293.786 640.081 325.212 608.183 359.415 582.514C384.213 563.913 414.19 553.46 435.885 528.052C450.333 511.129 454.077 482.22 456.485 458.624C460.154 422.647 459.505 386.015 458.335 349.854C457.089 312.132 454.462 274.497 453.579 236.765C452.953 210.237 451.481 179.448 460.282 154.801C486.137 82.4232 560.108 54.4303 616.233 47.2272C692.016 37.4784 769.263 56.1756 843.339 80.5042C854.27 84.0913 865.23 87.8616 876.131 91.7573C1004.52 137.763 1128.56 204.423 1244.78 288.266C1280.01 313.685 1315.27 342.507 1353.22 359.748C1408.37 384.819 1463.44 378.58 1514.56 340.115" stroke="white" stroke-width="0.888889"/>
<path opacity="0.25" d="M236.075 820.082C241.178 771.203 255.234 726.075 277.653 687.176C299.402 649.425 327.845 618.549 358.856 592.484C381.434 573.508 408.27 561.628 427.626 537.193C442.157 518.872 444.709 486.453 446.271 461.633C448.536 425.415 446.966 388.83 444.761 352.67C442.497 315.063 438.851 277.621 436.669 240.014C435.054 212.176 432.011 178.927 440.443 152.497C464.449 77.2835 540.895 47.9021 597.685 40.1879C675.362 29.6291 754.64 48.7314 830.513 73.7832C841.723 77.486 853.001 81.372 864.135 85.3544C995.824 132.874 1122.82 202.089 1241.36 289.539C1277.48 316.153 1313.56 345.92 1352.13 364.367C1407.73 391 1464.45 384.944 1516.77 345.853" stroke="white" stroke-width="0.888889"/>
<path opacity="0.25" d="M245.517 818.886C251.337 773.305 264.661 731.215 285.179 694.322C304.964 658.75 330.509 628.693 358.296 602.455C378.406 583.459 402.532 570.21 419.442 546.431C432.939 527.493 434.592 496.154 435.604 471.536C437.196 432.907 434.502 393.989 431.135 355.631C427.632 315.748 422.665 276.088 419.283 236.186C416.958 208.801 413.108 176.951 420.559 150.568C442.624 72.4624 521.645 41.731 579.031 33.4479C658.58 21.9634 739.934 41.4899 817.649 67.1974C829.138 71.0063 840.688 74.9984 852.109 79.1351C987.066 128.053 1117.06 199.775 1237.94 290.812C1274.66 318.468 1311.32 349.855 1351.03 369.034C1408.26 396.66 1465.41 391.366 1518.96 351.638" stroke="white" stroke-width="0.888889"/>
<path opacity="0.25" d="M254.969 817.835C261.43 775.571 274.007 736.47 292.614 701.554C310.452 668.093 333.257 638.143 357.738 612.416C375.523 593.738 396.697 578.079 411.448 555.746C424.907 535.381 425.119 500.677 425.277 474.689C425.511 435.897 421.895 397.094 417.562 358.765C413.033 319.056 407.175 279.627 402.578 239.937C399.256 211.298 393.753 177.26 400.743 149.016C420.74 68.2005 502.381 35.878 560.363 27.0357C641.814 14.6158 725.221 34.4413 804.808 60.7852C816.577 64.6423 828.413 68.7983 840.114 73.0507C978.31 123.299 1111.32 197.5 1234.54 292.104C1271.99 320.859 1309.34 353.529 1349.93 373.663C1408.15 402.591 1466.36 397.702 1521.19 357.405" stroke="white" stroke-width="0.888889"/>
<path opacity="0.25" d="M264.427 816.929C271.249 778.538 283.272 741.965 299.952 708.863C315.895 677.341 335.892 648.682 357.187 622.387C372.541 603.439 391.013 587.49 403.537 565.138C415.705 543.413 415.207 510.386 414.86 484.737C414.264 443.572 409.485 402.542 403.922 362.052C398.169 320.155 390.87 278.633 384.997 236.764C381.071 208.801 374.927 175.813 380.898 147.849C398.728 64.3526 483.041 30.3909 541.597 20.941C624.958 7.50873 710.441 27.6041 791.908 54.5941C803.986 58.5862 816.064 62.7904 828.066 67.1297C969.576 118.583 1105.6 195.224 1231.17 293.377C1269.52 323.356 1307.66 356.874 1348.85 378.281C1407.64 408.829 1467.22 403.776 1523.41 363.161" stroke="white" stroke-width="0.888889"/>
<path opacity="0.25" d="M273.894 816.177C281.24 781.024 292.451 747.38 307.192 716.249C321.301 686.578 338.557 658.393 356.644 632.357C369.809 613.409 385.171 595.628 395.732 574.617C407.108 551.985 405.462 517.946 404.383 491.448C402.654 449.088 396.834 407.017 390.168 365.524C383.48 323.848 375.35 282.597 368.337 241.027C363.378 211.626 355.67 176.941 361 147.078C376.331 61.1225 463.663 25.2515 522.71 15.1749C607.944 0.652941 695.578 20.9606 778.924 48.5098C791.266 52.5887 803.677 56.8893 815.913 61.3442C961.015 114.254 1099.62 192.797 1227.71 294.698C1266.68 325.671 1305.32 360.838 1347.7 382.919C1408.09 414.412 1468.11 410.15 1525.55 368.966" stroke="white" stroke-width="0.888889"/>
<path opacity="0.25" d="M283.368 815.569C291.141 783.655 301.514 752.871 314.318 723.722C326.675 695.681 341.184 668.392 356.085 642.318C366.986 623.255 379.313 604.538 388.024 584.173C398.336 560.066 395.671 525.352 393.867 498.294C390.961 454.758 384.054 411.674 376.324 369.169C368.594 326.664 359.316 284.477 351.133 242.029C345.426 212.397 336.632 177.211 341.108 146.692C354.077 58.2103 444.21 20.459 503.755 9.76523C590.891 -5.91384 680.631 14.5867 765.91 42.6277C778.539 46.7837 791.244 51.1711 803.79 55.7225C952.254 109.702 1093.88 190.63 1224.34 296.029C1264.03 328.071 1303.37 364.492 1346.57 387.548C1407.91 420.333 1469.03 416.476 1527.7 374.752" stroke="white" stroke-width="0.888889"/>
<path opacity="0.25" d="M292.84 815.115C300.961 786.413 310.492 758.393 321.375 731.224C332.034 704.61 343.84 678.285 355.556 652.25C364.222 632.964 373.469 613.679 380.467 593.767C389.578 567.789 385.841 533.018 383.275 505.179C379.153 460.524 371.242 416.466 362.395 372.987C353.548 329.508 343.229 286.569 333.883 243.273C327.406 213.246 317.623 177.982 321.246 146.653C331.769 55.674 424.725 16.0038 484.761 4.58679C573.761 -12.3265 665.683 8.27993 752.887 36.8031C765.81 41.0363 778.802 45.4816 791.635 50.139C943.471 105.152 1088.13 188.451 1220.95 297.349C1261.54 330.617 1301.68 367.838 1345.44 392.166C1407.18 426.494 1469.99 422.811 1529.84 380.547" stroke="white" stroke-width="0.888889"/>
<path opacity="0.25" d="M302.323 814.797C325.384 744.087 353.541 675.161 373.01 603.516C380.558 575.658 375.939 540.992 372.579 512.324C367.212 466.589 358.237 421.558 348.31 377.124C338.383 332.69 327.03 289.057 316.605 244.951C309.403 214.596 298.654 179.139 301.409 147.077C309.456 53.6202 405.213 11.9347 465.716 -0.157303C556.612 -18.3338 650.662 2.3016 739.836 31.2491C909.465 86.4361 1070.86 176.782 1217.6 298.69C1258.78 332.902 1299.47 371.714 1344.34 396.776C1407.55 432.097 1470.87 429.156 1532 386.352" stroke="white" stroke-width="0.888889"/>
</g>
<g opacity="0.25">
<path opacity="0.25" d="M1516.76 -6.99997C1550.52 114.624 1526.27 244.675 1462.87 341.739C1388.44 455.658 1271.03 513.832 1158.77 532.665C1065.63 548.267 970.05 538.45 876.068 540.957C713.806 545.248 554.081 592.372 392.446 608.669C334.162 614.541 275.44 615.775 217.11 622.959C167.583 629.053 114.046 638.87 72.3242 676.225" stroke="white" stroke-width="0.888889"/>
<path opacity="0.25" d="M1507.9 -2.27524C1539.34 116.6 1515 242.804 1453.18 337.023C1381.05 446.95 1267.88 503.621 1159.41 522.684C1069.69 538.45 977.208 529.212 886.796 534.255C806.122 538.72 726.761 562.701 647.393 581.62C610.147 590.492 572.562 598.553 535.014 604.454C496.968 610.423 458.507 614.647 420.152 617.299C414.573 617.684 408.964 618.031 403.371 618.321C339.319 621.609 274.641 619.285 210.816 623.219C192.653 624.347 174.136 626.006 156.359 629.564C125.567 635.735 96.3382 648.319 69.7891 670.681" stroke="white" stroke-width="0.888889"/>
<path opacity="0.25" d="M1498.99 2.31497C1528.16 118.307 1503.75 240.828 1443.57 332.193C1373.73 438.205 1264.74 493.4 1160.05 512.724C1073.7 528.653 984.266 519.975 897.409 527.371C818.321 534.121 742.999 569.799 665.888 592.478C628 603.645 589.524 612.825 550.995 618.263C511.575 623.827 471.566 626.488 431.724 627.491C425.941 627.636 420.121 627.732 414.324 627.771C347.728 628.195 280.71 622.651 214.28 622.13C195.28 621.985 175.864 622.13 157.249 624.791C125.152 629.294 94.8583 641.965 67.207 665.059" stroke="white" stroke-width="0.888889"/>
<path opacity="0.25" d="M1490.04 6.71182C1516.66 120.303 1492.86 238.205 1434.03 327.207C1366.5 429.42 1261.65 483.149 1160.68 502.705C1077.64 518.789 991.823 511.325 907.925 520.341C829.825 528.798 759.07 576.597 684.488 602.989C646.05 616.575 606.668 626.739 567.127 631.811C526.28 637.037 484.709 638.185 443.417 637.597C437.416 637.5 431.384 637.356 425.383 637.153C356.198 634.752 286.855 626.074 217.867 621.108C198.089 619.68 177.858 618.215 158.276 620.095C125.416 623.171 92.3979 634.694 64.7617 659.457" stroke="white" stroke-width="0.888889"/>
<path opacity="0.25" d="M1481.05 11.0413C1505.58 121.865 1481.81 235.842 1424.58 322.183C1359.35 420.539 1258.6 472.986 1161.31 492.801C1081.58 509.04 998.849 502.29 918.342 513.311C841.223 523.861 775.571 583.154 703.201 613.114C664.294 629.207 623.938 640.345 583.401 645.06C541.06 649.978 497.926 649.679 455.147 647.461C448.934 647.143 442.684 646.767 436.464 646.313C364.622 641.203 292.863 629.333 221.391 619.989C200.73 617.299 179.646 614.579 159.249 615.322C124.748 616.402 91.1657 629.742 62.2695 653.844" stroke="white" stroke-width="0.888889"/>
<path opacity="0.25" d="M1472.04 15.1783C1494.5 123.032 1470.78 233.422 1415.22 316.995C1352.29 411.706 1255.58 462.813 1161.97 482.841C1085.49 499.233 1005.83 493.197 928.715 506.099C852.299 518.875 792.27 589.402 721.968 622.882C682.683 641.644 641.579 653.478 599.791 658.059C555.917 662.764 511.206 661.028 466.932 657.258C460.493 656.709 454.031 656.111 447.592 655.426C373.078 647.558 298.881 632.611 224.902 618.957C203.419 614.994 181.519 610.867 160.224 610.645C125.205 610.289 89.6279 622.053 59.8252 648.252" stroke="white" stroke-width="0.888889"/>
<path opacity="0.25" d="M1462.99 19.18C1483.45 124.064 1459.85 231.137 1405.94 311.711C1345.14 402.613 1252.91 452.495 1162.55 472.87C1089.28 489.427 1012.64 484.094 938.867 498.77C863.077 513.852 809.368 594.561 740.847 632.178C701.276 653.893 658.754 666.467 616.292 670.662C570.901 675.155 524.566 672.06 478.805 666.805C472.147 666.043 465.459 665.214 458.794 664.297C381.547 653.768 304.798 635.745 228.412 617.82C206.203 612.603 183.526 606.779 161.227 605.882C124.706 604.406 88.3058 615.621 57.3633 642.611" stroke="white" stroke-width="0.888889"/>
<path opacity="0.25" d="M1453.91 23.0275C1472.45 124.961 1448.98 228.35 1396.74 306.302C1338.23 393.655 1249.93 442.264 1163.16 462.909C1093.05 479.601 1019.39 475.02 948.96 491.336C873.607 508.799 826.473 599.981 759.809 641.116C720.072 665.647 676.387 678.974 632.989 683.014C585.922 687.401 538.003 683.014 490.664 676.264C483.78 675.3 476.865 674.239 469.98 673.111C389.963 659.968 310.701 638.879 231.869 616.74C208.777 610.26 185.247 603.24 162.148 601.186C124.593 597.811 87.1882 609.498 54.8643 636.98" stroke="white" stroke-width="0.888889"/>
<path opacity="0.25" d="M1444.8 26.7205C1461.49 125.674 1438.17 225.409 1387.68 300.815C1331.46 384.707 1247.05 432.081 1163.81 452.977C1096.83 469.794 1026.48 466.294 959.007 483.834C883.791 503.36 843.223 605.265 778.885 649.689C739.216 677.112 694.165 691.152 649.8 695.086C601.095 699.339 551.56 693.64 502.652 685.559C495.525 684.373 488.377 683.12 481.281 681.77C398.433 666.014 316.611 641.945 235.379 615.65C211.479 607.936 187.149 599.517 163.152 596.499C124.198 591.385 85.063 603.698 52.4258 631.338" stroke="white" stroke-width="0.888889"/>
<path opacity="0.25" d="M1435.67 30.2787C1450.56 126.185 1427.45 222.342 1378.64 295.164C1324.7 375.633 1244.11 421.85 1164.4 442.987C1100.51 459.929 1033.05 457.22 968.882 476.11C893.862 498.192 860.466 609.97 797.985 657.837C758.384 688.163 711.996 702.974 666.771 706.774C616.398 711.036 565.157 704.093 514.708 694.585C507.348 693.197 499.973 691.74 492.636 690.178C406.949 671.925 322.516 644.858 238.898 614.444C214.289 605.486 189.257 595.458 164.165 591.697C123.892 585.699 84.6303 596.74 50.0342 625.697" stroke="white" stroke-width="0.888889"/>
<path opacity="0.25" d="M1426.5 33.7117C1439.66 126.552 1416.83 219.151 1369.71 289.456C1318.01 366.578 1241.23 411.649 1164.99 433.026C1104.16 450.084 1039.57 448.204 978.656 468.338C903.742 493.091 877.819 614.348 817.165 665.609C777.798 698.876 729.976 714.488 683.793 718.249C631.706 722.54 578.774 714.392 526.777 703.582C519.176 702.001 511.567 700.332 504.003 698.568C415.395 677.846 328.334 647.818 242.354 613.345C216.884 603.134 191.022 591.939 165.152 587.03C124.102 579.239 83.3909 590.348 47.5869 620.047" stroke="white" stroke-width="0.888889"/>
<path opacity="0.25" d="M1417.31 36.9419C1428.81 126.725 1406.32 216.731 1360.88 283.593C1311.05 356.878 1239.51 400.521 1165.6 423.066C1107.48 440.789 1045.37 438.639 988.35 460.45C913.866 488.945 895.817 617.742 836.438 673.024C797.448 709.31 748.041 725.606 700.975 729.425C647.197 733.793 592.521 724.545 538.902 712.415C531.066 710.631 523.215 708.702 515.41 706.774C423.934 683.718 334.141 650.682 245.835 612.208C219.587 600.762 192.925 588.216 166.165 582.315C124.012 573.048 82.1917 583.954 45.1875 614.387" stroke="white" stroke-width="0.888889"/>
<path opacity="0.25" d="M1408.06 40.0568C1417.97 126.774 1395.8 213.192 1352.1 277.653C1304.54 347.785 1236.64 390.29 1166.18 413.095C1111.02 430.944 1051.68 429.681 997.899 452.457C962.253 467.557 940.392 515.915 922.411 555.682C903.207 598.226 886.328 648.522 855.717 679.977C817.301 719.444 765.886 736.358 718.216 740.215C662.649 744.708 606.282 734.429 551.04 721.016C542.955 719.088 534.863 717.005 526.823 714.845C432.463 689.475 339.908 653.488 249.322 611.051C222.365 598.438 195.046 584.311 167.176 577.639C123.642 567.253 80.8628 577.639 42.8018 608.717" stroke="white" stroke-width="0.888889"/>
<path opacity="0.25" d="M1398.85 43.0263C1407.23 126.658 1385.44 209.508 1343.47 271.607C1298.18 338.653 1233.57 380.734 1166.83 403.134C1114.89 420.558 1058.26 420.982 1007.43 444.356C971.825 460.749 952.123 513.987 936.467 554.804C919.384 599.334 905.064 653.006 875.201 686.582C837.374 729.106 784.177 746.771 735.691 750.735C678.373 755.421 620.112 744.178 563.352 729.521C555.049 727.37 546.677 725.133 538.396 722.771C441.145 695.434 345.735 656.236 252.779 609.893C224.977 596.027 196.82 580.733 168.233 572.942C123.951 560.889 79.723 571.274 40.4541 603.037" stroke="white" stroke-width="0.888889"/>
<path opacity="0.25" d="M1389.58 45.8421C1396.5 126.359 1375.11 205.709 1334.9 265.465C1291.87 329.473 1230.77 370.57 1167.39 393.173C1118.33 410.703 1064.45 412.082 1016.77 436.16C981.292 454.067 963.93 511.749 950.342 553.801C935.373 600.086 923.665 657.152 894.609 692.84C857.507 738.392 802.514 756.887 753.213 760.994C694.09 765.922 634.04 753.705 575.65 737.852C567.082 735.528 558.469 733.108 549.984 730.601C449.706 701.046 351.533 658.965 256.245 608.717C227.846 593.741 199.055 576.664 169.23 568.217C123.258 555.286 78.5385 565.074 38.0693 597.357" stroke="white" stroke-width="0.888889"/>
<path opacity="0.25" d="M1380.3 48.5133C1385.81 125.887 1364.86 201.765 1326.42 259.226C1285.6 320.274 1228 360.311 1168.01 383.203C1121.81 400.829 1070.63 403.24 1026.05 427.858C990.616 447.385 975.82 509.407 964.195 552.49C951.249 600.559 942.379 660.701 914.109 698.587C877.875 747.206 820.934 766.539 770.855 770.83C709.906 776.047 648.044 762.914 588.001 745.952C579.184 743.464 570.314 740.87 561.58 738.238C458.297 706.591 357.271 661.627 259.711 607.541C230.55 591.379 201.011 572.923 170.265 563.57C123.206 549.25 77.4147 558.691 35.7227 591.669" stroke="white" stroke-width="0.888889"/>
<path opacity="0.25" d="M1370.99 51.0684C1375.17 125.317 1354.69 197.715 1318.04 252.91C1279.42 311.075 1225.65 349.192 1168.58 373.27C1124.94 391.688 1076.94 393.626 1035.18 419.478C999.703 441.415 987.731 507.111 978.038 551.101C967.108 600.752 961.114 663.97 933.704 704.074C898.368 755.759 839.457 775.95 788.639 780.463C725.893 786.046 662.174 772.036 600.44 754.004C591.381 751.352 582.247 748.594 573.219 745.74C466.901 712.067 363.068 664.249 263.167 606.345C233.062 588.901 202.693 569.596 171.305 558.893C123.748 542.664 76.2885 552.287 33.3887 585.97" stroke="white" stroke-width="0.888889"/>
<path opacity="0.25" d="M1361.66 53.4117C1363.46 125.096 1345.12 192.691 1309.76 246.44C1273.33 301.799 1222.83 339.154 1169.16 363.271C1128.44 381.592 1083.03 384.755 1044.21 410.944C1008.95 434.733 999.628 504.932 991.807 549.462C982.855 600.463 979.767 667.229 953.309 709.088C918.901 763.56 858.511 784.88 806.492 789.701C741.897 795.699 676.32 780.878 612.895 761.805C603.565 758.999 594.182 756.077 584.904 753.059C475.515 717.458 368.85 666.824 266.617 605.139C235.938 586.635 204.95 565.498 172.355 554.216C123.031 537.139 75.1865 545.904 31.0713 580.251" stroke="white" stroke-width="0.888889"/>
<path opacity="0.25" d="M1352.32 55.6391C1352.92 124.151 1335.11 188.362 1301.56 239.911C1267.3 292.532 1220.13 328.923 1169.74 353.31C1131.78 371.679 1088.74 375.893 1053.14 402.343C1018.18 428.33 1011.67 502.059 1005.54 547.678C998.549 599.691 998.572 669.842 972.951 713.736C939.344 771.312 877.179 793.548 824.458 798.678C758.029 805.149 690.558 789.556 625.404 769.499C615.817 766.539 606.17 763.463 596.636 760.281C484.159 722.78 374.625 669.379 270.067 603.934C238.634 584.253 206.929 561.814 173.442 549.549C123.009 531.093 74.1152 539.598 28.7695 574.553" stroke="white" stroke-width="0.888889"/>
<path opacity="0.25" d="M1342.95 57.722C1342.43 122.907 1325.15 183.964 1293.45 233.287C1261.38 283.188 1217.41 318.712 1170.31 343.349C1135.05 361.786 1094.64 367.186 1061.96 393.655C1027.34 421.687 1023.69 499.455 1019.22 545.74C1015.99 579.297 1013.94 613.066 1009.88 646.478C1006.95 670.584 1003.62 697.497 992.645 718.027C960.185 778.66 896.021 801.918 842.53 807.357C774.236 814.358 704.855 798.052 637.957 777.04C628.106 773.954 618.194 770.724 608.396 767.397C492.786 727.988 380.392 671.886 273.478 602.709C241.101 581.756 208.559 558.478 174.438 544.853C123.687 524.603 73.0198 533.185 26.4814 568.806" stroke="white" stroke-width="0.888889"/>
<path opacity="0.25" d="M1333.58 59.6507C1331.98 121.721 1315.34 179.317 1285.44 226.566C1255.54 273.816 1214.81 308.472 1170.89 333.379C1138.28 351.893 1100.48 358.527 1070.66 384.861C1036.41 415.11 1035.76 496.447 1032.87 543.571C1030.78 577.745 1029.85 612.034 1027.16 646.16C1025.15 671.318 1023.05 699.947 1012.37 721.874C981.336 785.516 914.877 809.777 860.699 815.66C790.548 823.277 719.212 806.287 650.578 784.379C640.463 781.148 630.279 777.773 620.224 774.292C501.451 733.205 386.158 674.355 276.942 601.485C243.947 579.49 210.822 554.515 175.539 540.215C123.505 519.107 71.6149 526.455 24.1934 563.097" stroke="white" stroke-width="0.888889"/>
<path opacity="0.25" d="M1324.18 61.4441C1321.58 120.39 1305.63 174.495 1277.52 219.816C1249.59 264.722 1212.17 298.24 1171.45 323.466C1141.45 342.047 1106.31 349.945 1079.26 376.028C1045.5 408.582 1047.83 493.486 1046.49 541.305C1045.5 576.703 1045.79 612.169 1044.22 647.538C1043.08 673.275 1042.16 702.502 1032.15 725.413C1002.93 791.948 933.823 817.453 878.981 823.769C806.95 832.004 733.825 814.319 663.259 791.668C652.849 788.322 642.432 784.822 632.097 781.177C509.965 737.977 391.917 676.794 280.376 600.241C246.497 576.992 212.52 551.121 176.61 535.558C124.078 512.791 70.5496 520.129 21.9277 557.369" stroke="white" stroke-width="0.888889"/>
<path opacity="0.25" d="M1314.77 63.0832C1311.24 118.712 1295.9 169.77 1269.7 212.873C1243.9 255.301 1209.48 288 1172.03 313.447C1144.7 332.019 1112.05 341.073 1087.74 367.012C1072.31 383.482 1067.63 413.095 1064.61 437.105C1060.39 470.633 1059.96 504.903 1060.08 538.778C1060.21 574.109 1061.51 609.43 1061.34 644.751C1061.2 672.011 1061.75 703.678 1051.9 728.47C1024.32 797.897 952.81 824.656 897.311 831.377C823.401 840.325 748.283 822.081 675.927 798.591C665.253 795.12 654.557 791.494 643.958 787.705C518.648 742.963 397.678 679.166 283.797 598.958C249.322 574.668 214.748 547.148 177.691 530.9C123.596 507.169 69.532 513.774 19.6797 551.632" stroke="white" stroke-width="0.888889"/>
<path opacity="0.25" d="M1305.35 64.5684C1301.04 116.842 1286.31 164.911 1261.98 205.892C1238.21 245.919 1206.79 277.817 1172.58 303.486C1147.79 322.087 1117.81 332.54 1096.12 357.948C1081.67 374.871 1077.92 403.78 1075.51 427.376C1071.85 463.353 1072.5 499.985 1073.67 536.146C1074.91 573.868 1077.54 611.504 1078.42 649.235C1079.05 675.763 1080.52 706.552 1071.72 731.199C1045.86 803.577 971.892 831.57 915.767 838.773C839.984 848.522 762.737 829.824 688.661 805.496C677.73 801.909 666.77 798.138 655.869 794.243C527.479 748.237 403.437 681.577 287.223 597.734C251.993 572.316 216.732 543.493 178.777 526.252C123.626 501.181 68.5646 507.42 17.4365 545.885" stroke="white" stroke-width="0.888889"/>
<path opacity="0.25" d="M1295.93 65.9184C1290.82 114.797 1276.77 159.925 1254.35 198.824C1232.6 236.575 1204.15 267.451 1173.14 293.516C1150.57 312.492 1123.73 324.372 1104.37 348.807C1089.84 367.128 1087.29 399.547 1085.73 424.367C1083.46 460.585 1085.03 497.17 1087.24 533.33C1089.5 570.937 1093.15 608.379 1095.33 645.986C1096.95 673.824 1099.99 707.073 1091.56 733.503C1067.55 808.717 991.105 838.098 934.315 845.812C856.638 856.371 777.36 837.269 701.487 812.217C690.277 808.514 678.999 804.628 667.865 800.646C536.176 753.126 409.183 683.911 290.644 596.461C254.523 569.847 218.439 540.08 179.873 521.633C124.268 495 67.5463 501.056 15.2256 540.147" stroke="white" stroke-width="0.888889"/>
<path opacity="0.25" d="M1286.48 67.1138C1280.66 112.695 1267.34 154.785 1246.82 191.678C1227.04 227.25 1201.49 257.307 1173.7 283.545C1153.59 302.541 1129.47 315.79 1112.56 339.569C1099.06 358.507 1097.41 389.846 1096.4 414.464C1094.8 453.093 1097.5 492.011 1100.87 530.369C1104.37 570.252 1109.33 609.912 1112.72 649.814C1115.04 677.199 1118.89 709.049 1111.44 735.432C1089.38 813.538 1010.36 844.269 952.969 852.552C873.42 864.037 792.066 844.51 714.351 818.803C702.862 814.994 691.312 811.002 679.891 806.865C544.934 757.947 414.943 686.225 294.057 595.188C257.339 567.533 220.682 536.145 180.968 516.966C123.741 489.34 66.5886 494.634 13.0449 534.362" stroke="white" stroke-width="0.888889"/>
<path opacity="0.25" d="M1277.03 68.1647C1270.57 110.429 1257.99 149.53 1239.39 184.446C1221.55 217.907 1198.74 247.857 1174.26 273.584C1156.48 292.262 1135.3 307.921 1120.55 330.254C1107.09 350.619 1106.88 385.324 1106.72 411.311C1106.49 450.103 1110.1 488.906 1114.44 527.235C1118.97 566.944 1124.82 606.373 1129.42 646.063C1132.74 674.702 1138.25 708.74 1131.26 736.984C1111.26 817.8 1029.62 850.122 971.637 858.964C890.186 871.384 806.779 851.559 727.192 825.215C715.423 821.358 703.587 817.202 691.886 812.949C553.69 762.701 420.68 688.5 297.461 593.896C260.012 565.141 222.66 532.471 182.07 512.337C123.846 483.409 65.6375 488.298 10.8105 528.595" stroke="white" stroke-width="0.888889"/>
<path opacity="0.25" d="M1267.57 69.0714C1260.75 107.462 1248.73 144.035 1232.05 177.137C1216.1 208.66 1196.11 237.318 1174.81 263.613C1159.46 282.561 1140.99 298.51 1128.46 320.862C1116.29 342.587 1116.79 375.614 1117.14 401.263C1117.74 442.428 1122.51 483.458 1128.08 523.948C1133.83 565.845 1141.13 607.367 1147 649.236C1150.93 677.199 1157.07 710.187 1151.1 738.151C1133.27 821.647 1048.96 855.609 990.403 865.059C907.042 878.491 821.559 858.396 740.092 831.406C728.014 827.414 715.936 823.21 703.934 818.87C562.424 767.417 426.402 690.776 300.828 592.623C262.48 562.644 224.336 529.126 183.149 507.719C124.359 477.171 64.7766 482.224 8.59082 522.839" stroke="white" stroke-width="0.888889"/>
<path opacity="0.25" d="M1258.11 69.8235C1250.76 104.976 1239.55 138.62 1224.81 169.751C1210.7 199.422 1193.44 227.607 1175.36 253.643C1162.19 272.591 1146.83 290.372 1136.27 311.383C1124.89 334.015 1126.54 368.054 1127.62 394.552C1129.35 436.912 1135.17 478.983 1141.83 520.476C1148.52 562.152 1156.65 603.403 1163.66 644.973C1168.62 674.374 1176.33 709.059 1171 738.922C1155.67 824.878 1068.34 860.749 1009.29 870.825C924.056 885.347 836.422 865.039 753.076 837.49C740.734 833.411 728.323 829.111 716.087 824.656C570.985 771.746 432.38 693.203 304.292 591.302C265.318 560.33 226.675 525.162 184.304 503.081C123.913 471.588 63.8929 475.85 6.4541 517.034" stroke="white" stroke-width="0.888889"/>
<path opacity="0.25" d="M1248.63 70.4311C1240.86 102.345 1230.49 133.129 1217.68 162.278C1205.32 190.319 1190.82 217.608 1175.91 243.682C1165.01 262.746 1152.69 281.462 1143.98 301.827C1133.66 325.934 1136.33 360.648 1138.13 387.706C1141.04 431.242 1147.95 474.326 1155.68 516.831C1163.41 559.336 1172.68 601.523 1180.87 643.971C1186.57 673.603 1195.37 708.789 1190.89 739.308C1177.92 827.79 1087.79 865.541 1028.24 876.235C941.109 891.914 851.369 871.413 766.09 843.372C753.461 839.216 740.756 834.829 728.21 830.278C579.746 776.298 438.117 695.37 307.659 589.971C267.975 557.929 228.631 521.508 185.429 498.452C124.095 465.667 62.972 469.524 4.30273 511.248" stroke="white" stroke-width="0.888889"/>
<path opacity="0.25" d="M1239.16 70.8846C1231.04 99.5871 1221.51 127.607 1210.63 154.776C1199.97 181.39 1188.16 207.715 1176.44 233.75C1167.78 253.036 1158.53 272.321 1151.53 292.233C1142.42 318.211 1146.16 352.982 1148.73 380.821C1152.85 425.476 1160.76 469.534 1169.61 513.013C1178.45 556.492 1188.77 599.431 1198.12 642.727C1204.59 672.754 1214.38 708.018 1210.75 739.347C1200.23 830.326 1107.27 869.996 1047.24 881.413C958.239 898.327 866.317 877.72 779.113 849.197C766.19 844.964 753.198 840.518 740.365 835.861C588.529 780.848 443.87 697.549 311.05 588.651C270.46 555.383 230.315 518.162 186.562 493.834C124.821 459.506 62.0071 463.189 2.16016 505.453" stroke="white" stroke-width="0.888889"/>
<path opacity="0.25" d="M1229.68 71.2027C1206.62 141.913 1178.46 210.839 1158.99 282.484C1151.44 310.342 1156.06 345.008 1159.42 373.676C1164.79 419.411 1173.76 464.443 1183.69 508.876C1193.62 553.31 1204.97 596.943 1215.4 641.049C1222.6 671.404 1233.35 706.861 1230.59 738.923C1222.54 832.38 1126.79 874.065 1066.28 886.157C975.388 904.334 881.338 883.698 792.164 854.751C622.535 799.564 461.139 709.218 314.4 587.31C273.221 553.098 232.526 514.286 187.663 489.224C124.45 453.903 61.1302 456.844 0 499.648" stroke="white" stroke-width="0.888889"/>
</g>
</g>
<defs>
<clipPath id="clip0_174_85286">
<rect width="904" height="900" fill="white" transform="translate(0 -10)"/>
</clipPath>
</defs>
</svg>
