<svg width="1440" height="900" viewBox="0 0 1440 900" fill="none" xmlns="http://www.w3.org/2000/svg">
<g clip-path="url(#clip0_216_119505)">
<g opacity="0.25">
<path opacity="0.25" d="M15.2351 903C-18.5232 781.376 5.73117 651.325 69.1336 554.261C143.557 440.342 260.971 382.168 373.229 363.335C466.367 347.733 561.95 357.55 655.932 355.043C818.194 350.752 977.919 303.628 1139.55 287.331C1197.84 281.459 1256.56 280.225 1314.89 273.041C1364.42 266.947 1417.95 257.13 1459.68 219.775" stroke="white" stroke-width="0.888889"/>
<path opacity="0.25" d="M24.1036 898.275C-7.34472 779.4 17.0002 653.196 78.8249 558.977C150.946 449.05 264.118 392.38 372.587 373.316C462.312 357.55 554.792 366.788 645.204 361.745C725.878 357.28 805.239 333.299 884.607 314.38C921.853 305.508 959.438 297.447 996.986 291.546C1035.03 285.577 1073.49 281.353 1111.85 278.702C1117.43 278.316 1123.04 277.969 1128.63 277.679C1192.68 274.391 1257.36 276.715 1321.18 272.781C1339.35 271.653 1357.86 269.994 1375.64 266.436C1406.43 260.265 1435.66 247.681 1462.21 225.319" stroke="white" stroke-width="0.888889"/>
<path opacity="0.25" d="M33.0114 893.685C3.83531 777.693 28.2482 655.172 88.4348 563.808C158.269 457.795 267.258 402.6 371.953 383.276C458.296 367.347 547.734 376.025 634.591 368.629C713.679 361.879 789.001 326.201 866.112 303.522C904 292.355 942.476 283.175 981.005 277.737C1020.43 272.173 1060.43 269.512 1100.28 268.509C1106.06 268.364 1111.88 268.268 1117.68 268.229C1184.27 267.805 1251.29 273.349 1317.72 273.87C1336.72 274.015 1356.14 273.87 1374.75 271.209C1406.85 266.706 1437.14 254.035 1464.79 230.941" stroke="white" stroke-width="0.888889"/>
<path opacity="0.25" d="M41.964 889.288C15.3394 775.697 39.1407 657.795 97.9685 568.793C165.5 466.58 270.345 412.851 371.318 393.295C454.355 377.211 540.177 384.675 624.075 375.659C702.175 367.202 772.93 319.403 847.512 293.011C885.95 279.424 925.332 269.261 964.873 264.189C1005.72 258.963 1047.29 257.815 1088.58 258.403C1094.58 258.5 1100.62 258.644 1106.62 258.847C1175.8 261.248 1245.14 269.926 1314.13 274.892C1333.91 276.319 1354.14 277.785 1373.72 275.905C1406.58 272.829 1439.6 261.306 1467.24 236.543" stroke="white" stroke-width="0.888889"/>
<path opacity="0.25" d="M50.9482 884.959C26.4221 774.135 50.1933 660.158 107.421 573.817C172.65 475.461 273.404 423.015 370.693 403.199C450.423 386.961 533.151 393.71 613.658 382.689C690.777 372.14 756.429 312.847 828.799 282.887C867.706 266.793 908.062 255.656 948.599 250.94C990.94 246.023 1034.07 246.321 1076.85 248.539C1083.07 248.858 1089.32 249.234 1095.54 249.687C1167.38 254.797 1239.14 266.668 1310.61 276.011C1331.27 278.702 1352.35 281.421 1372.75 280.679C1407.25 279.598 1440.83 266.258 1469.73 242.156" stroke="white" stroke-width="0.888889"/>
<path opacity="0.25" d="M59.9607 880.822C37.503 772.968 61.2213 662.578 116.781 579.005C179.707 484.294 276.423 433.187 370.028 413.159C446.512 396.767 526.175 402.803 603.286 389.901C679.702 377.125 739.73 306.598 810.032 273.118C849.318 254.356 890.422 242.522 932.21 237.941C976.084 233.236 1020.8 234.972 1065.07 238.742C1071.51 239.291 1077.97 239.889 1084.41 240.574C1158.92 248.442 1233.12 263.389 1307.1 277.043C1328.58 281.006 1350.48 285.133 1371.78 285.355C1406.8 285.712 1442.37 273.947 1472.18 247.748" stroke="white" stroke-width="0.888889"/>
<path opacity="0.25" d="M69.0117 876.82C48.5469 771.936 72.152 664.864 126.058 584.289C186.864 493.387 279.087 443.505 369.447 423.13C442.723 406.574 519.358 411.906 593.133 397.23C668.923 382.149 722.632 301.439 791.153 263.823C830.724 242.107 873.246 229.533 915.708 225.339C961.099 220.845 1007.43 223.94 1053.19 229.196C1059.85 229.958 1066.54 230.787 1073.21 231.703C1150.45 242.233 1227.2 260.255 1303.59 278.181C1325.8 283.397 1348.47 289.222 1370.77 290.118C1407.29 291.594 1443.69 280.379 1474.64 253.389" stroke="white" stroke-width="0.888889"/>
<path opacity="0.25" d="M78.087 872.973C59.5471 771.039 83.0239 667.65 135.262 589.698C193.772 502.345 282.071 453.736 368.844 433.091C438.95 416.399 512.611 420.98 583.041 404.664C658.394 387.201 705.528 296.02 772.192 254.884C811.929 230.353 855.614 217.026 899.012 212.986C946.078 208.599 993.998 212.986 1041.34 219.736C1048.22 220.7 1055.14 221.761 1062.02 222.889C1142.04 236.032 1221.3 257.121 1300.13 279.261C1323.22 285.74 1346.75 292.76 1369.85 294.814C1407.41 298.189 1444.81 286.502 1477.14 259.02" stroke="white" stroke-width="0.888889"/>
<path opacity="0.25" d="M87.1974 869.279C70.5145 770.326 93.8253 670.591 144.319 595.185C200.535 511.293 284.953 463.919 368.186 443.023C435.167 426.206 505.522 429.706 572.993 412.166C648.209 392.64 688.777 290.735 753.115 246.311C792.784 218.887 837.835 204.848 882.2 200.913C930.905 196.661 980.44 202.36 1029.35 210.44C1036.47 211.626 1043.62 212.88 1050.72 214.23C1133.57 229.986 1215.39 254.054 1296.62 280.35C1320.52 288.064 1344.85 296.482 1368.85 299.5C1407.8 304.615 1446.94 292.301 1479.57 264.661" stroke="white" stroke-width="0.888889"/>
<path opacity="0.25" d="M96.3291 865.721C81.4429 769.815 104.55 673.657 153.36 600.836C207.297 520.367 287.888 474.15 367.603 453.013C431.489 436.07 498.952 438.78 563.117 419.89C638.137 397.808 671.533 286.03 734.014 238.163C773.615 207.837 820.003 193.026 865.228 189.226C915.601 184.964 966.842 191.907 1017.29 201.415C1024.65 202.803 1032.03 204.259 1039.36 205.822C1125.05 224.075 1209.48 251.142 1293.1 281.555C1317.71 290.514 1342.74 300.542 1367.83 304.303C1408.11 310.3 1447.37 299.26 1481.96 270.302" stroke="white" stroke-width="0.888889"/>
<path opacity="0.25" d="M105.504 862.288C92.3393 769.448 115.174 676.849 162.294 606.544C213.996 529.421 290.767 484.351 367.01 462.973C427.846 445.915 492.433 447.796 553.345 427.662C628.259 402.909 654.182 281.652 714.836 230.391C754.203 197.123 802.025 181.512 848.208 177.751C900.295 173.46 953.227 181.608 1005.22 192.418C1012.83 193.999 1020.43 195.667 1028 197.432C1116.61 218.154 1203.67 248.182 1289.65 282.654C1315.12 292.866 1340.98 304.061 1366.85 308.969C1407.9 316.761 1448.61 305.652 1484.41 275.953" stroke="white" stroke-width="0.888889"/>
<path opacity="0.25" d="M114.689 859.058C103.193 769.275 125.68 679.27 171.124 612.407C220.946 539.122 292.486 495.479 366.397 472.934C424.522 455.211 486.634 457.362 543.65 435.55C618.134 407.055 636.183 278.258 695.562 222.976C734.552 186.69 783.959 170.394 831.025 166.576C884.803 162.207 939.479 171.455 993.098 183.585C1000.93 185.369 1008.78 187.298 1016.59 189.226C1108.07 212.282 1197.86 245.318 1286.17 283.792C1312.41 295.238 1339.07 307.784 1365.84 313.685C1407.99 322.952 1449.81 312.046 1486.81 281.613" stroke="white" stroke-width="0.888889"/>
<path opacity="0.25" d="M123.938 855.943C114.034 769.226 136.197 682.808 179.905 618.347C227.462 548.215 295.356 505.71 365.824 482.905C420.983 465.056 480.317 466.32 534.102 443.543C569.748 428.443 591.609 380.085 609.59 340.318C628.794 297.774 645.673 247.478 676.284 216.023C714.7 176.556 766.115 159.642 813.785 155.785C869.352 151.292 925.719 161.571 980.961 174.984C989.046 176.913 997.138 178.995 1005.18 181.155C1099.54 206.525 1192.09 242.512 1282.68 284.95C1309.64 297.562 1336.95 311.689 1364.83 318.362C1408.36 328.747 1451.14 318.362 1489.2 287.283" stroke="white" stroke-width="0.888889"/>
<path opacity="0.25" d="M133.155 852.974C124.776 769.342 146.561 686.492 188.533 624.393C233.826 557.347 298.436 515.266 365.175 492.866C417.111 475.442 473.742 475.017 524.575 451.643C560.176 435.251 579.878 382.013 595.534 341.196C612.617 296.666 626.937 242.994 656.8 209.418C694.627 166.894 747.824 149.228 796.31 145.265C853.628 140.579 911.889 151.822 968.649 166.479C976.952 168.63 985.324 170.867 993.605 173.229C1090.86 200.566 1186.27 239.764 1279.22 286.107C1307.02 299.973 1335.18 315.266 1363.77 323.058C1408.05 335.111 1452.28 324.726 1491.55 292.963" stroke="white" stroke-width="0.888889"/>
<path opacity="0.25" d="M142.415 850.158C135.5 769.641 156.893 690.292 197.098 630.536C240.126 566.527 301.226 525.43 364.606 502.827C413.673 485.297 467.549 483.918 515.227 459.84C550.707 441.934 568.069 384.251 581.657 342.199C596.626 295.914 608.334 238.848 637.39 203.161C674.492 157.608 729.485 139.114 778.786 135.006C837.909 130.078 897.959 142.296 956.349 158.148C964.917 160.472 973.53 162.893 982.015 165.4C1082.29 194.955 1180.47 237.035 1275.75 287.284C1304.15 302.259 1332.94 319.336 1362.77 327.783C1408.74 340.714 1453.46 330.927 1493.93 298.643" stroke="white" stroke-width="0.888889"/>
<path opacity="0.25" d="M151.7 847.487C146.189 770.114 167.145 694.235 205.576 636.774C246.4 575.726 303.997 535.689 363.987 512.798C410.193 495.171 461.367 492.76 505.95 468.142C541.384 448.616 556.18 386.594 567.805 343.51C580.751 295.441 589.621 235.299 617.891 197.413C654.125 148.794 711.066 129.461 761.145 125.17C822.094 119.953 883.956 133.086 943.999 150.048C952.816 152.536 961.686 155.13 970.42 157.762C1073.7 189.41 1174.73 234.374 1272.29 288.46C1301.45 304.621 1330.99 323.077 1361.74 332.43C1408.79 346.75 1454.59 337.31 1496.28 304.332" stroke="white" stroke-width="0.888889"/>
<path opacity="0.25" d="M161.007 844.932C156.832 770.683 177.305 698.285 213.954 643.09C252.574 584.925 306.352 546.808 363.421 522.73C407.06 504.312 455.055 502.374 496.815 476.522C532.295 454.585 544.267 388.889 553.96 344.899C564.891 295.248 570.884 232.03 598.294 191.926C633.63 140.241 692.541 120.05 743.359 115.537C806.105 109.954 869.824 123.965 931.558 141.996C940.617 144.648 949.751 147.406 958.779 150.26C1065.1 183.933 1168.93 231.751 1268.83 289.655C1298.94 307.099 1329.3 326.404 1360.69 337.107C1408.25 353.336 1455.71 343.713 1498.61 310.031" stroke="white" stroke-width="0.888889"/>
<path opacity="0.25" d="M170.34 842.588C168.543 770.904 186.879 703.309 222.246 649.56C258.669 594.202 309.17 556.846 362.842 532.729C403.56 514.408 448.974 511.245 487.79 485.056C523.05 461.267 532.373 391.068 540.194 346.538C549.146 295.537 552.234 228.771 578.692 186.912C613.1 132.441 673.49 111.12 725.509 106.299C790.104 100.301 855.681 115.122 919.106 134.195C928.436 137.001 937.819 139.923 947.097 142.941C1056.49 178.542 1163.15 229.176 1265.38 290.861C1296.06 309.365 1327.05 330.502 1359.65 341.784C1408.97 358.861 1456.81 350.096 1500.93 315.749" stroke="white" stroke-width="0.888889"/>
<path opacity="0.25" d="M179.684 840.361C179.08 771.849 196.888 707.638 230.442 656.088C264.699 603.468 311.871 567.076 362.259 542.69C400.222 524.321 443.258 520.107 478.858 493.657C513.824 467.67 520.331 393.941 526.461 348.322C533.451 296.309 533.428 226.158 559.049 182.264C592.656 124.688 654.821 102.452 707.542 97.3216C773.971 90.8513 841.442 106.444 906.596 126.5C916.183 129.461 925.83 132.537 935.364 135.719C1047.84 173.219 1157.37 226.621 1261.93 292.066C1293.37 311.747 1325.07 334.185 1358.56 346.451C1408.99 364.907 1457.88 356.402 1503.23 321.447" stroke="white" stroke-width="0.888889"/>
<path opacity="0.25" d="M189.046 838.278C189.574 773.094 206.854 712.036 238.551 662.713C270.618 612.812 314.59 577.288 361.687 552.651C396.955 534.214 437.364 528.814 470.043 502.345C504.662 474.314 508.315 396.545 512.776 350.26C516.007 316.703 518.061 282.935 522.122 249.523C525.051 225.416 528.38 198.503 539.356 177.974C571.816 117.34 635.98 94.0819 689.471 88.6434C757.765 81.6428 827.146 97.9486 894.044 118.96C903.895 122.046 913.807 125.276 923.605 128.603C1039.21 168.013 1151.61 224.114 1258.52 293.291C1290.9 314.245 1323.44 337.522 1357.56 351.147C1408.31 371.397 1458.98 362.815 1505.52 327.195" stroke="white" stroke-width="0.888889"/>
<path opacity="0.25" d="M198.423 836.35C200.024 774.279 216.661 716.683 246.562 669.434C276.463 622.185 317.189 587.529 361.115 562.622C393.726 544.108 431.523 537.473 461.341 511.139C495.59 480.89 496.246 399.553 499.13 352.43C501.221 318.256 502.15 283.966 504.844 249.841C506.852 224.683 508.951 196.053 519.633 174.126C550.666 110.484 617.125 86.2228 671.303 80.3408C741.454 72.723 812.79 89.7135 881.424 111.622C891.539 114.852 901.723 118.227 911.778 121.708C1030.55 162.796 1145.84 221.645 1255.06 294.515C1288.06 316.51 1321.18 341.485 1356.46 355.785C1408.5 376.893 1460.39 369.545 1507.81 332.903" stroke="white" stroke-width="0.888889"/>
<path opacity="0.25" d="M207.819 834.556C210.416 775.61 226.366 721.504 254.478 676.184C282.408 631.277 319.828 597.759 360.546 572.534C390.545 553.952 425.692 546.055 452.74 519.971C486.498 487.418 484.173 402.514 485.509 354.695C486.498 319.297 486.204 283.831 487.774 248.461C488.914 222.725 489.842 193.498 499.852 170.587C529.066 104.052 598.175 78.547 653.017 72.231C725.048 63.9962 798.173 81.6809 868.739 104.332C879.149 107.678 889.566 111.178 899.901 114.823C1022.03 158.022 1140.08 219.205 1251.62 295.759C1285.5 319.008 1319.48 344.879 1355.39 360.442C1407.92 383.209 1461.45 375.871 1510.07 338.63" stroke="white" stroke-width="0.888889"/>
<path opacity="0.25" d="M217.225 832.917C220.758 777.288 236.097 726.23 262.299 683.127C288.101 640.699 322.523 608.001 359.973 582.553C387.3 563.981 419.948 554.927 444.255 528.988C459.693 512.518 464.373 482.905 467.392 458.895C471.612 425.367 472.043 391.097 471.922 357.222C471.786 321.891 470.487 286.57 470.661 251.249C470.797 223.989 470.253 192.322 480.097 167.531C507.68 98.103 579.19 71.3444 634.689 64.6235C708.599 55.675 783.717 73.919 856.073 97.4087C866.747 100.88 877.443 104.506 888.042 108.295C1013.35 153.038 1134.32 216.834 1248.2 297.042C1282.68 321.332 1317.25 348.852 1354.31 365.1C1408.4 388.831 1462.47 382.226 1512.32 344.368" stroke="white" stroke-width="0.888889"/>
<path opacity="0.25" d="M226.646 831.432C230.964 779.158 245.684 731.089 270.021 690.108C293.785 650.081 325.211 618.183 359.414 592.514C384.212 573.913 414.189 563.46 435.884 538.052C450.332 521.129 454.076 492.22 456.485 468.624C460.153 432.647 459.504 396.015 458.334 359.854C457.088 322.132 454.461 284.497 453.578 246.765C452.952 220.237 451.48 189.448 460.281 164.801C486.136 92.4232 560.107 64.4303 616.232 57.2272C692.015 47.4784 769.262 66.1756 843.338 90.5042C854.269 94.0913 865.23 97.8616 876.13 101.757C1004.52 147.763 1128.56 214.423 1244.78 298.266C1280.01 323.685 1315.27 352.507 1353.22 369.748C1408.37 394.819 1463.43 388.58 1514.56 350.115" stroke="white" stroke-width="0.888889"/>
<path opacity="0.25" d="M236.074 830.082C241.177 781.203 255.233 736.075 277.653 697.176C299.401 659.425 327.844 628.549 358.855 602.484C381.433 583.507 408.269 571.628 427.625 547.193C442.156 528.872 444.708 496.453 446.27 471.633C448.535 435.415 446.965 398.83 444.76 362.67C442.496 325.063 438.85 287.621 436.668 250.014C435.053 222.175 432.01 188.927 440.442 162.497C464.448 87.2834 540.894 57.902 597.684 50.1878C675.361 39.629 754.639 58.7313 830.512 83.7831C841.722 87.4859 853 91.3719 864.134 95.3543C995.823 142.874 1122.82 212.089 1241.36 299.539C1277.48 326.153 1313.56 355.92 1352.13 374.366C1407.73 401 1464.45 394.944 1516.77 355.852" stroke="white" stroke-width="0.888889"/>
<path opacity="0.25" d="M245.515 828.886C251.335 783.305 264.659 741.215 285.177 704.322C304.962 668.75 330.507 638.693 358.294 612.455C378.404 593.459 402.53 580.21 419.44 556.431C432.937 537.493 434.59 506.154 435.602 481.536C437.195 442.907 434.5 403.989 431.133 365.631C427.63 325.748 422.663 286.088 419.281 246.186C416.956 218.801 413.106 186.951 420.557 160.568C442.622 82.4624 521.643 51.731 579.029 43.4479C658.578 31.9634 739.932 51.4899 817.647 77.1974C829.136 81.0063 840.686 84.9984 852.107 89.1351C987.064 138.053 1117.05 209.775 1237.94 300.812C1274.66 328.468 1311.32 359.855 1351.03 379.034C1408.26 406.66 1465.41 401.366 1518.95 361.638" stroke="white" stroke-width="0.888889"/>
<path opacity="0.25" d="M254.97 827.835C261.432 785.571 274.009 746.47 292.616 711.554C310.454 678.094 333.259 648.143 357.74 622.417C375.525 603.739 396.699 588.079 411.45 565.746C424.909 545.381 425.12 510.677 425.279 484.69C425.513 445.897 421.897 407.095 417.564 368.765C413.035 329.056 407.177 289.627 402.58 249.937C399.258 221.299 393.755 187.26 400.745 159.016C420.742 78.2006 502.382 45.8782 560.365 37.0358C641.816 24.616 725.223 44.4414 804.81 70.7853C816.579 74.6424 828.415 78.7984 840.116 83.0508C978.312 133.299 1111.32 207.5 1234.54 302.105C1271.99 330.859 1309.34 363.529 1349.93 383.663C1408.16 412.591 1466.36 407.702 1521.19 367.405" stroke="white" stroke-width="0.888889"/>
<path opacity="0.25" d="M264.428 826.929C271.25 788.538 283.273 751.965 299.953 718.863C315.896 687.341 335.893 658.682 357.188 632.387C372.542 613.439 391.014 597.49 403.538 575.138C415.706 553.413 415.208 520.387 414.861 494.737C414.265 453.572 409.486 412.542 403.923 372.053C398.17 330.155 390.871 288.633 384.998 246.765C381.072 218.801 374.928 185.813 380.899 157.849C398.729 74.3527 483.042 40.391 541.598 30.9412C624.959 17.5089 710.442 37.6043 791.909 64.5942C803.987 68.5863 816.065 72.7906 828.067 77.1298C969.577 128.583 1105.6 205.224 1231.17 303.377C1269.52 333.356 1307.67 366.874 1348.85 388.281C1407.64 418.829 1467.22 413.777 1523.41 373.161" stroke="white" stroke-width="0.888889"/>
<path opacity="0.25" d="M273.895 826.177C281.241 791.024 292.451 757.38 307.193 726.249C321.302 696.579 338.558 668.393 356.645 642.358C369.81 623.41 385.172 605.628 395.733 584.617C407.109 561.985 405.463 527.947 404.384 501.448C402.655 459.088 396.835 417.017 390.169 375.524C383.481 333.848 375.351 292.597 368.338 251.027C363.379 221.626 355.671 186.941 361.001 157.078C376.332 71.1227 463.664 35.2518 522.711 25.1751C607.945 10.6532 695.579 30.9608 778.925 58.5101C791.267 62.5889 803.678 66.8895 815.914 71.3445C961.016 124.254 1099.62 202.798 1227.71 304.698C1266.68 335.671 1305.33 370.838 1347.7 392.92C1408.09 424.413 1468.11 420.151 1525.55 378.967" stroke="white" stroke-width="0.888889"/>
<path opacity="0.25" d="M283.37 825.569C291.143 793.655 301.516 762.87 314.32 733.722C326.677 705.681 341.186 678.392 356.087 652.318C366.988 633.254 379.315 614.538 388.026 594.172C398.338 570.066 395.673 535.352 393.869 508.294C390.963 464.757 384.056 421.674 376.326 379.169C368.596 336.664 359.318 294.477 351.135 252.029C345.428 222.397 336.634 187.211 341.11 156.692C354.079 68.2101 444.212 30.4589 503.757 19.7651C590.893 4.08604 680.633 24.5865 765.912 52.6276C778.541 56.7836 791.246 61.171 803.792 65.7224C952.256 119.702 1093.88 200.629 1224.34 306.029C1264.03 338.071 1303.37 374.492 1346.57 397.548C1407.91 430.333 1469.03 426.476 1527.7 384.752" stroke="white" stroke-width="0.888889"/>
<path opacity="0.25" d="M292.84 825.115C300.961 796.413 310.492 768.393 321.375 741.224C332.034 714.61 343.84 688.285 355.556 662.25C364.222 642.964 373.469 623.679 380.467 603.767C389.578 577.789 385.841 543.017 383.275 515.179C379.153 470.523 371.242 426.466 362.395 382.987C353.548 339.508 343.229 296.569 333.883 253.273C327.406 223.245 317.623 187.982 321.246 156.653C331.769 65.6737 424.725 26.0035 484.761 14.5865C573.761 -2.32679 665.683 18.2797 752.887 46.8029C765.81 51.036 778.802 55.4813 791.635 60.1388C943.471 115.152 1088.13 198.45 1220.95 307.349C1261.54 340.617 1301.68 377.838 1345.44 402.166C1407.18 436.494 1469.99 432.811 1529.84 390.547" stroke="white" stroke-width="0.888889"/>
<path opacity="0.25" d="M302.323 824.797C325.384 754.087 353.541 685.161 373.01 613.516C380.558 585.658 375.939 550.992 372.579 522.324C367.212 476.589 358.237 431.558 348.31 387.124C338.383 342.69 327.03 299.057 316.605 254.951C309.403 224.596 298.654 189.139 301.409 157.077C309.456 63.6202 405.213 21.9347 465.716 9.8427C556.612 -8.33383 650.662 12.3016 739.836 41.2491C909.465 96.4361 1070.86 186.782 1217.6 308.69C1258.78 342.902 1299.47 381.714 1344.34 406.776C1407.55 442.097 1470.87 439.156 1532 396.352" stroke="white" stroke-width="0.888889"/>
</g>
<g opacity="0.25">
<path opacity="0.25" d="M15.2351 903C-18.5232 781.376 5.73117 651.325 69.1336 554.261C143.557 440.342 260.971 382.168 373.229 363.335C466.367 347.733 561.95 357.55 655.932 355.043C818.194 350.752 977.919 303.628 1139.55 287.331C1197.84 281.459 1256.56 280.225 1314.89 273.041C1364.42 266.947 1417.95 257.13 1459.68 219.775" stroke="white" stroke-width="0.888889"/>
<path opacity="0.25" d="M24.1036 898.275C-7.34472 779.4 17.0002 653.196 78.8249 558.977C150.946 449.05 264.118 392.38 372.587 373.316C462.312 357.55 554.792 366.788 645.204 361.745C725.878 357.28 805.239 333.299 884.607 314.38C921.853 305.508 959.438 297.447 996.986 291.546C1035.03 285.577 1073.49 281.353 1111.85 278.702C1117.43 278.316 1123.04 277.969 1128.63 277.679C1192.68 274.391 1257.36 276.715 1321.18 272.781C1339.35 271.653 1357.86 269.994 1375.64 266.436C1406.43 260.265 1435.66 247.681 1462.21 225.319" stroke="white" stroke-width="0.888889"/>
<path opacity="0.25" d="M33.0114 893.685C3.83531 777.693 28.2482 655.172 88.4348 563.808C158.269 457.795 267.258 402.6 371.953 383.276C458.296 367.347 547.734 376.025 634.591 368.629C713.679 361.879 789.001 326.201 866.112 303.522C904 292.355 942.476 283.175 981.005 277.737C1020.43 272.173 1060.43 269.512 1100.28 268.509C1106.06 268.364 1111.88 268.268 1117.68 268.229C1184.27 267.805 1251.29 273.349 1317.72 273.87C1336.72 274.015 1356.14 273.87 1374.75 271.209C1406.85 266.706 1437.14 254.035 1464.79 230.941" stroke="white" stroke-width="0.888889"/>
<path opacity="0.25" d="M41.964 889.288C15.3394 775.697 39.1407 657.795 97.9685 568.793C165.5 466.58 270.345 412.851 371.318 393.295C454.355 377.211 540.177 384.675 624.075 375.659C702.175 367.202 772.93 319.403 847.512 293.011C885.95 279.424 925.332 269.261 964.873 264.189C1005.72 258.963 1047.29 257.815 1088.58 258.403C1094.58 258.5 1100.62 258.644 1106.62 258.847C1175.8 261.248 1245.14 269.926 1314.13 274.892C1333.91 276.319 1354.14 277.785 1373.72 275.905C1406.58 272.829 1439.6 261.306 1467.24 236.543" stroke="white" stroke-width="0.888889"/>
<path opacity="0.25" d="M50.9482 884.959C26.4221 774.135 50.1933 660.158 107.421 573.817C172.65 475.461 273.404 423.015 370.693 403.199C450.423 386.961 533.151 393.71 613.658 382.689C690.777 372.14 756.429 312.847 828.799 282.887C867.706 266.793 908.062 255.656 948.599 250.94C990.94 246.023 1034.07 246.321 1076.85 248.539C1083.07 248.858 1089.32 249.234 1095.54 249.687C1167.38 254.797 1239.14 266.668 1310.61 276.011C1331.27 278.702 1352.35 281.421 1372.75 280.679C1407.25 279.598 1440.83 266.258 1469.73 242.156" stroke="white" stroke-width="0.888889"/>
<path opacity="0.25" d="M59.9607 880.822C37.503 772.968 61.2213 662.578 116.781 579.005C179.707 484.294 276.423 433.187 370.028 413.159C446.512 396.767 526.175 402.803 603.286 389.901C679.702 377.125 739.73 306.598 810.032 273.118C849.318 254.356 890.422 242.522 932.21 237.941C976.084 233.236 1020.8 234.972 1065.07 238.742C1071.51 239.291 1077.97 239.889 1084.41 240.574C1158.92 248.442 1233.12 263.389 1307.1 277.043C1328.58 281.006 1350.48 285.133 1371.78 285.355C1406.8 285.712 1442.37 273.947 1472.18 247.748" stroke="white" stroke-width="0.888889"/>
<path opacity="0.25" d="M69.0117 876.82C48.5469 771.936 72.152 664.864 126.058 584.289C186.864 493.387 279.087 443.505 369.447 423.13C442.723 406.574 519.358 411.906 593.133 397.23C668.923 382.149 722.632 301.439 791.153 263.823C830.724 242.107 873.246 229.533 915.708 225.339C961.099 220.845 1007.43 223.94 1053.19 229.196C1059.85 229.958 1066.54 230.787 1073.21 231.703C1150.45 242.233 1227.2 260.255 1303.59 278.181C1325.8 283.397 1348.47 289.222 1370.77 290.118C1407.29 291.594 1443.69 280.379 1474.64 253.389" stroke="white" stroke-width="0.888889"/>
<path opacity="0.25" d="M78.087 872.973C59.5471 771.039 83.0239 667.65 135.262 589.698C193.772 502.345 282.071 453.736 368.844 433.091C438.95 416.399 512.611 420.98 583.041 404.664C658.394 387.201 705.528 296.02 772.192 254.884C811.929 230.353 855.614 217.026 899.012 212.986C946.078 208.599 993.998 212.986 1041.34 219.736C1048.22 220.7 1055.14 221.761 1062.02 222.889C1142.04 236.032 1221.3 257.121 1300.13 279.261C1323.22 285.74 1346.75 292.76 1369.85 294.814C1407.41 298.189 1444.81 286.502 1477.14 259.02" stroke="white" stroke-width="0.888889"/>
<path opacity="0.25" d="M87.1974 869.279C70.5145 770.326 93.8253 670.591 144.319 595.185C200.535 511.293 284.953 463.919 368.186 443.023C435.167 426.206 505.522 429.706 572.993 412.166C648.209 392.64 688.777 290.735 753.115 246.311C792.784 218.887 837.835 204.848 882.2 200.913C930.905 196.661 980.44 202.36 1029.35 210.44C1036.47 211.626 1043.62 212.88 1050.72 214.23C1133.57 229.986 1215.39 254.054 1296.62 280.35C1320.52 288.064 1344.85 296.482 1368.85 299.5C1407.8 304.615 1446.94 292.301 1479.57 264.661" stroke="white" stroke-width="0.888889"/>
<path opacity="0.25" d="M96.3291 865.721C81.4429 769.815 104.55 673.657 153.36 600.836C207.297 520.367 287.888 474.15 367.603 453.013C431.489 436.07 498.952 438.78 563.117 419.89C638.137 397.808 671.533 286.03 734.014 238.163C773.615 207.837 820.003 193.026 865.228 189.226C915.601 184.964 966.842 191.907 1017.29 201.415C1024.65 202.803 1032.03 204.259 1039.36 205.822C1125.05 224.075 1209.48 251.142 1293.1 281.555C1317.71 290.514 1342.74 300.542 1367.83 304.303C1408.11 310.3 1447.37 299.26 1481.96 270.302" stroke="white" stroke-width="0.888889"/>
<path opacity="0.25" d="M105.504 862.288C92.3393 769.448 115.174 676.849 162.294 606.544C213.996 529.421 290.767 484.351 367.01 462.973C427.846 445.915 492.433 447.796 553.345 427.662C628.259 402.909 654.182 281.652 714.836 230.391C754.203 197.123 802.025 181.512 848.208 177.751C900.295 173.46 953.227 181.608 1005.22 192.418C1012.83 193.999 1020.43 195.667 1028 197.432C1116.61 218.154 1203.67 248.182 1289.65 282.654C1315.12 292.866 1340.98 304.061 1366.85 308.969C1407.9 316.761 1448.61 305.652 1484.41 275.953" stroke="white" stroke-width="0.888889"/>
<path opacity="0.25" d="M114.689 859.058C103.193 769.275 125.68 679.27 171.124 612.407C220.946 539.122 292.486 495.479 366.397 472.934C424.522 455.211 486.634 457.362 543.65 435.55C618.134 407.055 636.183 278.258 695.562 222.976C734.552 186.69 783.959 170.394 831.025 166.576C884.803 162.207 939.479 171.455 993.098 183.585C1000.93 185.369 1008.78 187.298 1016.59 189.226C1108.07 212.282 1197.86 245.318 1286.17 283.792C1312.41 295.238 1339.07 307.784 1365.84 313.685C1407.99 322.952 1449.81 312.046 1486.81 281.613" stroke="white" stroke-width="0.888889"/>
<path opacity="0.25" d="M123.938 855.943C114.034 769.226 136.197 682.808 179.905 618.347C227.462 548.215 295.356 505.71 365.824 482.905C420.983 465.056 480.317 466.32 534.102 443.543C569.748 428.443 591.609 380.085 609.59 340.318C628.794 297.774 645.673 247.478 676.284 216.023C714.7 176.556 766.115 159.642 813.785 155.785C869.352 151.292 925.719 161.571 980.961 174.984C989.046 176.913 997.138 178.995 1005.18 181.155C1099.54 206.525 1192.09 242.512 1282.68 284.95C1309.64 297.562 1336.95 311.689 1364.83 318.362C1408.36 328.747 1451.14 318.362 1489.2 287.283" stroke="white" stroke-width="0.888889"/>
<path opacity="0.25" d="M133.155 852.974C124.776 769.342 146.561 686.492 188.533 624.393C233.826 557.347 298.436 515.266 365.175 492.866C417.111 475.442 473.742 475.017 524.575 451.643C560.176 435.251 579.878 382.013 595.534 341.196C612.617 296.666 626.937 242.994 656.8 209.418C694.627 166.894 747.824 149.228 796.31 145.265C853.628 140.579 911.889 151.822 968.649 166.479C976.952 168.63 985.324 170.867 993.605 173.229C1090.86 200.566 1186.27 239.764 1279.22 286.107C1307.02 299.973 1335.18 315.266 1363.77 323.058C1408.05 335.111 1452.28 324.726 1491.55 292.963" stroke="white" stroke-width="0.888889"/>
<path opacity="0.25" d="M142.415 850.158C135.5 769.641 156.893 690.292 197.098 630.536C240.126 566.527 301.226 525.43 364.606 502.827C413.673 485.297 467.549 483.918 515.227 459.84C550.707 441.934 568.069 384.251 581.657 342.199C596.626 295.914 608.334 238.848 637.39 203.161C674.492 157.608 729.485 139.114 778.786 135.006C837.909 130.078 897.959 142.296 956.349 158.148C964.917 160.472 973.53 162.893 982.015 165.4C1082.29 194.955 1180.47 237.035 1275.75 287.284C1304.15 302.259 1332.94 319.336 1362.77 327.783C1408.74 340.714 1453.46 330.927 1493.93 298.643" stroke="white" stroke-width="0.888889"/>
<path opacity="0.25" d="M151.7 847.487C146.189 770.114 167.145 694.235 205.576 636.774C246.4 575.726 303.997 535.689 363.987 512.798C410.193 495.171 461.367 492.76 505.95 468.142C541.384 448.616 556.18 386.594 567.805 343.51C580.751 295.441 589.621 235.299 617.891 197.413C654.125 148.794 711.066 129.461 761.145 125.17C822.094 119.953 883.956 133.086 943.999 150.048C952.816 152.536 961.686 155.13 970.42 157.762C1073.7 189.41 1174.73 234.374 1272.29 288.46C1301.45 304.621 1330.99 323.077 1361.74 332.43C1408.79 346.75 1454.59 337.31 1496.28 304.332" stroke="white" stroke-width="0.888889"/>
<path opacity="0.25" d="M161.007 844.932C156.832 770.683 177.305 698.285 213.954 643.09C252.574 584.925 306.352 546.808 363.421 522.73C407.06 504.312 455.055 502.374 496.815 476.522C532.295 454.585 544.267 388.889 553.96 344.899C564.891 295.248 570.884 232.03 598.294 191.926C633.63 140.241 692.541 120.05 743.359 115.537C806.105 109.954 869.824 123.965 931.558 141.996C940.617 144.648 949.751 147.406 958.779 150.26C1065.1 183.933 1168.93 231.751 1268.83 289.655C1298.94 307.099 1329.3 326.404 1360.69 337.107C1408.25 353.336 1455.71 343.713 1498.61 310.031" stroke="white" stroke-width="0.888889"/>
<path opacity="0.25" d="M170.34 842.588C168.543 770.904 186.879 703.309 222.246 649.56C258.669 594.202 309.17 556.846 362.842 532.729C403.56 514.408 448.974 511.245 487.79 485.056C523.05 461.267 532.373 391.068 540.194 346.538C549.146 295.537 552.234 228.771 578.692 186.912C613.1 132.441 673.49 111.12 725.509 106.299C790.104 100.301 855.681 115.122 919.106 134.195C928.436 137.001 937.819 139.923 947.097 142.941C1056.49 178.542 1163.15 229.176 1265.38 290.861C1296.06 309.365 1327.05 330.502 1359.65 341.784C1408.97 358.861 1456.81 350.096 1500.93 315.749" stroke="white" stroke-width="0.888889"/>
<path opacity="0.25" d="M179.684 840.361C179.08 771.849 196.888 707.638 230.442 656.088C264.699 603.468 311.871 567.076 362.259 542.69C400.222 524.321 443.258 520.107 478.858 493.657C513.824 467.67 520.331 393.941 526.461 348.322C533.451 296.309 533.428 226.158 559.049 182.264C592.656 124.688 654.821 102.452 707.542 97.3216C773.971 90.8513 841.442 106.444 906.596 126.5C916.183 129.461 925.83 132.537 935.364 135.719C1047.84 173.219 1157.37 226.621 1261.93 292.066C1293.37 311.747 1325.07 334.185 1358.56 346.451C1408.99 364.907 1457.88 356.402 1503.23 321.447" stroke="white" stroke-width="0.888889"/>
<path opacity="0.25" d="M189.046 838.278C189.574 773.094 206.854 712.036 238.551 662.713C270.618 612.812 314.59 577.288 361.687 552.651C396.955 534.214 437.364 528.814 470.043 502.345C504.662 474.314 508.315 396.545 512.776 350.26C516.007 316.703 518.061 282.935 522.122 249.523C525.051 225.416 528.38 198.503 539.356 177.974C571.816 117.34 635.98 94.0819 689.471 88.6434C757.765 81.6428 827.146 97.9486 894.044 118.96C903.895 122.046 913.807 125.276 923.605 128.603C1039.21 168.013 1151.61 224.114 1258.52 293.291C1290.9 314.245 1323.44 337.522 1357.56 351.147C1408.31 371.397 1458.98 362.815 1505.52 327.195" stroke="white" stroke-width="0.888889"/>
<path opacity="0.25" d="M198.423 836.35C200.024 774.279 216.661 716.683 246.562 669.434C276.463 622.185 317.189 587.529 361.115 562.622C393.726 544.108 431.523 537.473 461.341 511.139C495.59 480.89 496.246 399.553 499.13 352.43C501.221 318.256 502.15 283.966 504.844 249.841C506.852 224.683 508.951 196.053 519.633 174.126C550.666 110.484 617.125 86.2228 671.303 80.3408C741.454 72.723 812.79 89.7135 881.424 111.622C891.539 114.852 901.723 118.227 911.778 121.708C1030.55 162.796 1145.84 221.645 1255.06 294.515C1288.06 316.51 1321.18 341.485 1356.46 355.785C1408.5 376.893 1460.39 369.545 1507.81 332.903" stroke="white" stroke-width="0.888889"/>
<path opacity="0.25" d="M207.819 834.556C210.416 775.61 226.366 721.504 254.478 676.184C282.408 631.277 319.828 597.759 360.546 572.534C390.545 553.952 425.692 546.055 452.74 519.971C486.498 487.418 484.173 402.514 485.509 354.695C486.498 319.297 486.204 283.831 487.774 248.461C488.914 222.725 489.842 193.498 499.852 170.587C529.066 104.052 598.175 78.547 653.017 72.231C725.048 63.9962 798.173 81.6809 868.739 104.332C879.149 107.678 889.566 111.178 899.901 114.823C1022.03 158.022 1140.08 219.205 1251.62 295.759C1285.5 319.008 1319.48 344.879 1355.39 360.442C1407.92 383.209 1461.45 375.871 1510.07 338.63" stroke="white" stroke-width="0.888889"/>
<path opacity="0.25" d="M217.225 832.917C220.758 777.288 236.097 726.23 262.299 683.127C288.101 640.699 322.523 608.001 359.973 582.553C387.3 563.981 419.948 554.927 444.255 528.988C459.693 512.518 464.373 482.905 467.392 458.895C471.612 425.367 472.043 391.097 471.922 357.222C471.786 321.891 470.487 286.57 470.661 251.249C470.797 223.989 470.253 192.322 480.097 167.531C507.68 98.103 579.19 71.3444 634.689 64.6235C708.599 55.675 783.717 73.919 856.073 97.4087C866.747 100.88 877.443 104.506 888.042 108.295C1013.35 153.038 1134.32 216.834 1248.2 297.042C1282.68 321.332 1317.25 348.852 1354.31 365.1C1408.4 388.831 1462.47 382.226 1512.32 344.368" stroke="white" stroke-width="0.888889"/>
<path opacity="0.25" d="M226.646 831.432C230.964 779.158 245.684 731.089 270.021 690.108C293.785 650.081 325.211 618.183 359.414 592.514C384.212 573.913 414.189 563.46 435.884 538.052C450.332 521.129 454.076 492.22 456.485 468.624C460.153 432.647 459.504 396.015 458.334 359.854C457.088 322.132 454.461 284.497 453.578 246.765C452.952 220.237 451.48 189.448 460.281 164.801C486.136 92.4232 560.107 64.4303 616.232 57.2272C692.015 47.4784 769.262 66.1756 843.338 90.5042C854.269 94.0913 865.23 97.8616 876.13 101.757C1004.52 147.763 1128.56 214.423 1244.78 298.266C1280.01 323.685 1315.27 352.507 1353.22 369.748C1408.37 394.819 1463.43 388.58 1514.56 350.115" stroke="white" stroke-width="0.888889"/>
<path opacity="0.25" d="M236.074 830.082C241.177 781.203 255.233 736.075 277.653 697.176C299.401 659.425 327.844 628.549 358.855 602.484C381.433 583.507 408.269 571.628 427.625 547.193C442.156 528.872 444.708 496.453 446.27 471.633C448.535 435.415 446.965 398.83 444.76 362.67C442.496 325.063 438.85 287.621 436.668 250.014C435.053 222.175 432.01 188.927 440.442 162.497C464.448 87.2834 540.894 57.902 597.684 50.1878C675.361 39.629 754.639 58.7313 830.512 83.7831C841.722 87.4859 853 91.3719 864.134 95.3543C995.823 142.874 1122.82 212.089 1241.36 299.539C1277.48 326.153 1313.56 355.92 1352.13 374.366C1407.73 401 1464.45 394.944 1516.77 355.852" stroke="white" stroke-width="0.888889"/>
<path opacity="0.25" d="M245.515 828.886C251.335 783.305 264.659 741.215 285.177 704.322C304.962 668.75 330.507 638.693 358.294 612.455C378.404 593.459 402.53 580.21 419.44 556.431C432.937 537.493 434.59 506.154 435.602 481.536C437.195 442.907 434.5 403.989 431.133 365.631C427.63 325.748 422.663 286.088 419.281 246.186C416.956 218.801 413.106 186.951 420.557 160.568C442.622 82.4624 521.643 51.731 579.029 43.4479C658.578 31.9634 739.932 51.4899 817.647 77.1974C829.136 81.0063 840.686 84.9984 852.107 89.1351C987.064 138.053 1117.05 209.775 1237.94 300.812C1274.66 328.468 1311.32 359.855 1351.03 379.034C1408.26 406.66 1465.41 401.366 1518.95 361.638" stroke="white" stroke-width="0.888889"/>
<path opacity="0.25" d="M254.97 827.835C261.432 785.571 274.009 746.47 292.616 711.554C310.454 678.094 333.259 648.143 357.74 622.417C375.525 603.739 396.699 588.079 411.45 565.746C424.909 545.381 425.12 510.677 425.279 484.69C425.513 445.897 421.897 407.095 417.564 368.765C413.035 329.056 407.177 289.627 402.58 249.937C399.258 221.299 393.755 187.26 400.745 159.016C420.742 78.2006 502.382 45.8782 560.365 37.0358C641.816 24.616 725.223 44.4414 804.81 70.7853C816.579 74.6424 828.415 78.7984 840.116 83.0508C978.312 133.299 1111.32 207.5 1234.54 302.105C1271.99 330.859 1309.34 363.529 1349.93 383.663C1408.16 412.591 1466.36 407.702 1521.19 367.405" stroke="white" stroke-width="0.888889"/>
<path opacity="0.25" d="M264.428 826.929C271.25 788.538 283.273 751.965 299.953 718.863C315.896 687.341 335.893 658.682 357.188 632.387C372.542 613.439 391.014 597.49 403.538 575.138C415.706 553.413 415.208 520.387 414.861 494.737C414.265 453.572 409.486 412.542 403.923 372.053C398.17 330.155 390.871 288.633 384.998 246.765C381.072 218.801 374.928 185.813 380.899 157.849C398.729 74.3527 483.042 40.391 541.598 30.9412C624.959 17.5089 710.442 37.6043 791.909 64.5942C803.987 68.5863 816.065 72.7906 828.067 77.1298C969.577 128.583 1105.6 205.224 1231.17 303.377C1269.52 333.356 1307.67 366.874 1348.85 388.281C1407.64 418.829 1467.22 413.777 1523.41 373.161" stroke="white" stroke-width="0.888889"/>
<path opacity="0.25" d="M273.895 826.177C281.241 791.024 292.451 757.38 307.193 726.249C321.302 696.579 338.558 668.393 356.645 642.358C369.81 623.41 385.172 605.628 395.733 584.617C407.109 561.985 405.463 527.947 404.384 501.448C402.655 459.088 396.835 417.017 390.169 375.524C383.481 333.848 375.351 292.597 368.338 251.027C363.379 221.626 355.671 186.941 361.001 157.078C376.332 71.1227 463.664 35.2518 522.711 25.1751C607.945 10.6532 695.579 30.9608 778.925 58.5101C791.267 62.5889 803.678 66.8895 815.914 71.3445C961.016 124.254 1099.62 202.798 1227.71 304.698C1266.68 335.671 1305.33 370.838 1347.7 392.92C1408.09 424.413 1468.11 420.151 1525.55 378.967" stroke="white" stroke-width="0.888889"/>
<path opacity="0.25" d="M283.37 825.569C291.143 793.655 301.516 762.87 314.32 733.722C326.677 705.681 341.186 678.392 356.087 652.318C366.988 633.254 379.315 614.538 388.026 594.172C398.338 570.066 395.673 535.352 393.869 508.294C390.963 464.757 384.056 421.674 376.326 379.169C368.596 336.664 359.318 294.477 351.135 252.029C345.428 222.397 336.634 187.211 341.11 156.692C354.079 68.2101 444.212 30.4589 503.757 19.7651C590.893 4.08604 680.633 24.5865 765.912 52.6276C778.541 56.7836 791.246 61.171 803.792 65.7224C952.256 119.702 1093.88 200.629 1224.34 306.029C1264.03 338.071 1303.37 374.492 1346.57 397.548C1407.91 430.333 1469.03 426.476 1527.7 384.752" stroke="white" stroke-width="0.888889"/>
<path opacity="0.25" d="M292.84 825.115C300.961 796.413 310.492 768.393 321.375 741.224C332.034 714.61 343.84 688.285 355.556 662.25C364.222 642.964 373.469 623.679 380.467 603.767C389.578 577.789 385.841 543.017 383.275 515.179C379.153 470.523 371.242 426.466 362.395 382.987C353.548 339.508 343.229 296.569 333.883 253.273C327.406 223.245 317.623 187.982 321.246 156.653C331.769 65.6737 424.725 26.0035 484.761 14.5865C573.761 -2.32679 665.683 18.2797 752.887 46.8029C765.81 51.036 778.802 55.4813 791.635 60.1388C943.471 115.152 1088.13 198.45 1220.95 307.349C1261.54 340.617 1301.68 377.838 1345.44 402.166C1407.18 436.494 1469.99 432.811 1529.84 390.547" stroke="white" stroke-width="0.888889"/>
<path opacity="0.25" d="M302.323 824.797C325.384 754.087 353.541 685.161 373.01 613.516C380.558 585.658 375.939 550.992 372.579 522.324C367.212 476.589 358.237 431.558 348.31 387.124C338.383 342.69 327.03 299.057 316.605 254.951C309.403 224.596 298.654 189.139 301.409 157.077C309.456 63.6202 405.213 21.9347 465.716 9.8427C556.612 -8.33383 650.662 12.3016 739.836 41.2491C909.465 96.4361 1070.86 186.782 1217.6 308.69C1258.78 342.902 1299.47 381.714 1344.34 406.776C1407.55 442.097 1470.87 439.156 1532 396.352" stroke="white" stroke-width="0.888889"/>
</g>
<g opacity="0.25">
<path opacity="0.25" d="M1516.76 3C1550.52 124.624 1526.27 254.675 1462.87 351.739C1388.44 465.658 1271.03 523.832 1158.77 542.665C1065.63 558.267 970.05 548.45 876.068 550.957C713.806 555.248 554.081 602.372 392.446 618.669C334.162 624.541 275.44 625.775 217.11 632.959C167.583 639.053 114.046 648.87 72.3242 686.225" stroke="white" stroke-width="0.888889"/>
<path opacity="0.25" d="M1507.9 7.72461C1539.34 126.6 1515 252.804 1453.18 347.023C1381.05 456.95 1267.88 513.62 1159.41 532.684C1069.69 548.45 977.208 539.212 886.796 544.255C806.122 548.72 726.761 572.701 647.393 591.62C610.147 600.492 572.562 608.553 535.014 614.454C496.968 620.423 458.507 624.647 420.152 627.298C414.573 627.684 408.964 628.031 403.371 628.321C339.319 631.609 274.641 629.285 210.816 633.219C192.653 634.347 174.136 636.006 156.359 639.564C125.567 645.735 96.3382 658.319 69.7891 680.681" stroke="white" stroke-width="0.888889"/>
<path opacity="0.25" d="M1498.99 12.3149C1528.16 128.307 1503.75 250.828 1443.57 342.192C1373.73 448.205 1264.74 503.4 1160.05 522.724C1073.7 538.653 984.266 529.975 897.409 537.371C818.321 544.121 742.999 579.799 665.888 602.478C628 613.645 589.524 622.825 550.995 628.263C511.575 633.827 471.566 636.488 431.724 637.491C425.941 637.636 420.121 637.732 414.324 637.771C347.728 638.195 280.71 632.651 214.28 632.13C195.28 631.985 175.864 632.13 157.249 634.791C125.152 639.294 94.8583 651.965 67.207 675.059" stroke="white" stroke-width="0.888889"/>
<path opacity="0.25" d="M1490.04 16.7119C1516.66 130.303 1492.86 248.205 1434.03 337.207C1366.5 439.42 1261.65 493.149 1160.68 512.705C1077.64 528.789 991.823 521.325 907.925 530.341C829.825 538.798 759.07 586.597 684.488 612.989C646.05 626.576 606.668 636.739 567.127 641.811C526.28 647.037 484.709 648.185 443.417 647.597C437.416 647.5 431.384 647.356 425.383 647.153C356.198 644.752 286.855 636.074 217.867 631.108C198.089 629.681 177.858 628.215 158.276 630.095C125.416 633.171 92.3979 644.694 64.7617 669.457" stroke="white" stroke-width="0.888889"/>
<path opacity="0.25" d="M1481.05 21.041C1505.58 131.865 1481.81 245.842 1424.58 332.183C1359.35 430.539 1258.6 482.985 1161.31 502.801C1081.58 519.039 998.849 512.29 918.342 523.311C841.223 533.86 775.571 593.153 703.201 623.113C664.294 639.207 623.938 650.344 583.401 655.06C541.06 659.977 497.926 659.679 455.147 657.461C448.934 657.142 442.684 656.766 436.464 656.313C364.622 651.203 292.863 639.332 221.391 629.989C200.73 627.298 179.646 624.579 159.249 625.321C124.748 626.402 91.1657 639.742 62.2695 663.844" stroke="white" stroke-width="0.888889"/>
<path opacity="0.25" d="M1472.04 25.1782C1494.5 133.032 1470.78 243.422 1415.22 326.995C1352.29 421.706 1255.58 472.813 1161.97 492.841C1085.49 509.233 1005.83 503.197 928.714 516.099C852.298 528.875 792.27 599.402 721.968 632.882C682.682 651.644 641.578 663.478 599.79 668.059C555.916 672.764 511.205 671.028 466.931 667.258C460.492 666.709 454.03 666.111 447.591 665.426C373.077 657.558 298.88 642.611 224.901 628.957C203.418 624.994 181.518 620.867 160.223 620.645C125.204 620.288 89.6269 632.053 59.8242 658.252" stroke="white" stroke-width="0.888889"/>
<path opacity="0.25" d="M1462.99 29.1797C1483.45 134.064 1459.85 241.136 1405.94 321.711C1345.14 412.613 1252.91 462.495 1162.55 482.87C1089.28 499.426 1012.64 494.094 938.867 508.77C863.077 523.851 809.368 604.561 740.847 642.177C701.276 663.893 658.754 676.467 616.292 680.661C570.901 685.155 524.566 682.06 478.805 676.804C472.147 676.042 465.459 675.213 458.794 674.297C381.547 663.767 304.798 645.745 228.412 627.819C206.203 622.603 183.526 616.778 161.227 615.882C124.706 614.406 88.3058 625.621 57.3633 652.611" stroke="white" stroke-width="0.888889"/>
<path opacity="0.25" d="M1453.91 33.0273C1472.45 134.961 1448.98 238.35 1396.74 316.302C1338.23 403.655 1249.93 452.264 1163.16 472.909C1093.05 489.601 1019.39 485.02 948.959 501.336C873.606 518.799 826.472 609.98 759.808 651.116C720.071 675.647 676.386 688.974 632.988 693.014C585.922 697.401 538.002 693.014 490.663 686.264C483.779 685.3 476.864 684.239 469.979 683.111C389.962 669.968 310.7 648.879 231.868 626.739C208.776 620.26 185.246 613.24 162.147 611.186C124.592 607.811 87.1873 619.498 54.8633 646.98" stroke="white" stroke-width="0.888889"/>
<path opacity="0.25" d="M1444.8 36.7207C1461.49 135.674 1438.17 235.409 1387.68 310.815C1331.46 394.707 1247.05 442.081 1163.81 462.977C1096.83 479.794 1026.48 476.294 959.007 493.834C883.791 513.36 843.223 615.265 778.885 659.689C739.216 687.113 694.165 701.152 649.8 705.087C601.095 709.339 551.56 703.64 502.652 695.56C495.525 694.374 488.377 693.12 481.281 691.77C398.433 676.014 316.611 651.946 235.379 625.65C211.479 617.936 187.149 609.518 163.152 606.5C124.198 601.385 85.063 613.699 52.4258 641.339" stroke="white" stroke-width="0.888889"/>
<path opacity="0.25" d="M1435.67 40.2788C1450.56 136.185 1427.45 232.343 1378.64 305.164C1324.7 385.633 1244.11 431.85 1164.4 452.987C1100.51 469.93 1033.05 467.22 968.883 486.11C893.863 508.192 860.467 619.97 797.986 667.837C758.385 698.163 711.997 712.974 666.772 716.774C616.399 721.036 565.158 714.093 514.709 704.585C507.349 703.197 499.974 701.741 492.637 700.178C406.95 681.925 322.517 654.858 238.899 624.445C214.29 615.486 189.258 605.458 164.166 601.697C123.893 595.7 84.6313 606.74 50.0352 635.698" stroke="white" stroke-width="0.888889"/>
<path opacity="0.25" d="M1426.5 43.7119C1439.66 136.552 1416.83 229.151 1369.71 299.456C1318 376.579 1241.23 421.649 1164.99 443.027C1104.15 460.085 1039.57 458.204 978.655 478.338C903.741 503.091 877.818 624.348 817.164 675.609C777.797 708.877 729.975 724.488 683.792 728.249C631.705 732.54 578.773 724.392 526.776 713.582C519.175 712.001 511.566 710.333 504.002 708.568C415.394 687.846 328.333 657.818 242.353 623.346C216.883 613.134 191.021 601.939 165.151 597.031C124.101 589.239 83.3899 600.348 47.5859 630.047" stroke="white" stroke-width="0.888889"/>
<path opacity="0.25" d="M1417.31 46.9419C1428.81 136.725 1406.32 226.73 1360.88 293.593C1311.05 366.878 1239.51 410.521 1165.6 433.066C1107.48 450.789 1045.37 448.638 988.35 470.45C913.866 498.945 895.817 627.742 836.438 683.024C797.448 719.31 748.041 735.606 700.975 739.424C647.197 743.793 592.521 734.545 538.902 722.415C531.066 720.631 523.215 718.702 515.41 716.774C423.934 693.718 334.141 660.682 245.835 622.208C219.587 610.762 192.925 598.216 166.165 592.315C124.012 583.048 82.1917 593.954 45.1875 624.387" stroke="white" stroke-width="0.888889"/>
<path opacity="0.25" d="M1408.06 50.0566C1417.97 136.774 1395.8 223.192 1352.1 287.653C1304.54 357.785 1236.64 400.29 1166.18 423.095C1111.02 440.944 1051.68 439.68 997.898 462.457C962.252 477.557 940.391 525.915 922.41 565.682C903.206 608.226 886.327 658.522 855.716 689.977C817.3 729.444 765.885 746.358 718.215 750.215C662.648 754.708 606.281 744.429 551.039 731.016C542.954 729.087 534.862 727.005 526.822 724.845C432.462 699.475 339.907 663.488 249.321 621.05C222.364 608.438 195.045 594.311 167.175 587.638C123.641 577.253 80.8618 587.638 42.8008 618.717" stroke="white" stroke-width="0.888889"/>
<path opacity="0.25" d="M1398.85 53.0264C1407.22 136.658 1385.44 219.508 1343.47 281.607C1298.17 348.653 1233.56 390.734 1166.83 413.134C1114.89 430.558 1058.26 430.983 1007.42 454.357C971.824 470.749 952.122 523.987 936.466 564.804C919.383 609.334 905.063 663.006 875.2 696.582C837.373 739.106 784.176 756.772 735.69 760.735C678.372 765.421 620.111 754.178 563.351 739.521C555.048 737.37 546.676 735.133 538.395 732.771C441.144 705.434 345.734 666.236 252.778 619.893C224.976 606.027 196.819 590.734 168.232 582.942C123.95 570.889 79.722 581.274 40.4531 613.037" stroke="white" stroke-width="0.888889"/>
<path opacity="0.25" d="M1389.59 55.8418C1396.5 136.359 1375.11 215.708 1334.9 275.464C1291.87 339.473 1230.77 380.57 1167.39 403.173C1118.33 420.703 1064.45 422.082 1016.77 446.16C981.293 464.066 963.931 521.749 950.343 563.801C935.374 610.086 923.666 667.152 894.61 702.839C857.508 748.392 802.515 766.886 753.214 770.994C694.091 775.922 634.041 763.704 575.651 747.852C567.083 745.528 558.47 743.107 549.985 740.6C449.707 711.045 351.534 668.965 256.246 618.716C227.847 603.741 199.056 586.664 169.231 578.217C123.259 565.286 78.5394 575.073 38.0703 607.357" stroke="white" stroke-width="0.888889"/>
<path opacity="0.25" d="M1380.3 58.5132C1385.81 135.886 1364.86 211.765 1326.42 269.226C1285.6 330.274 1228 370.311 1168.01 393.202C1121.81 410.829 1070.63 413.24 1026.05 437.858C990.616 457.384 975.82 519.406 964.195 562.49C951.249 610.559 942.379 670.701 914.109 708.587C877.875 757.206 820.934 776.539 770.855 780.83C709.906 786.047 648.044 772.914 588.001 755.952C579.184 753.464 570.314 750.87 561.58 748.238C458.297 716.59 357.271 671.626 259.711 617.54C230.55 601.379 201.011 582.923 170.265 573.57C123.206 559.25 77.4147 568.69 35.7227 601.668" stroke="white" stroke-width="0.888889"/>
<path opacity="0.25" d="M1370.99 61.0684C1375.17 135.317 1354.7 207.715 1318.05 262.91C1279.43 321.075 1225.65 359.192 1168.58 383.27C1124.94 401.688 1076.94 403.626 1035.18 429.478C999.705 451.415 987.733 517.111 978.04 561.101C967.109 610.752 961.116 673.97 933.706 714.074C898.37 765.759 839.459 785.95 788.641 790.463C725.895 796.046 662.176 782.035 600.442 764.004C591.383 761.352 582.249 758.594 573.221 755.74C466.903 722.067 363.069 674.249 263.169 616.345C233.064 598.901 202.695 579.596 171.307 568.893C123.75 552.664 76.2905 562.287 33.3906 595.969" stroke="white" stroke-width="0.888889"/>
<path opacity="0.25" d="M1361.66 63.4116C1363.46 135.096 1345.12 202.691 1309.75 256.44C1273.33 311.798 1222.83 349.154 1169.16 373.271C1128.44 391.592 1083.03 394.755 1044.21 420.944C1008.95 444.733 999.627 514.932 991.806 559.462C982.854 610.463 979.766 677.229 953.308 719.088C918.9 773.559 858.51 794.88 806.491 799.701C741.896 805.699 676.319 790.878 612.894 771.805C603.564 768.999 594.181 766.077 584.903 763.059C475.514 727.458 368.849 676.824 266.616 615.139C235.937 596.635 204.949 575.498 172.354 564.216C123.03 547.139 75.1855 555.904 31.0703 590.251" stroke="white" stroke-width="0.888889"/>
<path opacity="0.25" d="M1352.32 65.6392C1352.92 134.151 1335.11 198.362 1301.56 249.912C1267.3 302.532 1220.13 338.924 1169.74 363.31C1131.78 381.679 1088.74 385.893 1053.14 412.343C1018.18 438.33 1011.67 512.059 1005.54 557.678C998.549 609.691 998.572 679.842 972.951 723.736C939.344 781.312 877.179 803.548 824.458 808.678C758.029 815.149 690.558 799.556 625.404 779.5C615.817 776.539 606.17 773.463 596.636 770.281C484.159 732.781 374.625 679.379 270.067 613.934C238.634 594.253 206.929 571.815 173.442 559.549C123.009 541.093 74.1152 549.598 28.7695 584.553" stroke="white" stroke-width="0.888889"/>
<path opacity="0.25" d="M1342.95 67.7217C1342.43 132.906 1325.15 193.964 1293.45 243.287C1261.38 293.188 1217.41 328.712 1170.31 353.349C1135.04 371.786 1094.64 377.186 1061.96 403.655C1027.34 431.686 1023.68 509.455 1019.22 555.74C1015.99 589.297 1013.94 623.065 1009.88 656.477C1006.95 680.584 1003.62 707.497 992.644 728.026C960.184 788.66 896.02 811.918 842.529 817.357C774.235 824.357 704.854 808.051 637.956 787.04C628.105 783.954 618.193 780.724 608.395 777.397C492.785 737.987 380.391 681.886 273.477 612.709C241.1 591.755 208.558 568.478 174.437 554.853C123.686 534.603 73.0188 543.185 26.4805 578.805" stroke="white" stroke-width="0.888889"/>
<path opacity="0.25" d="M1333.58 69.6504C1331.98 131.721 1315.34 189.317 1285.44 236.566C1255.54 283.815 1214.81 318.471 1170.88 343.378C1138.27 361.892 1100.48 368.527 1070.66 394.861C1036.41 425.11 1035.75 506.447 1032.87 553.57C1030.78 587.744 1029.85 622.034 1027.16 656.159C1025.15 681.317 1023.05 709.947 1012.37 731.874C981.334 795.516 914.875 819.777 860.697 825.659C790.546 833.277 719.21 816.287 650.576 794.378C640.461 791.148 630.277 787.773 620.222 784.292C501.449 743.204 386.156 684.355 276.94 611.485C243.945 589.49 210.82 564.515 175.537 550.215C123.503 529.107 71.613 536.455 24.1914 573.097" stroke="white" stroke-width="0.888889"/>
<path opacity="0.25" d="M1324.18 71.4443C1321.58 130.39 1305.63 184.496 1277.52 229.816C1249.59 274.723 1212.17 308.241 1171.45 333.466C1141.45 352.048 1106.31 359.945 1079.26 386.029C1045.5 418.582 1047.83 503.486 1046.49 551.305C1045.5 586.703 1045.8 622.169 1044.23 657.539C1043.09 683.275 1042.16 712.502 1032.15 735.413C1002.93 801.948 933.825 827.453 878.983 833.769C806.952 842.004 733.827 824.319 663.261 801.668C652.851 798.322 642.434 794.822 632.099 791.177C509.967 747.978 391.919 686.795 280.378 610.241C246.499 586.992 212.522 561.121 176.612 545.558C124.08 522.791 70.5515 530.129 21.9297 567.37" stroke="white" stroke-width="0.888889"/>
<path opacity="0.25" d="M1314.77 73.083C1311.24 128.712 1295.9 179.77 1269.7 222.873C1243.9 265.301 1209.48 297.999 1172.03 323.447C1144.7 342.019 1112.05 351.073 1087.74 377.012C1072.31 393.482 1067.63 423.095 1064.61 447.105C1060.39 480.633 1059.96 514.903 1060.08 548.778C1060.21 584.109 1061.51 619.43 1061.34 654.751C1061.2 682.011 1061.75 713.678 1051.9 738.469C1024.32 807.897 952.81 834.656 897.311 841.377C823.401 850.325 748.283 832.081 675.927 808.591C665.253 805.12 654.557 801.494 643.958 797.705C518.648 752.962 397.678 689.166 283.797 608.958C249.322 584.668 214.748 557.148 177.691 540.9C123.596 517.169 69.532 523.774 19.6797 561.632" stroke="white" stroke-width="0.888889"/>
<path opacity="0.25" d="M1305.35 74.5684C1301.04 126.842 1286.32 174.911 1261.98 215.892C1238.21 255.919 1206.79 287.817 1172.59 313.486C1147.79 332.087 1117.81 342.54 1096.12 367.948C1081.67 384.871 1077.92 413.78 1075.52 437.376C1071.85 473.353 1072.5 509.985 1073.67 546.146C1074.91 583.868 1077.54 621.503 1078.42 659.235C1079.05 685.763 1080.52 716.552 1071.72 741.199C1045.86 813.577 971.893 841.57 915.768 848.773C839.985 858.522 762.738 839.824 688.662 815.496C677.731 811.909 666.77 808.138 655.87 804.243C527.48 758.237 403.438 691.577 287.224 607.734C251.994 582.315 216.733 553.493 178.778 536.252C123.627 511.181 68.5655 517.42 17.4375 555.885" stroke="white" stroke-width="0.888889"/>
<path opacity="0.25" d="M1295.93 75.9185C1290.82 124.797 1276.77 169.925 1254.35 208.824C1232.6 246.575 1204.16 277.451 1173.15 303.516C1150.57 322.493 1123.73 334.372 1104.38 358.807C1089.84 377.128 1087.29 409.547 1085.73 434.367C1083.47 470.585 1085.04 507.17 1087.24 543.33C1089.5 580.937 1093.15 618.379 1095.33 655.986C1096.95 683.825 1099.99 717.073 1091.56 743.503C1067.55 818.717 991.106 848.098 934.316 855.812C856.639 866.371 777.361 847.269 701.488 822.217C690.278 818.514 679 814.628 667.866 810.646C536.177 763.126 409.184 693.911 290.645 606.461C254.524 579.847 218.44 550.08 179.874 531.634C124.269 505 67.5473 511.056 15.2266 550.148" stroke="white" stroke-width="0.888889"/>
<path opacity="0.25" d="M1286.48 77.1138C1280.66 122.695 1267.34 164.785 1246.82 201.678C1227.04 237.25 1201.49 267.307 1173.71 293.545C1153.6 312.541 1129.47 325.79 1112.56 349.569C1099.06 368.507 1097.41 399.846 1096.4 424.464C1094.81 463.093 1097.5 502.011 1100.87 540.369C1104.37 580.252 1109.34 619.912 1112.72 659.814C1115.04 687.199 1118.89 719.049 1111.44 745.432C1089.38 823.538 1010.36 854.269 952.971 862.552C873.422 874.037 792.068 854.51 714.353 828.803C702.864 824.994 691.314 821.002 679.893 816.865C544.936 767.947 414.945 696.225 294.059 605.188C257.341 577.532 220.684 546.145 180.97 526.966C123.743 499.34 66.5905 504.634 13.0469 544.362" stroke="white" stroke-width="0.888889"/>
<path opacity="0.25" d="M1277.03 78.1646C1270.57 120.429 1257.99 159.53 1239.38 194.446C1221.55 227.906 1198.74 257.857 1174.26 283.583C1156.48 302.261 1135.3 317.921 1120.55 340.254C1107.09 360.619 1106.88 395.323 1106.72 421.31C1106.49 460.103 1110.1 498.905 1114.44 537.235C1118.97 576.944 1124.82 616.373 1129.42 656.063C1132.74 684.701 1138.24 718.74 1131.25 746.984C1111.26 827.799 1029.62 860.122 971.635 868.964C890.184 881.384 806.777 861.559 727.19 835.215C715.421 831.358 703.585 827.202 691.884 822.949C553.688 772.701 420.678 698.5 297.459 603.895C260.01 575.141 222.658 542.471 182.068 522.337C123.844 493.409 65.6355 498.298 10.8086 538.595" stroke="white" stroke-width="0.888889"/>
<path opacity="0.25" d="M1267.57 79.0713C1260.75 117.462 1248.73 154.035 1232.05 187.137C1216.1 218.659 1196.11 247.318 1174.81 273.613C1159.46 292.561 1140.99 308.51 1128.46 330.862C1116.29 352.587 1116.79 385.613 1117.14 411.263C1117.74 452.428 1122.51 493.458 1128.08 533.947C1133.83 575.845 1141.13 617.367 1147 659.235C1150.93 687.199 1157.07 720.187 1151.1 748.151C1133.27 831.647 1048.96 865.609 990.402 875.059C907.041 888.491 821.558 868.396 740.091 841.406C728.013 837.414 715.935 833.209 703.933 828.87C562.423 777.417 426.401 700.776 300.827 602.623C262.479 572.644 224.335 539.126 183.148 517.719C124.358 487.171 64.7756 492.223 8.58984 532.839" stroke="white" stroke-width="0.888889"/>
<path opacity="0.25" d="M1258.1 79.8232C1250.76 114.976 1239.55 148.62 1224.81 179.751C1210.7 209.421 1193.44 237.607 1175.35 263.642C1162.19 282.59 1146.83 300.372 1136.27 321.383C1124.89 344.015 1126.54 378.053 1127.62 404.552C1129.35 446.912 1135.17 488.983 1141.83 530.476C1148.52 572.152 1156.65 613.403 1163.66 654.973C1168.62 684.374 1176.33 719.059 1171 748.922C1155.67 834.877 1068.34 870.748 1009.29 880.825C924.055 895.347 836.421 875.039 753.075 847.49C740.733 843.411 728.322 839.11 716.086 834.656C570.984 781.746 432.379 703.202 304.291 601.302C265.317 570.329 226.674 535.162 184.303 513.08C123.912 481.587 63.892 485.849 6.45312 527.033" stroke="white" stroke-width="0.888889"/>
<path opacity="0.25" d="M1248.63 80.4312C1240.86 112.345 1230.48 143.13 1217.68 172.278C1205.32 200.319 1190.81 227.608 1175.91 253.682C1165.01 272.746 1152.69 291.462 1143.97 311.828C1133.66 335.934 1136.33 370.648 1138.13 397.706C1141.04 441.243 1147.94 484.326 1155.67 526.831C1163.4 569.336 1172.68 611.523 1180.86 653.971C1186.57 683.603 1195.37 718.789 1190.89 749.308C1177.92 837.79 1087.79 875.541 1028.24 886.235C941.107 901.914 851.367 881.413 766.088 853.372C753.459 849.216 740.754 844.829 728.208 840.278C579.744 786.298 438.115 705.371 307.657 599.971C267.973 567.929 228.629 531.508 185.427 508.452C124.093 475.667 62.9701 479.524 4.30078 521.248" stroke="white" stroke-width="0.888889"/>
<path opacity="0.25" d="M1239.16 80.8848C1231.04 109.587 1221.51 137.607 1210.63 164.776C1199.97 191.39 1188.16 217.715 1176.44 243.75C1167.78 263.036 1158.53 282.321 1151.53 302.233C1142.42 328.211 1146.16 362.983 1148.73 390.821C1152.85 435.477 1160.76 479.534 1169.61 523.013C1178.45 566.492 1188.77 609.431 1198.12 652.727C1204.59 682.755 1214.38 718.018 1210.75 749.347C1200.23 840.326 1107.27 879.996 1047.24 891.413C958.239 908.327 866.317 887.72 779.113 859.197C766.19 854.964 753.198 850.519 740.365 845.861C588.529 790.848 443.87 707.55 311.05 598.651C270.46 565.383 230.315 528.162 186.562 503.834C124.821 469.506 62.0071 473.189 2.16016 515.453" stroke="white" stroke-width="0.888889"/>
<path opacity="0.25" d="M1229.68 81.2026C1206.62 151.913 1178.46 220.839 1158.99 292.484C1151.44 320.342 1156.06 355.008 1159.42 383.676C1164.79 429.411 1173.76 474.442 1183.69 518.876C1193.62 563.31 1204.97 606.943 1215.4 651.049C1222.6 681.404 1233.35 716.861 1230.59 748.923C1222.54 842.38 1126.79 884.065 1066.28 896.157C975.388 914.334 881.338 893.698 792.164 864.751C622.535 809.564 461.139 719.218 314.4 597.31C273.221 563.098 232.526 524.286 187.663 499.224C124.45 463.903 61.1302 466.844 0 509.648" stroke="white" stroke-width="0.888889"/>
</g>
<g opacity="0.25">
<path opacity="0.25" d="M1516.76 3C1550.52 124.624 1526.27 254.675 1462.87 351.739C1388.44 465.658 1271.03 523.832 1158.77 542.665C1065.63 558.267 970.05 548.45 876.068 550.957C713.806 555.248 554.081 602.372 392.446 618.669C334.162 624.541 275.44 625.775 217.11 632.959C167.583 639.053 114.046 648.87 72.3242 686.225" stroke="white" stroke-width="0.888889"/>
<path opacity="0.25" d="M1507.9 7.72461C1539.34 126.6 1515 252.804 1453.18 347.023C1381.05 456.95 1267.88 513.62 1159.41 532.684C1069.69 548.45 977.208 539.212 886.796 544.255C806.122 548.72 726.761 572.701 647.393 591.62C610.147 600.492 572.562 608.553 535.014 614.454C496.968 620.423 458.507 624.647 420.152 627.298C414.573 627.684 408.964 628.031 403.371 628.321C339.319 631.609 274.641 629.285 210.816 633.219C192.653 634.347 174.136 636.006 156.359 639.564C125.567 645.735 96.3382 658.319 69.7891 680.681" stroke="white" stroke-width="0.888889"/>
<path opacity="0.25" d="M1498.99 12.3149C1528.16 128.307 1503.75 250.828 1443.57 342.192C1373.73 448.205 1264.74 503.4 1160.05 522.724C1073.7 538.653 984.266 529.975 897.409 537.371C818.321 544.121 742.999 579.799 665.888 602.478C628 613.645 589.524 622.825 550.995 628.263C511.575 633.827 471.566 636.488 431.724 637.491C425.941 637.636 420.121 637.732 414.324 637.771C347.728 638.195 280.71 632.651 214.28 632.13C195.28 631.985 175.864 632.13 157.249 634.791C125.152 639.294 94.8583 651.965 67.207 675.059" stroke="white" stroke-width="0.888889"/>
<path opacity="0.25" d="M1490.04 16.7119C1516.66 130.303 1492.86 248.205 1434.03 337.207C1366.5 439.42 1261.65 493.149 1160.68 512.705C1077.64 528.789 991.823 521.325 907.925 530.341C829.825 538.798 759.07 586.597 684.488 612.989C646.05 626.576 606.668 636.739 567.127 641.811C526.28 647.037 484.709 648.185 443.417 647.597C437.416 647.5 431.384 647.356 425.383 647.153C356.198 644.752 286.855 636.074 217.867 631.108C198.089 629.681 177.858 628.215 158.276 630.095C125.416 633.171 92.3979 644.694 64.7617 669.457" stroke="white" stroke-width="0.888889"/>
<path opacity="0.25" d="M1481.05 21.041C1505.58 131.865 1481.81 245.842 1424.58 332.183C1359.35 430.539 1258.6 482.985 1161.31 502.801C1081.58 519.039 998.849 512.29 918.342 523.311C841.223 533.86 775.571 593.153 703.201 623.113C664.294 639.207 623.938 650.344 583.401 655.06C541.06 659.977 497.926 659.679 455.147 657.461C448.934 657.142 442.684 656.766 436.464 656.313C364.622 651.203 292.863 639.332 221.391 629.989C200.73 627.298 179.646 624.579 159.249 625.321C124.748 626.402 91.1657 639.742 62.2695 663.844" stroke="white" stroke-width="0.888889"/>
<path opacity="0.25" d="M1472.04 25.1782C1494.5 133.032 1470.78 243.422 1415.22 326.995C1352.29 421.706 1255.58 472.813 1161.97 492.841C1085.49 509.233 1005.83 503.197 928.714 516.099C852.298 528.875 792.27 599.402 721.968 632.882C682.682 651.644 641.578 663.478 599.79 668.059C555.916 672.764 511.205 671.028 466.931 667.258C460.492 666.709 454.03 666.111 447.591 665.426C373.077 657.558 298.88 642.611 224.901 628.957C203.418 624.994 181.518 620.867 160.223 620.645C125.204 620.288 89.6269 632.053 59.8242 658.252" stroke="white" stroke-width="0.888889"/>
<path opacity="0.25" d="M1462.99 29.1797C1483.45 134.064 1459.85 241.136 1405.94 321.711C1345.14 412.613 1252.91 462.495 1162.55 482.87C1089.28 499.426 1012.64 494.094 938.867 508.77C863.077 523.851 809.368 604.561 740.847 642.177C701.276 663.893 658.754 676.467 616.292 680.661C570.901 685.155 524.566 682.06 478.805 676.804C472.147 676.042 465.459 675.213 458.794 674.297C381.547 663.767 304.798 645.745 228.412 627.819C206.203 622.603 183.526 616.778 161.227 615.882C124.706 614.406 88.3058 625.621 57.3633 652.611" stroke="white" stroke-width="0.888889"/>
<path opacity="0.25" d="M1453.91 33.0273C1472.45 134.961 1448.98 238.35 1396.74 316.302C1338.23 403.655 1249.93 452.264 1163.16 472.909C1093.05 489.601 1019.39 485.02 948.959 501.336C873.606 518.799 826.472 609.98 759.808 651.116C720.071 675.647 676.386 688.974 632.988 693.014C585.922 697.401 538.002 693.014 490.663 686.264C483.779 685.3 476.864 684.239 469.979 683.111C389.962 669.968 310.7 648.879 231.868 626.739C208.776 620.26 185.246 613.24 162.147 611.186C124.592 607.811 87.1873 619.498 54.8633 646.98" stroke="white" stroke-width="0.888889"/>
<path opacity="0.25" d="M1444.8 36.7207C1461.49 135.674 1438.17 235.409 1387.68 310.815C1331.46 394.707 1247.05 442.081 1163.81 462.977C1096.83 479.794 1026.48 476.294 959.007 493.834C883.791 513.36 843.223 615.265 778.885 659.689C739.216 687.113 694.165 701.152 649.8 705.087C601.095 709.339 551.56 703.64 502.652 695.56C495.525 694.374 488.377 693.12 481.281 691.77C398.433 676.014 316.611 651.946 235.379 625.65C211.479 617.936 187.149 609.518 163.152 606.5C124.198 601.385 85.063 613.699 52.4258 641.339" stroke="white" stroke-width="0.888889"/>
<path opacity="0.25" d="M1435.67 40.2788C1450.56 136.185 1427.45 232.343 1378.64 305.164C1324.7 385.633 1244.11 431.85 1164.4 452.987C1100.51 469.93 1033.05 467.22 968.883 486.11C893.863 508.192 860.467 619.97 797.986 667.837C758.385 698.163 711.997 712.974 666.772 716.774C616.399 721.036 565.158 714.093 514.709 704.585C507.349 703.197 499.974 701.741 492.637 700.178C406.95 681.925 322.517 654.858 238.899 624.445C214.29 615.486 189.258 605.458 164.166 601.697C123.893 595.7 84.6313 606.74 50.0352 635.698" stroke="white" stroke-width="0.888889"/>
<path opacity="0.25" d="M1426.5 43.7119C1439.66 136.552 1416.83 229.151 1369.71 299.456C1318 376.579 1241.23 421.649 1164.99 443.027C1104.15 460.085 1039.57 458.204 978.655 478.338C903.741 503.091 877.818 624.348 817.164 675.609C777.797 708.877 729.975 724.488 683.792 728.249C631.705 732.54 578.773 724.392 526.776 713.582C519.175 712.001 511.566 710.333 504.002 708.568C415.394 687.846 328.333 657.818 242.353 623.346C216.883 613.134 191.021 601.939 165.151 597.031C124.101 589.239 83.3899 600.348 47.5859 630.047" stroke="white" stroke-width="0.888889"/>
<path opacity="0.25" d="M1417.31 46.9419C1428.81 136.725 1406.32 226.73 1360.88 293.593C1311.05 366.878 1239.51 410.521 1165.6 433.066C1107.48 450.789 1045.37 448.638 988.35 470.45C913.866 498.945 895.817 627.742 836.438 683.024C797.448 719.31 748.041 735.606 700.975 739.424C647.197 743.793 592.521 734.545 538.902 722.415C531.066 720.631 523.215 718.702 515.41 716.774C423.934 693.718 334.141 660.682 245.835 622.208C219.587 610.762 192.925 598.216 166.165 592.315C124.012 583.048 82.1917 593.954 45.1875 624.387" stroke="white" stroke-width="0.888889"/>
<path opacity="0.25" d="M1408.06 50.0566C1417.97 136.774 1395.8 223.192 1352.1 287.653C1304.54 357.785 1236.64 400.29 1166.18 423.095C1111.02 440.944 1051.68 439.68 997.898 462.457C962.252 477.557 940.391 525.915 922.41 565.682C903.206 608.226 886.327 658.522 855.716 689.977C817.3 729.444 765.885 746.358 718.215 750.215C662.648 754.708 606.281 744.429 551.039 731.016C542.954 729.087 534.862 727.005 526.822 724.845C432.462 699.475 339.907 663.488 249.321 621.05C222.364 608.438 195.045 594.311 167.175 587.638C123.641 577.253 80.8618 587.638 42.8008 618.717" stroke="white" stroke-width="0.888889"/>
<path opacity="0.25" d="M1398.85 53.0264C1407.22 136.658 1385.44 219.508 1343.47 281.607C1298.17 348.653 1233.56 390.734 1166.83 413.134C1114.89 430.558 1058.26 430.983 1007.42 454.357C971.824 470.749 952.122 523.987 936.466 564.804C919.383 609.334 905.063 663.006 875.2 696.582C837.373 739.106 784.176 756.772 735.69 760.735C678.372 765.421 620.111 754.178 563.351 739.521C555.048 737.37 546.676 735.133 538.395 732.771C441.144 705.434 345.734 666.236 252.778 619.893C224.976 606.027 196.819 590.734 168.232 582.942C123.95 570.889 79.722 581.274 40.4531 613.037" stroke="white" stroke-width="0.888889"/>
<path opacity="0.25" d="M1389.59 55.8418C1396.5 136.359 1375.11 215.708 1334.9 275.464C1291.87 339.473 1230.77 380.57 1167.39 403.173C1118.33 420.703 1064.45 422.082 1016.77 446.16C981.293 464.066 963.931 521.749 950.343 563.801C935.374 610.086 923.666 667.152 894.61 702.839C857.508 748.392 802.515 766.886 753.214 770.994C694.091 775.922 634.041 763.704 575.651 747.852C567.083 745.528 558.47 743.107 549.985 740.6C449.707 711.045 351.534 668.965 256.246 618.716C227.847 603.741 199.056 586.664 169.231 578.217C123.259 565.286 78.5394 575.073 38.0703 607.357" stroke="white" stroke-width="0.888889"/>
<path opacity="0.25" d="M1380.3 58.5132C1385.81 135.886 1364.86 211.765 1326.42 269.226C1285.6 330.274 1228 370.311 1168.01 393.202C1121.81 410.829 1070.63 413.24 1026.05 437.858C990.616 457.384 975.82 519.406 964.195 562.49C951.249 610.559 942.379 670.701 914.109 708.587C877.875 757.206 820.934 776.539 770.855 780.83C709.906 786.047 648.044 772.914 588.001 755.952C579.184 753.464 570.314 750.87 561.58 748.238C458.297 716.59 357.271 671.626 259.711 617.54C230.55 601.379 201.011 582.923 170.265 573.57C123.206 559.25 77.4147 568.69 35.7227 601.668" stroke="white" stroke-width="0.888889"/>
<path opacity="0.25" d="M1370.99 61.0684C1375.17 135.317 1354.7 207.715 1318.05 262.91C1279.43 321.075 1225.65 359.192 1168.58 383.27C1124.94 401.688 1076.94 403.626 1035.18 429.478C999.705 451.415 987.733 517.111 978.04 561.101C967.109 610.752 961.116 673.97 933.706 714.074C898.37 765.759 839.459 785.95 788.641 790.463C725.895 796.046 662.176 782.035 600.442 764.004C591.383 761.352 582.249 758.594 573.221 755.74C466.903 722.067 363.069 674.249 263.169 616.345C233.064 598.901 202.695 579.596 171.307 568.893C123.75 552.664 76.2905 562.287 33.3906 595.969" stroke="white" stroke-width="0.888889"/>
<path opacity="0.25" d="M1361.66 63.4116C1363.46 135.096 1345.12 202.691 1309.75 256.44C1273.33 311.798 1222.83 349.154 1169.16 373.271C1128.44 391.592 1083.03 394.755 1044.21 420.944C1008.95 444.733 999.627 514.932 991.806 559.462C982.854 610.463 979.766 677.229 953.308 719.088C918.9 773.559 858.51 794.88 806.491 799.701C741.896 805.699 676.319 790.878 612.894 771.805C603.564 768.999 594.181 766.077 584.903 763.059C475.514 727.458 368.849 676.824 266.616 615.139C235.937 596.635 204.949 575.498 172.354 564.216C123.03 547.139 75.1855 555.904 31.0703 590.251" stroke="white" stroke-width="0.888889"/>
<path opacity="0.25" d="M1352.32 65.6392C1352.92 134.151 1335.11 198.362 1301.56 249.912C1267.3 302.532 1220.13 338.924 1169.74 363.31C1131.78 381.679 1088.74 385.893 1053.14 412.343C1018.18 438.33 1011.67 512.059 1005.54 557.678C998.549 609.691 998.572 679.842 972.951 723.736C939.344 781.312 877.179 803.548 824.458 808.678C758.029 815.149 690.558 799.556 625.404 779.5C615.817 776.539 606.17 773.463 596.636 770.281C484.159 732.781 374.625 679.379 270.067 613.934C238.634 594.253 206.929 571.815 173.442 559.549C123.009 541.093 74.1152 549.598 28.7695 584.553" stroke="white" stroke-width="0.888889"/>
<path opacity="0.25" d="M1342.95 67.7217C1342.43 132.906 1325.15 193.964 1293.45 243.287C1261.38 293.188 1217.41 328.712 1170.31 353.349C1135.04 371.786 1094.64 377.186 1061.96 403.655C1027.34 431.686 1023.68 509.455 1019.22 555.74C1015.99 589.297 1013.94 623.065 1009.88 656.477C1006.95 680.584 1003.62 707.497 992.644 728.026C960.184 788.66 896.02 811.918 842.529 817.357C774.235 824.357 704.854 808.051 637.956 787.04C628.105 783.954 618.193 780.724 608.395 777.397C492.785 737.987 380.391 681.886 273.477 612.709C241.1 591.755 208.558 568.478 174.437 554.853C123.686 534.603 73.0188 543.185 26.4805 578.805" stroke="white" stroke-width="0.888889"/>
<path opacity="0.25" d="M1333.58 69.6504C1331.98 131.721 1315.34 189.317 1285.44 236.566C1255.54 283.815 1214.81 318.471 1170.88 343.378C1138.27 361.892 1100.48 368.527 1070.66 394.861C1036.41 425.11 1035.75 506.447 1032.87 553.57C1030.78 587.744 1029.85 622.034 1027.16 656.159C1025.15 681.317 1023.05 709.947 1012.37 731.874C981.334 795.516 914.875 819.777 860.697 825.659C790.546 833.277 719.21 816.287 650.576 794.378C640.461 791.148 630.277 787.773 620.222 784.292C501.449 743.204 386.156 684.355 276.94 611.485C243.945 589.49 210.82 564.515 175.537 550.215C123.503 529.107 71.613 536.455 24.1914 573.097" stroke="white" stroke-width="0.888889"/>
<path opacity="0.25" d="M1324.18 71.4443C1321.58 130.39 1305.63 184.496 1277.52 229.816C1249.59 274.723 1212.17 308.241 1171.45 333.466C1141.45 352.048 1106.31 359.945 1079.26 386.029C1045.5 418.582 1047.83 503.486 1046.49 551.305C1045.5 586.703 1045.8 622.169 1044.23 657.539C1043.09 683.275 1042.16 712.502 1032.15 735.413C1002.93 801.948 933.825 827.453 878.983 833.769C806.952 842.004 733.827 824.319 663.261 801.668C652.851 798.322 642.434 794.822 632.099 791.177C509.967 747.978 391.919 686.795 280.378 610.241C246.499 586.992 212.522 561.121 176.612 545.558C124.08 522.791 70.5515 530.129 21.9297 567.37" stroke="white" stroke-width="0.888889"/>
<path opacity="0.25" d="M1314.77 73.083C1311.24 128.712 1295.9 179.77 1269.7 222.873C1243.9 265.301 1209.48 297.999 1172.03 323.447C1144.7 342.019 1112.05 351.073 1087.74 377.012C1072.31 393.482 1067.63 423.095 1064.61 447.105C1060.39 480.633 1059.96 514.903 1060.08 548.778C1060.21 584.109 1061.51 619.43 1061.34 654.751C1061.2 682.011 1061.75 713.678 1051.9 738.469C1024.32 807.897 952.81 834.656 897.311 841.377C823.401 850.325 748.283 832.081 675.927 808.591C665.253 805.12 654.557 801.494 643.958 797.705C518.648 752.962 397.678 689.166 283.797 608.958C249.322 584.668 214.748 557.148 177.691 540.9C123.596 517.169 69.532 523.774 19.6797 561.632" stroke="white" stroke-width="0.888889"/>
<path opacity="0.25" d="M1305.35 74.5684C1301.04 126.842 1286.32 174.911 1261.98 215.892C1238.21 255.919 1206.79 287.817 1172.59 313.486C1147.79 332.087 1117.81 342.54 1096.12 367.948C1081.67 384.871 1077.92 413.78 1075.52 437.376C1071.85 473.353 1072.5 509.985 1073.67 546.146C1074.91 583.868 1077.54 621.503 1078.42 659.235C1079.05 685.763 1080.52 716.552 1071.72 741.199C1045.86 813.577 971.893 841.57 915.768 848.773C839.985 858.522 762.738 839.824 688.662 815.496C677.731 811.909 666.77 808.138 655.87 804.243C527.48 758.237 403.438 691.577 287.224 607.734C251.994 582.315 216.733 553.493 178.778 536.252C123.627 511.181 68.5655 517.42 17.4375 555.885" stroke="white" stroke-width="0.888889"/>
<path opacity="0.25" d="M1295.93 75.9185C1290.82 124.797 1276.77 169.925 1254.35 208.824C1232.6 246.575 1204.16 277.451 1173.15 303.516C1150.57 322.493 1123.73 334.372 1104.38 358.807C1089.84 377.128 1087.29 409.547 1085.73 434.367C1083.47 470.585 1085.04 507.17 1087.24 543.33C1089.5 580.937 1093.15 618.379 1095.33 655.986C1096.95 683.825 1099.99 717.073 1091.56 743.503C1067.55 818.717 991.106 848.098 934.316 855.812C856.639 866.371 777.361 847.269 701.488 822.217C690.278 818.514 679 814.628 667.866 810.646C536.177 763.126 409.184 693.911 290.645 606.461C254.524 579.847 218.44 550.08 179.874 531.634C124.269 505 67.5473 511.056 15.2266 550.148" stroke="white" stroke-width="0.888889"/>
<path opacity="0.25" d="M1286.48 77.1138C1280.66 122.695 1267.34 164.785 1246.82 201.678C1227.04 237.25 1201.49 267.307 1173.71 293.545C1153.6 312.541 1129.47 325.79 1112.56 349.569C1099.06 368.507 1097.41 399.846 1096.4 424.464C1094.81 463.093 1097.5 502.011 1100.87 540.369C1104.37 580.252 1109.34 619.912 1112.72 659.814C1115.04 687.199 1118.89 719.049 1111.44 745.432C1089.38 823.538 1010.36 854.269 952.971 862.552C873.422 874.037 792.068 854.51 714.353 828.803C702.864 824.994 691.314 821.002 679.893 816.865C544.936 767.947 414.945 696.225 294.059 605.188C257.341 577.532 220.684 546.145 180.97 526.966C123.743 499.34 66.5905 504.634 13.0469 544.362" stroke="white" stroke-width="0.888889"/>
<path opacity="0.25" d="M1277.03 78.1646C1270.57 120.429 1257.99 159.53 1239.38 194.446C1221.55 227.906 1198.74 257.857 1174.26 283.583C1156.48 302.261 1135.3 317.921 1120.55 340.254C1107.09 360.619 1106.88 395.323 1106.72 421.31C1106.49 460.103 1110.1 498.905 1114.44 537.235C1118.97 576.944 1124.82 616.373 1129.42 656.063C1132.74 684.701 1138.24 718.74 1131.25 746.984C1111.26 827.799 1029.62 860.122 971.635 868.964C890.184 881.384 806.777 861.559 727.19 835.215C715.421 831.358 703.585 827.202 691.884 822.949C553.688 772.701 420.678 698.5 297.459 603.895C260.01 575.141 222.658 542.471 182.068 522.337C123.844 493.409 65.6355 498.298 10.8086 538.595" stroke="white" stroke-width="0.888889"/>
<path opacity="0.25" d="M1267.57 79.0713C1260.75 117.462 1248.73 154.035 1232.05 187.137C1216.1 218.659 1196.11 247.318 1174.81 273.613C1159.46 292.561 1140.99 308.51 1128.46 330.862C1116.29 352.587 1116.79 385.613 1117.14 411.263C1117.74 452.428 1122.51 493.458 1128.08 533.947C1133.83 575.845 1141.13 617.367 1147 659.235C1150.93 687.199 1157.07 720.187 1151.1 748.151C1133.27 831.647 1048.96 865.609 990.402 875.059C907.041 888.491 821.558 868.396 740.091 841.406C728.013 837.414 715.935 833.209 703.933 828.87C562.423 777.417 426.401 700.776 300.827 602.623C262.479 572.644 224.335 539.126 183.148 517.719C124.358 487.171 64.7756 492.223 8.58984 532.839" stroke="white" stroke-width="0.888889"/>
<path opacity="0.25" d="M1258.1 79.8232C1250.76 114.976 1239.55 148.62 1224.81 179.751C1210.7 209.421 1193.44 237.607 1175.35 263.642C1162.19 282.59 1146.83 300.372 1136.27 321.383C1124.89 344.015 1126.54 378.053 1127.62 404.552C1129.35 446.912 1135.17 488.983 1141.83 530.476C1148.52 572.152 1156.65 613.403 1163.66 654.973C1168.62 684.374 1176.33 719.059 1171 748.922C1155.67 834.877 1068.34 870.748 1009.29 880.825C924.055 895.347 836.421 875.039 753.075 847.49C740.733 843.411 728.322 839.11 716.086 834.656C570.984 781.746 432.379 703.202 304.291 601.302C265.317 570.329 226.674 535.162 184.303 513.08C123.912 481.587 63.892 485.849 6.45312 527.033" stroke="white" stroke-width="0.888889"/>
<path opacity="0.25" d="M1248.63 80.4312C1240.86 112.345 1230.48 143.13 1217.68 172.278C1205.32 200.319 1190.81 227.608 1175.91 253.682C1165.01 272.746 1152.69 291.462 1143.97 311.828C1133.66 335.934 1136.33 370.648 1138.13 397.706C1141.04 441.243 1147.94 484.326 1155.67 526.831C1163.4 569.336 1172.68 611.523 1180.86 653.971C1186.57 683.603 1195.37 718.789 1190.89 749.308C1177.92 837.79 1087.79 875.541 1028.24 886.235C941.107 901.914 851.367 881.413 766.088 853.372C753.459 849.216 740.754 844.829 728.208 840.278C579.744 786.298 438.115 705.371 307.657 599.971C267.973 567.929 228.629 531.508 185.427 508.452C124.093 475.667 62.9701 479.524 4.30078 521.248" stroke="white" stroke-width="0.888889"/>
<path opacity="0.25" d="M1239.16 80.8848C1231.04 109.587 1221.51 137.607 1210.63 164.776C1199.97 191.39 1188.16 217.715 1176.44 243.75C1167.78 263.036 1158.53 282.321 1151.53 302.233C1142.42 328.211 1146.16 362.983 1148.73 390.821C1152.85 435.477 1160.76 479.534 1169.61 523.013C1178.45 566.492 1188.77 609.431 1198.12 652.727C1204.59 682.755 1214.38 718.018 1210.75 749.347C1200.23 840.326 1107.27 879.996 1047.24 891.413C958.239 908.327 866.317 887.72 779.113 859.197C766.19 854.964 753.198 850.519 740.365 845.861C588.529 790.848 443.87 707.55 311.05 598.651C270.46 565.383 230.315 528.162 186.562 503.834C124.821 469.506 62.0071 473.189 2.16016 515.453" stroke="white" stroke-width="0.888889"/>
<path opacity="0.25" d="M1229.68 81.2026C1206.62 151.913 1178.46 220.839 1158.99 292.484C1151.44 320.342 1156.06 355.008 1159.42 383.676C1164.79 429.411 1173.76 474.442 1183.69 518.876C1193.62 563.31 1204.97 606.943 1215.4 651.049C1222.6 681.404 1233.35 716.861 1230.59 748.923C1222.54 842.38 1126.79 884.065 1066.28 896.157C975.388 914.334 881.338 893.698 792.164 864.751C622.535 809.564 461.139 719.218 314.4 597.31C273.221 563.098 232.526 524.286 187.663 499.224C124.45 463.903 61.1302 466.844 0 509.648" stroke="white" stroke-width="0.888889"/>
</g>
</g>
<defs>
<clipPath id="clip0_216_119505">
<rect width="1440" height="900" fill="white"/>
</clipPath>
</defs>
</svg>
