<svg width="22" height="22" viewBox="0 0 22 22" fill="none" xmlns="http://www.w3.org/2000/svg">
<path d="M21.5 6.5V5H19.9242C19.8275 4.53052 19.6411 4.08411 19.3752 3.68525L20.4928 2.56775L19.4323 1.50725L18.3148 2.62475C17.9159 2.35888 17.4695 2.17248 17 2.07575V0.5H15.5V2.07575C15.0305 2.17248 14.5841 2.35888 14.1852 2.62475L13.0677 1.50725L12.0072 2.56775L13.1248 3.68525C12.8589 4.08411 12.6725 4.53052 12.5758 5H11V6.5H12.5758C12.6725 6.96948 12.8589 7.41589 13.1248 7.81475L12.0072 8.93225L13.0677 9.99275L14.1852 8.87525C14.5841 9.14112 15.0305 9.32752 15.5 9.42425V11H17V9.42425C17.4695 9.32752 17.9159 9.14112 18.3148 8.87525L19.4323 9.99275L20.4928 8.93225L19.3752 7.81475C19.6411 7.41589 19.8275 6.96948 19.9242 6.5H21.5ZM16.25 8C15.805 8 15.37 7.86804 15 7.62081C14.63 7.37357 14.3416 7.02217 14.1713 6.61104C14.001 6.1999 13.9564 5.7475 14.0432 5.31105C14.13 4.87459 14.3443 4.47368 14.659 4.15901C14.9737 3.84434 15.3746 3.63005 15.811 3.54323C16.2475 3.45642 16.6999 3.50097 17.111 3.67127C17.5222 3.84157 17.8736 4.12996 18.1208 4.49997C18.368 4.86998 18.5 5.30499 18.5 5.75C18.4994 6.34655 18.2622 6.9185 17.8403 7.34033C17.4185 7.76216 16.8466 7.9994 16.25 8ZM11 21.5H9.5V17.75C9.4994 17.1534 9.26216 16.5815 8.84033 16.1597C8.4185 15.7378 7.84655 15.5006 7.25 15.5H4.25C3.65345 15.5006 3.0815 15.7378 2.65967 16.1597C2.23784 16.5815 2.0006 17.1534 2 17.75V21.5H0.5V17.75C0.501191 16.7558 0.896661 15.8027 1.59966 15.0997C2.30267 14.3967 3.2558 14.0012 4.25 14H7.25C8.2442 14.0012 9.19733 14.3967 9.90034 15.0997C10.6033 15.8027 10.9988 16.7558 11 17.75V21.5ZM5.75 6.5C6.19501 6.5 6.63002 6.63196 7.00003 6.87919C7.37004 7.12643 7.65843 7.47783 7.82873 7.88896C7.99903 8.3001 8.04358 8.7525 7.95677 9.18895C7.86995 9.62541 7.65566 10.0263 7.34099 10.341C7.02632 10.6557 6.62541 10.87 6.18895 10.9568C5.7525 11.0436 5.3001 10.999 4.88896 10.8287C4.47783 10.6584 4.12643 10.37 3.87919 10C3.63196 9.63002 3.5 9.19501 3.5 8.75C3.5 8.15326 3.73705 7.58097 4.15901 7.15901C4.58097 6.73705 5.15326 6.5 5.75 6.5ZM5.75 5C5.00832 5 4.2833 5.21993 3.66661 5.63199C3.04993 6.04404 2.56928 6.62971 2.28545 7.31494C2.00162 8.00016 1.92736 8.75416 2.07206 9.48159C2.21675 10.209 2.5739 10.8772 3.09835 11.4017C3.6228 11.9261 4.29098 12.2833 5.01841 12.4279C5.74584 12.5726 6.49984 12.4984 7.18506 12.2145C7.87029 11.9307 8.45596 11.4501 8.86801 10.8334C9.28007 10.2167 9.5 9.49168 9.5 8.75C9.5 8.25754 9.403 7.76991 9.21455 7.31494C9.02609 6.85997 8.74987 6.44657 8.40165 6.09835C8.05343 5.75013 7.64003 5.47391 7.18506 5.28545C6.73009 5.097 6.24246 5 5.75 5Z" fill="#66A3D3"/>
</svg>
