<svg width="20" height="18" viewBox="0 0 20 18" fill="none" xmlns="http://www.w3.org/2000/svg">
<path d="M1.36417 0.364136C0.61 0.364136 0 0.974136 0 1.72747V16.2725C0 17.0258 0.61 17.6358 1.36417 17.6358H18.6358C19.39 17.6358 20 17.0258 20 16.2725V1.72747C20 0.974136 19.39 0.364136 18.6358 0.364136H1.36417ZM1.36417 1.72747H18.6358V16.2725H15.91V14.91H11.8183V16.2725H1.36417V1.72747ZM10 5.8183C9.63831 5.8183 9.29144 5.96198 9.03568 6.21774C8.77993 6.47349 8.63625 6.82036 8.63625 7.18205C8.63625 7.54374 8.77993 7.89062 9.03568 8.14637C9.29144 8.40212 9.63831 8.5458 10 8.5458C10.3617 8.5458 10.7086 8.40212 10.9643 8.14637C11.2201 7.89062 11.3638 7.54374 11.3638 7.18205C11.3638 6.82036 11.2201 6.47349 10.9643 6.21774C10.7086 5.96198 10.3617 5.8183 10 5.8183ZM6.36417 7.40997C5.79917 7.40997 5.34 7.8683 5.34 8.43164C5.3476 8.69788 5.4587 8.95066 5.64971 9.13629C5.84071 9.32192 6.09657 9.42577 6.36292 9.42577C6.62927 9.42577 6.88512 9.32192 7.07612 9.13629C7.26713 8.95066 7.37823 8.69788 7.38583 8.43164C7.38583 7.86747 6.92833 7.40997 6.36417 7.40997ZM13.6358 7.40997C13.4992 7.40607 13.3631 7.42962 13.2357 7.47922C13.1083 7.52883 12.9921 7.60349 12.894 7.69879C12.796 7.79408 12.718 7.90808 12.6648 8.03403C12.6116 8.15998 12.5841 8.29532 12.5841 8.43205C12.5841 8.56879 12.6116 8.70413 12.6648 8.83008C12.718 8.95603 12.796 9.07002 12.894 9.16532C12.9921 9.26061 13.1083 9.33527 13.2357 9.38488C13.3631 9.43449 13.4992 9.45804 13.6358 9.45414C13.9019 9.44654 14.1544 9.33552 14.3399 9.14468C14.5254 8.95383 14.6291 8.69818 14.6291 8.43205C14.6291 8.16592 14.5254 7.91028 14.3399 7.71943C14.1544 7.52858 13.9019 7.41757 13.6358 7.40997ZM10 9.45414C9.0175 9.45414 7.98917 9.7883 7.37667 10.2925C7.04886 10.1901 6.70759 10.1373 6.36417 10.1358C5.26917 10.1358 4.09 10.715 4.09 11.435V12.1816H15.91V11.435C15.91 10.715 14.7308 10.1358 13.6358 10.1358C13.2942 10.1358 12.9442 10.1925 12.6233 10.2925C12.0108 9.7883 10.9825 9.45414 10 9.45414Z" fill="#FBFAFA"/>
</svg>
