<svg width="21" height="20" viewBox="0 0 21 20" fill="none" xmlns="http://www.w3.org/2000/svg">
<path d="M12.754 7C13.131 6.9998 13.498 7.12136 13.8004 7.34659C14.1027 7.57183 14.3243 7.88869 14.432 8.25H13.75C13.34 8.25 12.952 8.34 12.603 8.5H7.252C7.1857 8.5 7.12211 8.52634 7.07522 8.57322C7.02834 8.62011 7.002 8.6837 7.002 8.75V13.499C7.002 14.805 7.836 15.916 9 16.329V17.888C8.00619 17.6605 7.11902 17.1024 6.48359 16.3051C5.84816 15.5078 5.50209 14.5185 5.502 13.499V8.75C5.502 7.784 6.285 7 7.252 7H12.754ZM17.25 8.25C17.9773 8.24999 18.6749 8.53808 19.1903 9.05121C19.7057 9.56434 19.9968 10.2607 20 10.988V8.75C20 8.28587 19.8156 7.84075 19.4874 7.51256C19.1592 7.18437 18.7141 7 18.25 7H14.875C15.167 7.353 15.372 7.78 15.459 8.25H17.25ZM1.75 7H5.131C4.7782 7.42609 4.56274 7.94905 4.513 8.5H1.75C1.6837 8.5 1.62011 8.52634 1.57322 8.57322C1.52634 8.62011 1.5 8.6837 1.5 8.75V11.999C1.49994 12.3769 1.5855 12.7499 1.75027 13.0899C1.91504 13.43 2.15473 13.7283 2.45133 13.9625C2.74793 14.1966 3.09374 14.3605 3.46277 14.4418C3.83179 14.5231 4.21445 14.5198 4.582 14.432C4.667 14.936 4.822 15.417 5.035 15.864C4.44228 16.0226 3.82103 16.0427 3.21929 15.9228C2.61756 15.8029 2.05145 15.5463 1.56475 15.1727C1.07805 14.7991 0.683789 14.3185 0.412463 13.7682C0.141138 13.2179 1.22998e-05 12.6126 0 11.999V8.75C0 7.784 0.784 7 1.75 7ZM10 0C10.7956 0 11.5587 0.316071 12.1213 0.87868C12.6839 1.44129 13 2.20435 13 3C13 3.79565 12.6839 4.55871 12.1213 5.12132C11.5587 5.68393 10.7956 6 10 6C9.20435 6 8.44129 5.68393 7.87868 5.12132C7.31607 4.55871 7 3.79565 7 3C7 2.20435 7.31607 1.44129 7.87868 0.87868C8.44129 0.316071 9.20435 0 10 0ZM10 1.5C9.60218 1.5 9.22064 1.65804 8.93934 1.93934C8.65804 2.22064 8.5 2.60218 8.5 3C8.5 3.39782 8.65804 3.77936 8.93934 4.06066C9.22064 4.34196 9.60218 4.5 10 4.5C10.3978 4.5 10.7794 4.34196 11.0607 4.06066C11.342 3.77936 11.5 3.39782 11.5 3C11.5 2.60218 11.342 2.22064 11.0607 1.93934C10.7794 1.65804 10.3978 1.5 10 1.5ZM16.5 1C17.163 1 17.7989 1.26339 18.2678 1.73223C18.7366 2.20107 19 2.83696 19 3.5C19 4.16304 18.7366 4.79893 18.2678 5.26777C17.7989 5.73661 17.163 6 16.5 6C15.837 6 15.2011 5.73661 14.7322 5.26777C14.2634 4.79893 14 4.16304 14 3.5C14 2.83696 14.2634 2.20107 14.7322 1.73223C15.2011 1.26339 15.837 1 16.5 1ZM16.5 2.5C16.2348 2.5 15.9804 2.60536 15.7929 2.79289C15.6054 2.98043 15.5 3.23478 15.5 3.5C15.5 3.76522 15.6054 4.01957 15.7929 4.20711C15.9804 4.39464 16.2348 4.5 16.5 4.5C16.7652 4.5 17.0196 4.39464 17.2071 4.20711C17.3946 4.01957 17.5 3.76522 17.5 3.5C17.5 3.23478 17.3946 2.98043 17.2071 2.79289C17.0196 2.60536 16.7652 2.5 16.5 2.5ZM3.5 1C4.16304 1 4.79893 1.26339 5.26777 1.73223C5.73661 2.20107 6 2.83696 6 3.5C6 4.16304 5.73661 4.79893 5.26777 5.26777C4.79893 5.73661 4.16304 6 3.5 6C2.83696 6 2.20107 5.73661 1.73223 5.26777C1.26339 4.79893 1 4.16304 1 3.5C1 2.83696 1.26339 2.20107 1.73223 1.73223C2.20107 1.26339 2.83696 1 3.5 1ZM3.5 2.5C3.23478 2.5 2.98043 2.60536 2.79289 2.79289C2.60536 2.98043 2.5 3.23478 2.5 3.5C2.5 3.76522 2.60536 4.01957 2.79289 4.20711C2.98043 4.39464 3.23478 4.5 3.5 4.5C3.76522 4.5 4.01957 4.39464 4.20711 4.20711C4.39464 4.01957 4.5 3.76522 4.5 3.5C4.5 3.23478 4.39464 2.98043 4.20711 2.79289C4.01957 2.60536 3.76522 2.5 3.5 2.5ZM12 12H11.5C11.1022 12 10.7206 12.158 10.4393 12.4393C10.158 12.7206 10 13.1022 10 13.5V15H12.5V14.75C12.5 14.5511 12.579 14.3603 12.7197 14.2197C12.8603 14.079 13.0511 14 13.25 14C13.4489 14 13.6397 14.079 13.7803 14.2197C13.921 14.3603 14 14.5511 14 14.75V15H17V14.75C17 14.5511 17.079 14.3603 17.2197 14.2197C17.3603 14.079 17.5511 14 17.75 14C17.9489 14 18.1397 14.079 18.2803 14.2197C18.421 14.3603 18.5 14.5511 18.5 14.75V15H21V13.5C21 13.1022 20.842 12.7206 20.5607 12.4393C20.2794 12.158 19.8978 12 19.5 12H19V11C19 10.5359 18.8156 10.0908 18.4874 9.76256C18.1592 9.43437 17.7141 9.25 17.25 9.25H13.75C13.2859 9.25 12.8408 9.43437 12.5126 9.76256C12.1844 10.0908 12 10.5359 12 11V12ZM13.5 11C13.5 10.9337 13.5263 10.8701 13.5732 10.8232C13.6201 10.7763 13.6837 10.75 13.75 10.75H17.25C17.3163 10.75 17.3799 10.7763 17.4268 10.8232C17.4737 10.8701 17.5 10.9337 17.5 11V12H13.5V11ZM10 18.5V16.5H12.5V17.25C12.5 17.4489 12.579 17.6397 12.7197 17.7803C12.8603 17.921 13.0511 18 13.25 18C13.4489 18 13.6397 17.921 13.7803 17.7803C13.921 17.6397 14 17.4489 14 17.25V16.5H17V17.25C17 17.4489 17.079 17.6397 17.2197 17.7803C17.3603 17.921 17.5511 18 17.75 18C17.9489 18 18.1397 17.921 18.2803 17.7803C18.421 17.6397 18.5 17.4489 18.5 17.25V16.5H21V18.5C21 18.8978 20.842 19.2794 20.5607 19.5607C20.2794 19.842 19.8978 20 19.5 20H11.5C11.1022 20 10.7206 19.842 10.4393 19.5607C10.158 19.2794 10 18.8978 10 18.5Z" fill="#66A3D3"/>
</svg>
