<svg width="22" height="16" viewBox="0 0 22 16" fill="none" xmlns="http://www.w3.org/2000/svg">
<path d="M0.460938 4.88L1.88094 3.46L4.00094 5.59L6.12094 3.46L7.54094 4.88L5.41094 7L7.54094 9.12L6.12094 10.54L4.00094 8.41L1.88094 10.54L0.460938 9.12L2.59094 7L0.460938 4.88ZM14.0009 0C15.0618 0 16.0792 0.421427 16.8294 1.17157C17.5795 1.92172 18.0009 2.93913 18.0009 4C18.0009 5.06087 17.5795 6.07828 16.8294 6.82843C16.0792 7.57857 15.0618 8 14.0009 8C12.9401 8 11.9227 7.57857 11.1725 6.82843C10.4224 6.07828 10.0009 5.06087 10.0009 4C10.0009 2.93913 10.4224 1.92172 11.1725 1.17157C11.9227 0.421427 12.9401 0 14.0009 0ZM14.0009 1.9C13.444 1.9 12.9098 2.12125 12.516 2.51508C12.1222 2.9089 11.9009 3.44305 11.9009 4C11.9009 4.55695 12.1222 5.0911 12.516 5.48492C12.9098 5.87875 13.444 6.1 14.0009 6.1C14.5579 6.1 15.092 5.87875 15.4859 5.48492C15.8797 5.0911 16.1009 4.55695 16.1009 4C16.1009 3.44305 15.8797 2.9089 15.4859 2.51508C15.092 2.12125 14.5579 1.9 14.0009 1.9ZM14.0009 9C16.6709 9 22.0009 10.33 22.0009 13V16H6.00094V13C6.00094 10.33 11.3309 9 14.0009 9ZM14.0009 10.9C11.0009 10.9 7.90094 12.36 7.90094 13V14.1H20.1009V13C20.1009 12.36 16.9709 10.9 14.0009 10.9Z" fill="#F21E1E"/>
</svg>
