<svg width="15" height="14" viewBox="0 0 15 14" fill="none" xmlns="http://www.w3.org/2000/svg">
<path d="M7.49381 9.97884C7.3827 9.97884 7.27854 9.96134 7.18131 9.92634C7.08409 9.8919 6.99381 9.83301 6.91048 9.74967L3.91048 6.74967C3.7577 6.5969 3.68132 6.40245 3.68132 6.16634C3.68132 5.93023 3.7577 5.73579 3.91048 5.58301C4.06326 5.43023 4.26104 5.35023 4.50381 5.34301C4.74715 5.33634 4.9452 5.4094 5.09798 5.56217L6.66048 7.12467V1.16634C6.66048 0.93023 6.74048 0.732175 6.90048 0.572175C7.05993 0.41273 7.2577 0.333008 7.49381 0.333008C7.72993 0.333008 7.92798 0.41273 8.08798 0.572175C8.24743 0.732175 8.32715 0.93023 8.32715 1.16634V7.12467L9.88965 5.56217C10.0424 5.4094 10.2405 5.33634 10.4838 5.34301C10.7266 5.35023 10.9244 5.43023 11.0771 5.58301C11.2299 5.73579 11.3063 5.93023 11.3063 6.16634C11.3063 6.40245 11.2299 6.5969 11.0771 6.74967L8.07715 9.74967C7.99381 9.83301 7.90354 9.8919 7.80631 9.92634C7.70909 9.96134 7.60493 9.97884 7.49381 9.97884ZM2.49382 13.6663C2.03548 13.6663 1.64326 13.5033 1.31715 13.1772C0.990482 12.8505 0.827148 12.458 0.827148 11.9997V10.333C0.827148 10.0969 0.906871 9.89884 1.06632 9.73884C1.22632 9.5794 1.42437 9.49967 1.66048 9.49967C1.89659 9.49967 2.09465 9.5794 2.25465 9.73884C2.41409 9.89884 2.49382 10.0969 2.49382 10.333V11.9997H12.4938V10.333C12.4938 10.0969 12.5738 9.89884 12.7338 9.73884C12.8933 9.5794 13.091 9.49967 13.3271 9.49967C13.5633 9.49967 13.761 9.5794 13.9205 9.73884C14.0805 9.89884 14.1605 10.0969 14.1605 10.333V11.9997C14.1605 12.458 13.9974 12.8505 13.6713 13.1772C13.3446 13.5033 12.9521 13.6663 12.4938 13.6663H2.49382Z" fill="#0275D8"/>
</svg>
