<svg width="82" height="102" viewBox="0 0 82 102" fill="none" xmlns="http://www.w3.org/2000/svg">
<path d="M40.6627 94.6626C63.12 94.6626 81.3253 76.4574 81.3253 54C81.3253 31.5426 63.12 13.3373 40.6627 13.3373C18.2053 13.3373 0 31.5426 0 54C0 76.4574 18.2053 94.6626 40.6627 94.6626Z" fill="url(#paint0_linear_212_82581)"/>
<g filter="url(#filter0_d_212_82581)">
<path d="M63.978 36.6507H17.3515C15.8543 36.6507 14.6406 37.8644 14.6406 39.3615V96.2892C14.6406 97.7864 15.8543 99.0001 17.3515 99.0001H63.978C65.4751 99.0001 66.6888 97.7864 66.6888 96.2892V39.3615C66.6888 37.8644 65.4751 36.6507 63.978 36.6507Z" fill="white"/>
</g>
<path d="M35.2424 44.7831H21.146C20.2477 44.7831 19.5195 45.5114 19.5195 46.4096C19.5195 47.3079 20.2477 48.0362 21.146 48.0362H35.2424C36.1407 48.0362 36.8689 47.3079 36.8689 46.4096C36.8689 45.5114 36.1407 44.7831 35.2424 44.7831Z" fill="#B4DAFF"/>
<path d="M45.0015 51.8313H21.146C20.2477 51.8313 19.5195 52.5595 19.5195 53.4578C19.5195 54.3561 20.2477 55.0843 21.146 55.0843H45.0015C45.8998 55.0843 46.628 54.3561 46.628 53.4578C46.628 52.5595 45.8998 51.8313 45.0015 51.8313Z" fill="#DFEAFB"/>
<path d="M35.2424 59.4217H21.146C20.2477 59.4217 19.5195 60.1499 19.5195 61.0482C19.5195 61.9465 20.2477 62.6747 21.146 62.6747H35.2424C36.1407 62.6747 36.8689 61.9465 36.8689 61.0482C36.8689 60.1499 36.1407 59.4217 35.2424 59.4217Z" fill="#B4DAFF"/>
<path d="M45.0015 66.4699H21.146C20.2477 66.4699 19.5195 67.1981 19.5195 68.0964C19.5195 68.9947 20.2477 69.7229 21.146 69.7229H45.0015C45.8998 69.7229 46.628 68.9947 46.628 68.0964C46.628 67.1981 45.8998 66.4699 45.0015 66.4699Z" fill="#DFEAFB"/>
<path d="M35.2424 74.0603H21.146C20.2477 74.0603 19.5195 74.7885 19.5195 75.6868C19.5195 76.5851 20.2477 77.3133 21.146 77.3133H35.2424C36.1407 77.3133 36.8689 76.5851 36.8689 75.6868C36.8689 74.7885 36.1407 74.0603 35.2424 74.0603Z" fill="#B4DAFF"/>
<path d="M45.0015 81.1085H21.146C20.2477 81.1085 19.5195 81.8367 19.5195 82.735C19.5195 83.6333 20.2477 84.3615 21.146 84.3615H45.0015C45.8998 84.3615 46.628 83.6333 46.628 82.735C46.628 81.8367 45.8998 81.1085 45.0015 81.1085Z" fill="#DFEAFB"/>
<g filter="url(#filter1_d_212_82581)">
<path d="M63.978 9H17.3515C15.8543 9 14.6406 10.2137 14.6406 11.7108V27.9759C14.6406 29.4731 15.8543 30.6867 17.3515 30.6867H63.978C65.4751 30.6867 66.6888 29.4731 66.6888 27.9759V11.7108C66.6888 10.2137 65.4751 9 63.978 9Z" fill="#1485FD"/>
</g>
<path d="M35.2424 14.9639H21.146C20.2477 14.9639 19.5195 15.6921 19.5195 16.5904C19.5195 17.4887 20.2477 18.2169 21.146 18.2169H35.2424C36.1407 18.2169 36.8689 17.4887 36.8689 16.5904C36.8689 15.6921 36.1407 14.9639 35.2424 14.9639Z" fill="#B4DAFF"/>
<path d="M45.0015 22.0121H21.146C20.2477 22.0121 19.5195 22.7403 19.5195 23.6386C19.5195 24.5369 20.2477 25.2651 21.146 25.2651H45.0015C45.8998 25.2651 46.628 24.5369 46.628 23.6386C46.628 22.7403 45.8998 22.0121 45.0015 22.0121Z" fill="white"/>
<defs>
<filter id="filter0_d_212_82581" x="8.64062" y="27.6507" width="64.0488" height="74.3494" filterUnits="userSpaceOnUse" color-interpolation-filters="sRGB">
<feFlood flood-opacity="0" result="BackgroundImageFix"/>
<feColorMatrix in="SourceAlpha" type="matrix" values="0 0 0 0 0 0 0 0 0 0 0 0 0 0 0 0 0 0 127 0" result="hardAlpha"/>
<feOffset dy="-3"/>
<feGaussianBlur stdDeviation="3"/>
<feColorMatrix type="matrix" values="0 0 0 0 0.788235 0 0 0 0 0.803922 0 0 0 0 0.85098 0 0 0 0.349 0"/>
<feBlend mode="normal" in2="BackgroundImageFix" result="effect1_dropShadow_212_82581"/>
<feBlend mode="normal" in="SourceGraphic" in2="effect1_dropShadow_212_82581" result="shape"/>
</filter>
<filter id="filter1_d_212_82581" x="8.64062" y="0" width="64.0488" height="33.6867" filterUnits="userSpaceOnUse" color-interpolation-filters="sRGB">
<feFlood flood-opacity="0" result="BackgroundImageFix"/>
<feColorMatrix in="SourceAlpha" type="matrix" values="0 0 0 0 0 0 0 0 0 0 0 0 0 0 0 0 0 0 127 0" result="hardAlpha"/>
<feOffset dy="-3"/>
<feGaussianBlur stdDeviation="3"/>
<feColorMatrix type="matrix" values="0 0 0 0 0.788235 0 0 0 0 0.803922 0 0 0 0 0.85098 0 0 0 0.349 0"/>
<feBlend mode="normal" in2="BackgroundImageFix" result="effect1_dropShadow_212_82581"/>
<feBlend mode="normal" in="SourceGraphic" in2="effect1_dropShadow_212_82581" result="shape"/>
</filter>
<linearGradient id="paint0_linear_212_82581" x1="40.6627" y1="13.3373" x2="40.6627" y2="94.6626" gradientUnits="userSpaceOnUse">
<stop stop-color="#E3ECFA"/>
<stop offset="1" stop-color="#DAE7FF"/>
</linearGradient>
</defs>
</svg>
