<svg width="155" height="110" viewBox="0 0 155 110" fill="none" xmlns="http://www.w3.org/2000/svg">
<path d="M124.66 0H33.3837C29.1828 0 25.7773 3.42182 25.7773 7.64286V99.3571C25.7773 103.578 29.1828 107 33.3837 107H124.66C128.861 107 132.266 103.578 132.266 99.3571V7.64286C132.266 3.42182 128.861 0 124.66 0Z" fill="url(#paint0_linear_202_82885)"/>
<g filter="url(#filter0_d_202_82885)">
<path d="M42.5102 41.2714H145.196C146.205 41.2714 147.172 41.674 147.885 42.3907C148.598 43.1074 148.999 44.0793 148.999 45.0929V64.2C148.999 65.2135 148.598 66.1855 147.885 66.9022C147.172 67.6188 146.205 68.0214 145.196 68.0214H42.5102C41.5015 68.0214 40.5342 67.6188 39.821 66.9022C39.1077 66.1855 38.707 65.2135 38.707 64.2V45.0929C38.707 44.0793 39.1077 43.1074 39.821 42.3907C40.5342 41.674 41.5015 41.2714 42.5102 41.2714V41.2714Z" fill="white"/>
</g>
<path d="M98.7967 47.3857H79.0202C77.7599 47.3857 76.7383 48.4123 76.7383 49.6786C76.7383 50.9449 77.7599 51.9714 79.0202 51.9714H98.7967C100.057 51.9714 101.079 50.9449 101.079 49.6786C101.079 48.4123 100.057 47.3857 98.7967 47.3857Z" fill="#B4DAFF"/>
<path d="M112.488 57.3214H79.0202C77.7599 57.3214 76.7383 58.348 76.7383 59.6143C76.7383 60.8806 77.7599 61.9071 79.0202 61.9071H112.488C113.748 61.9071 114.77 60.8806 114.77 59.6143C114.77 58.348 113.748 57.3214 112.488 57.3214Z" fill="#DEE9FC"/>
<path d="M61.9057 61.9071C65.8965 61.9071 69.1317 58.6564 69.1317 54.6464C69.1317 50.6364 65.8965 47.3857 61.9057 47.3857C57.9149 47.3857 54.6797 50.6364 54.6797 54.6464C54.6797 58.6564 57.9149 61.9071 61.9057 61.9071Z" fill="#1485FD"/>
<path d="M61.1854 57.7357H61.9694L60.1494 52.9127H59.3444L57.5244 57.7357H58.3154L58.7774 56.5317H60.7234L61.1854 57.7357ZM59.7504 53.8437L60.4714 55.8667H59.0294L59.7504 53.8437ZM64.5696 53.5987C65.0946 53.5987 65.3116 54.0397 65.3116 54.4457C65.3116 54.8587 65.0736 55.2857 64.5416 55.2857H63.3936V53.5987H64.5696ZM62.6446 57.7357H63.3936V55.9647H64.5836C65.6196 55.9647 66.0536 55.2087 66.0536 54.4457C66.0536 53.6827 65.6196 52.9127 64.5836 52.9127H62.6446V57.7357Z" fill="white"/>
<g filter="url(#filter1_d_202_82885)">
<path d="M9.80317 74.1357H112.489C113.498 74.1357 114.465 74.5383 115.178 75.255C115.891 75.9716 116.292 76.9436 116.292 77.9571V97.0643C116.292 98.0778 115.891 99.0498 115.178 99.7664C114.465 100.483 113.498 100.886 112.489 100.886H9.80317C8.79451 100.886 7.82716 100.483 7.11392 99.7664C6.40069 99.0498 6 98.0778 6 97.0643V77.9571C6 76.9436 6.40069 75.9716 7.11392 75.255C7.82716 74.5383 8.79451 74.1357 9.80317 74.1357V74.1357Z" fill="white"/>
</g>
<path d="M66.0916 80.25H46.3151C45.0548 80.25 44.0332 81.2765 44.0332 82.5429C44.0332 83.8092 45.0548 84.8357 46.3151 84.8357H66.0916C67.3519 84.8357 68.3735 83.8092 68.3735 82.5429C68.3735 81.2765 67.3519 80.25 66.0916 80.25Z" fill="#B4DAFF"/>
<path d="M79.783 90.1857H46.3151C45.0548 90.1857 44.0332 91.2123 44.0332 92.4786C44.0332 93.7449 45.0548 94.7714 46.3151 94.7714H79.783C81.0433 94.7714 82.0649 93.7449 82.0649 92.4786C82.0649 91.2123 81.0433 90.1857 79.783 90.1857Z" fill="#DEE9FC"/>
<path d="M19.312 94.7714C23.3028 94.7714 26.538 91.5207 26.538 87.5107C26.538 83.5007 23.3028 80.25 19.312 80.25C15.3211 80.25 12.0859 83.5007 12.0859 87.5107C12.0859 91.5207 15.3211 94.7714 19.312 94.7714Z" fill="#1485FD"/>
<path d="M14.9484 91.4807C15.1374 91.5297 15.3824 91.5647 15.5154 91.5647C16.6214 91.5647 17.0274 90.8437 17.0274 89.9827V85.0127H16.2784V89.9827C16.2784 90.4517 16.0754 90.8507 15.5154 90.8507C15.4594 90.8507 15.1514 90.8297 15.0184 90.7877L14.9484 91.4807ZM18.0082 88.4357C18.0082 89.2197 18.7082 89.9057 19.7092 89.9057C20.6262 89.9057 21.2772 89.3667 21.3542 88.6107C21.4312 87.9107 21.0322 87.3717 20.0522 87.1127L19.4362 86.9517C18.8622 86.8047 18.7922 86.5107 18.7922 86.3217C18.7922 85.9297 19.1772 85.6567 19.6252 85.6567C20.1292 85.6567 20.4652 85.9367 20.4652 86.3847H21.2072C21.2072 85.5027 20.5352 84.9567 19.6392 84.9567C18.7922 84.9567 18.0502 85.5097 18.0502 86.3357C18.0502 86.7627 18.2112 87.3507 19.2472 87.6307L19.8562 87.7847C20.3042 87.8897 20.6472 88.1207 20.6192 88.5687C20.5702 88.9257 20.2762 89.2267 19.7092 89.2267C19.1282 89.2267 18.7712 88.8277 18.7502 88.4357H18.0082Z" fill="white"/>
<g filter="url(#filter2_d_202_82885)">
<path d="M112.489 8.40714H9.80317C7.70274 8.40714 6 10.1181 6 12.2286V31.3357C6 33.4462 7.70274 35.1571 9.80317 35.1571H112.489C114.589 35.1571 116.292 33.4462 116.292 31.3357V12.2286C116.292 10.1181 114.589 8.40714 112.489 8.40714Z" fill="white"/>
</g>
<path d="M64.5701 14.5214H44.7936C43.5334 14.5214 42.5117 15.548 42.5117 16.8143C42.5117 18.0806 43.5334 19.1071 44.7936 19.1071H64.5701C65.8304 19.1071 66.852 18.0806 66.852 16.8143C66.852 15.548 65.8304 14.5214 64.5701 14.5214Z" fill="#B4DAFF"/>
<path d="M78.2615 24.4571H44.7936C43.5334 24.4571 42.5117 25.4837 42.5117 26.75C42.5117 28.0163 43.5334 29.0429 44.7936 29.0429H78.2615C79.5218 29.0429 80.5434 28.0163 80.5434 26.75C80.5434 25.4837 79.5218 24.4571 78.2615 24.4571Z" fill="#DEE9FC"/>
<path d="M29.1987 29.0429C33.1895 29.0429 36.4247 25.7921 36.4247 21.7821C36.4247 17.7722 33.1895 14.5214 29.1987 14.5214C25.2079 14.5214 21.9727 17.7722 21.9727 21.7821C21.9727 25.7921 25.2079 29.0429 29.1987 29.0429Z" fill="#1485FD"/>
<path d="M24.9574 22.7071C24.9574 23.4911 25.6574 24.1771 26.6584 24.1771C27.5754 24.1771 28.2264 23.6381 28.3034 22.8821C28.3804 22.1821 27.9814 21.6431 27.0014 21.3841L26.3854 21.2231C25.8114 21.0761 25.7414 20.7821 25.7414 20.5931C25.7414 20.2011 26.1264 19.9281 26.5744 19.9281C27.0784 19.9281 27.4144 20.2081 27.4144 20.6561H28.1564C28.1564 19.7741 27.4844 19.2281 26.5884 19.2281C25.7414 19.2281 24.9994 19.7811 24.9994 20.6071C24.9994 21.0341 25.1604 21.6221 26.1964 21.9021L26.8054 22.0561C27.2534 22.1611 27.5964 22.3921 27.5684 22.8401C27.5194 23.1971 27.2254 23.4981 26.6584 23.4981C26.0774 23.4981 25.7204 23.0991 25.6994 22.7071H24.9574ZM29.999 19.9771H31.133C32.078 19.9771 32.561 20.7541 32.561 21.7061C32.561 22.6651 32.078 23.4211 31.133 23.4211H29.999V19.9771ZM31.133 24.1071C32.505 24.1071 33.303 23.0781 33.303 21.7061C33.303 20.3341 32.505 19.2841 31.133 19.2841H29.257V24.1071H31.133Z" fill="white"/>
<defs>
<filter id="filter0_d_202_82885" x="32.707" y="38.2714" width="122.293" height="38.75" filterUnits="userSpaceOnUse" color-interpolation-filters="sRGB">
<feFlood flood-opacity="0" result="BackgroundImageFix"/>
<feColorMatrix in="SourceAlpha" type="matrix" values="0 0 0 0 0 0 0 0 0 0 0 0 0 0 0 0 0 0 127 0" result="hardAlpha"/>
<feOffset dy="3"/>
<feGaussianBlur stdDeviation="3"/>
<feColorMatrix type="matrix" values="0 0 0 0 0 0 0 0 0 0 0 0 0 0 0 0 0 0 0.161 0"/>
<feBlend mode="normal" in2="BackgroundImageFix" result="effect1_dropShadow_202_82885"/>
<feBlend mode="normal" in="SourceGraphic" in2="effect1_dropShadow_202_82885" result="shape"/>
</filter>
<filter id="filter1_d_202_82885" x="0" y="71.1357" width="122.293" height="38.75" filterUnits="userSpaceOnUse" color-interpolation-filters="sRGB">
<feFlood flood-opacity="0" result="BackgroundImageFix"/>
<feColorMatrix in="SourceAlpha" type="matrix" values="0 0 0 0 0 0 0 0 0 0 0 0 0 0 0 0 0 0 127 0" result="hardAlpha"/>
<feOffset dy="3"/>
<feGaussianBlur stdDeviation="3"/>
<feColorMatrix type="matrix" values="0 0 0 0 0 0 0 0 0 0 0 0 0 0 0 0 0 0 0.161 0"/>
<feBlend mode="normal" in2="BackgroundImageFix" result="effect1_dropShadow_202_82885"/>
<feBlend mode="normal" in="SourceGraphic" in2="effect1_dropShadow_202_82885" result="shape"/>
</filter>
<filter id="filter2_d_202_82885" x="0" y="5.40714" width="122.293" height="38.75" filterUnits="userSpaceOnUse" color-interpolation-filters="sRGB">
<feFlood flood-opacity="0" result="BackgroundImageFix"/>
<feColorMatrix in="SourceAlpha" type="matrix" values="0 0 0 0 0 0 0 0 0 0 0 0 0 0 0 0 0 0 127 0" result="hardAlpha"/>
<feOffset dy="3"/>
<feGaussianBlur stdDeviation="3"/>
<feColorMatrix type="matrix" values="0 0 0 0 0 0 0 0 0 0 0 0 0 0 0 0 0 0 0.161 0"/>
<feBlend mode="normal" in2="BackgroundImageFix" result="effect1_dropShadow_202_82885"/>
<feBlend mode="normal" in="SourceGraphic" in2="effect1_dropShadow_202_82885" result="shape"/>
</filter>
<linearGradient id="paint0_linear_202_82885" x1="79.0218" y1="0" x2="79.0218" y2="107" gradientUnits="userSpaceOnUse">
<stop stop-color="#E3ECFA"/>
<stop offset="1" stop-color="#DAE7FF"/>
</linearGradient>
</defs>
</svg>
