<svg width="14" height="16" viewBox="0 0 14 16" fill="none" xmlns="http://www.w3.org/2000/svg">
<path d="M9.24959 4.62463L3.39201 10.5795C3.18103 10.7905 3.0625 11.0766 3.0625 11.375C3.0625 11.6733 3.18103 11.9595 3.39201 12.1705C3.60298 12.3815 3.88913 12.5 4.1875 12.5C4.48587 12.5 4.77202 12.3815 4.983 12.1705L11.9656 5.09062C12.1745 4.88169 12.3402 4.63365 12.4533 4.36067C12.5664 4.08769 12.6246 3.79511 12.6246 3.49963C12.6246 3.20416 12.5664 2.91158 12.4533 2.6386C12.3402 2.36561 12.1745 2.11758 11.9656 1.90864C11.7566 1.69971 11.5086 1.53398 11.2356 1.4209C10.9626 1.30783 10.6701 1.24963 10.3746 1.24963C10.0791 1.24963 9.78653 1.30783 9.51355 1.4209C9.24057 1.53398 8.99253 1.69971 8.7836 1.90864L1.80101 8.98849C1.16808 9.62143 0.8125 10.4799 0.8125 11.375C0.8125 12.2701 1.16808 13.1285 1.80101 13.7615C2.43395 14.3944 3.2924 14.75 4.1875 14.75C5.08261 14.75 5.94105 14.3944 6.57399 13.7615L12.3433 7.99964" stroke="#1A73E8" stroke-linecap="round" stroke-linejoin="round"/>
</svg>
