<svg width="35" height="30" viewBox="0 0 35 30" fill="none" xmlns="http://www.w3.org/2000/svg">
<path d="M31.9375 0.5625H3.0625C2.36631 0.5625 1.69863 0.839062 1.20634 1.33134C0.714062 1.82363 0.4375 2.49131 0.4375 3.1875V26.8125C0.4375 27.5087 0.714062 28.1764 1.20634 28.6687C1.69863 29.1609 2.36631 29.4375 3.0625 29.4375H5.2593C5.5077 29.4376 5.75102 29.3672 5.961 29.2344C6.17097 29.1017 6.33897 28.9121 6.44547 28.6877C7.0837 27.3402 8.09136 26.2016 9.35125 25.4043C10.6111 24.607 12.0715 24.1837 13.5625 24.1837C15.0535 24.1837 16.5139 24.607 17.7737 25.4043C19.0336 26.2016 20.0413 27.3402 20.6795 28.6877C20.786 28.9121 20.954 29.1017 21.164 29.2344C21.374 29.3672 21.6173 29.4376 21.8657 29.4375H31.9375C32.6337 29.4375 33.3014 29.1609 33.7937 28.6687C34.2859 28.1764 34.5625 27.5087 34.5625 26.8125V3.1875C34.5625 2.49131 34.2859 1.82363 33.7937 1.33134C33.3014 0.839062 32.6337 0.5625 31.9375 0.5625ZM9.625 17.625C9.625 16.8462 9.85593 16.085 10.2886 15.4374C10.7212 14.7899 11.3362 14.2852 12.0557 13.9872C12.7752 13.6892 13.5669 13.6112 14.3307 13.7632C15.0945 13.9151 15.7961 14.2901 16.3467 14.8408C16.8974 15.3914 17.2724 16.093 17.4243 16.8568C17.5763 17.6206 17.4983 18.4123 17.2003 19.1318C16.9023 19.8513 16.3976 20.4663 15.7501 20.8989C15.1025 21.3316 14.3413 21.5625 13.5625 21.5625C12.5182 21.5625 11.5167 21.1477 10.7783 20.4092C10.0398 19.6708 9.625 18.6693 9.625 17.625ZM31.9375 26.8125H22.6565C21.5604 24.9281 19.9083 23.429 17.9266 22.5206C18.9201 21.636 19.6213 20.4702 19.9373 19.178C20.2532 17.8857 20.1689 16.5279 19.6956 15.2847C19.2223 14.0414 18.3823 12.9713 17.287 12.2163C16.1917 11.4613 14.8928 11.057 13.5625 11.057C12.2322 11.057 10.9333 11.4613 9.83797 12.2163C8.74266 12.9713 7.90268 14.0414 7.42938 15.2847C6.95608 16.5279 6.87181 17.8857 7.18775 19.178C7.50368 20.4702 8.2049 21.636 9.19844 22.5206C7.21673 23.429 5.56456 24.9281 4.46852 26.8125H3.0625V3.1875H31.9375V26.8125ZM5.6875 9.75V7.125C5.6875 6.7769 5.82578 6.44306 6.07192 6.19692C6.31806 5.95078 6.6519 5.8125 7 5.8125H28C28.3481 5.8125 28.6819 5.95078 28.9281 6.19692C29.1742 6.44306 29.3125 6.7769 29.3125 7.125V22.875C29.3125 23.2231 29.1742 23.5569 28.9281 23.8031C28.6819 24.0492 28.3481 24.1875 28 24.1875H25.375C25.0269 24.1875 24.6931 24.0492 24.4469 23.8031C24.2008 23.5569 24.0625 23.2231 24.0625 22.875C24.0625 22.5269 24.2008 22.1931 24.4469 21.9469C24.6931 21.7008 25.0269 21.5625 25.375 21.5625H26.6875V8.4375H8.3125V9.75C8.3125 10.0981 8.17422 10.4319 7.92808 10.6781C7.68194 10.9242 7.3481 11.0625 7 11.0625C6.6519 11.0625 6.31806 10.9242 6.07192 10.6781C5.82578 10.4319 5.6875 10.0981 5.6875 9.75Z" fill="#0065B5"/>
</svg>
