<svg width="24" height="21" viewBox="0 0 24 21" fill="none" xmlns="http://www.w3.org/2000/svg">
<g filter="url(#filter0_d_317_99168)">
<path d="M8.25 6.75C8.25 6.55109 8.32902 6.36032 8.46967 6.21967C8.61032 6.07902 8.80109 6 9 6H15C15.1989 6 15.3897 6.07902 15.5303 6.21967C15.671 6.36032 15.75 6.55109 15.75 6.75C15.75 6.94891 15.671 7.13968 15.5303 7.28033C15.3897 7.42098 15.1989 7.5 15 7.5H9C8.80109 7.5 8.61032 7.42098 8.46967 7.28033C8.32902 7.13968 8.25 6.94891 8.25 6.75ZM9 10.5H15C15.1989 10.5 15.3897 10.421 15.5303 10.2803C15.671 10.1397 15.75 9.94891 15.75 9.75C15.75 9.55109 15.671 9.36032 15.5303 9.21967C15.3897 9.07902 15.1989 9 15 9H9C8.80109 9 8.61032 9.07902 8.46967 9.21967C8.32902 9.36032 8.25 9.55109 8.25 9.75C8.25 9.94891 8.32902 10.1397 8.46967 10.2803C8.61032 10.421 8.80109 10.5 9 10.5ZM21.75 2.25V14.25C21.75 14.6478 21.592 15.0294 21.3107 15.3107C21.0294 15.592 20.6478 15.75 20.25 15.75H14.6747L13.2834 18.0272C13.1495 18.2484 12.9607 18.4312 12.7353 18.5579C12.5099 18.6846 12.2556 18.7509 11.997 18.7503C11.7384 18.7497 11.4844 18.6823 11.2596 18.5547C11.0347 18.427 10.8467 18.2433 10.7137 18.0216L9.32531 15.75H3.75C3.35218 15.75 2.97064 15.592 2.68934 15.3107C2.40804 15.0294 2.25 14.6478 2.25 14.25V2.25C2.25 1.85218 2.40804 1.47064 2.68934 1.18934C2.97064 0.908035 3.35218 0.75 3.75 0.75H20.25C20.6478 0.75 21.0294 0.908035 21.3107 1.18934C21.592 1.47064 21.75 1.85218 21.75 2.25ZM20.25 2.25H3.75V14.25H9.32531C9.58354 14.2507 9.83727 14.3177 10.0622 14.4446C10.2871 14.5715 10.4756 14.754 10.6097 14.9747L12 17.25L13.3894 14.97C13.5241 14.75 13.713 14.5682 13.938 14.4422C14.1631 14.3161 14.4167 14.2499 14.6747 14.25H20.25V2.25Z" fill="#FBFAFA"/>
</g>
<defs>
<filter id="filter0_d_317_99168" x="-1.75" y="0.75" width="27.5" height="26.0004" filterUnits="userSpaceOnUse" color-interpolation-filters="sRGB">
<feFlood flood-opacity="0" result="BackgroundImageFix"/>
<feColorMatrix in="SourceAlpha" type="matrix" values="0 0 0 0 0 0 0 0 0 0 0 0 0 0 0 0 0 0 127 0" result="hardAlpha"/>
<feOffset dy="4"/>
<feGaussianBlur stdDeviation="2"/>
<feComposite in2="hardAlpha" operator="out"/>
<feColorMatrix type="matrix" values="0 0 0 0 0 0 0 0 0 0 0 0 0 0 0 0 0 0 0.25 0"/>
<feBlend mode="normal" in2="BackgroundImageFix" result="effect1_dropShadow_317_99168"/>
<feBlend mode="normal" in="SourceGraphic" in2="effect1_dropShadow_317_99168" result="shape"/>
</filter>
</defs>
</svg>
