<svg width="20" height="19" viewBox="0 0 20 19" fill="none" xmlns="http://www.w3.org/2000/svg">
<path d="M6.25 6.75C6.25 6.55109 6.32902 6.36032 6.46967 6.21967C6.61032 6.07902 6.80109 6 7 6H13C13.1989 6 13.3897 6.07902 13.5303 6.21967C13.671 6.36032 13.75 6.55109 13.75 6.75C13.75 6.94891 13.671 7.13968 13.5303 7.28033C13.3897 7.42098 13.1989 7.5 13 7.5H7C6.80109 7.5 6.61032 7.42098 6.46967 7.28033C6.32902 7.13968 6.25 6.94891 6.25 6.75ZM7 10.5H13C13.1989 10.5 13.3897 10.421 13.5303 10.2803C13.671 10.1397 13.75 9.94891 13.75 9.75C13.75 9.55109 13.671 9.36032 13.5303 9.21967C13.3897 9.07902 13.1989 9 13 9H7C6.80109 9 6.61032 9.07902 6.46967 9.21967C6.32902 9.36032 6.25 9.55109 6.25 9.75C6.25 9.94891 6.32902 10.1397 6.46967 10.2803C6.61032 10.421 6.80109 10.5 7 10.5ZM19.75 2.25V14.25C19.75 14.6478 19.592 15.0294 19.3107 15.3107C19.0294 15.592 18.6478 15.75 18.25 15.75H12.6747L11.2834 18.0272C11.1495 18.2484 10.9607 18.4312 10.7353 18.5579C10.5099 18.6846 10.2556 18.7509 9.997 18.7503C9.73843 18.7497 9.4844 18.6823 9.25956 18.5547C9.03472 18.427 8.8467 18.2433 8.71375 18.0216L7.32531 15.75H1.75C1.35218 15.75 0.970644 15.592 0.68934 15.3107C0.408035 15.0294 0.25 14.6478 0.25 14.25V2.25C0.25 1.85218 0.408035 1.47064 0.68934 1.18934C0.970644 0.908035 1.35218 0.75 1.75 0.75H18.25C18.6478 0.75 19.0294 0.908035 19.3107 1.18934C19.592 1.47064 19.75 1.85218 19.75 2.25ZM18.25 2.25H1.75V14.25H7.32531C7.58354 14.2507 7.83727 14.3177 8.06216 14.4446C8.28706 14.5715 8.4756 14.754 8.60969 14.9747L10 17.25L11.3894 14.97C11.5241 14.75 11.713 14.5682 11.938 14.4422C12.1631 14.3161 12.4167 14.2499 12.6747 14.25H18.25V2.25Z" fill="#66A3D3"/>
</svg>
