<svg width="20" height="22" viewBox="0 0 20 22" fill="none" xmlns="http://www.w3.org/2000/svg">
<path d="M12.9997 17V17.75C12.9997 18.5456 12.6837 19.3087 12.1211 19.8713C11.5585 20.4339 10.7954 20.75 9.99974 20.75C9.20409 20.75 8.44103 20.4339 7.87842 19.8713C7.31581 19.3087 6.99974 18.5456 6.99974 17.75V17M18.0472 15.4733C16.8435 14 15.9936 13.25 15.9936 9.18828C15.9936 5.46875 14.0943 4.14359 12.531 3.5C12.3233 3.41469 12.1279 3.21875 12.0646 3.00547C11.7904 2.07219 11.0216 1.25 9.99974 1.25C8.97787 1.25 8.20865 2.07266 7.93724 3.00641C7.87396 3.22203 7.67849 3.41469 7.47084 3.5C5.90568 4.14453 4.00818 5.465 4.00818 9.18828C4.00584 13.25 3.15599 14 1.95224 15.4733C1.45349 16.0836 1.89037 17 2.76271 17H17.2415C18.1091 17 18.5432 16.0808 18.0472 15.4733Z" stroke="#66A3D3" stroke-width="1.5" stroke-linecap="round" stroke-linejoin="round"/>
</svg>
