<svg width="42" height="42" viewBox="0 0 42 42" fill="none" xmlns="http://www.w3.org/2000/svg">
<path d="M29.7491 29.085C30.8315 29.085 31.7091 28.2075 31.7091 27.125C31.7091 26.0426 30.8315 25.165 29.7491 25.165C28.6666 25.165 27.7891 26.0426 27.7891 27.125C27.7891 28.2075 28.6666 29.085 29.7491 29.085Z" fill="#99C1E1"/>
<path fill-rule="evenodd" clip-rule="evenodd" d="M29.7481 30.625C28.4706 30.625 25.9156 31.255 25.8281 32.515C26.7031 33.7575 28.1381 34.5625 29.7481 34.5625C31.3581 34.5625 32.7931 33.7575 33.6681 32.515C33.5806 31.255 31.0256 30.625 29.7481 30.625Z" fill="#99C1E1"/>
<path fill-rule="evenodd" clip-rule="evenodd" d="M31.5 19.4075V10.9725L18.375 5.25L5.25 10.9725V19.565C5.25 27.51 10.85 34.9475 18.375 36.75C19.3375 36.5225 20.265 36.19 21.175 35.7875C22.1395 37.1667 23.4227 38.2926 24.9156 39.0696C26.4086 39.8465 28.067 40.2514 29.75 40.25C35.5425 40.25 40.25 35.5425 40.25 29.75C40.25 24.5525 36.47 20.2475 31.5 19.4075ZM19.25 29.75C19.25 30.73 19.39 31.6925 19.6525 32.585C19.2325 32.7775 18.8125 32.97 18.375 33.11C12.8275 31.36 8.75 25.69 8.75 19.565V13.265L18.375 9.065L28 13.265V19.4075C23.03 20.2475 19.25 24.5525 19.25 29.75ZM29.75 36.75C25.8825 36.75 22.75 33.6175 22.75 29.75C22.75 25.8825 25.8825 22.75 29.75 22.75C33.6175 22.75 36.75 25.8825 36.75 29.75C36.75 33.6175 33.6175 36.75 29.75 36.75Z" fill="#99C1E1"/>
</svg>
