<svg width="30" height="37" viewBox="0 0 30 37" fill="none" xmlns="http://www.w3.org/2000/svg">
<rect x="1.0445" y="0.886297" width="27.6251" height="35.4921" fill="white" stroke="#B4BFCF" stroke-width="0.854626"/>
<rect x="3.69727" y="11.8086" width="22.3219" height="0.192311" fill="#6FADFF"/>
<rect x="18.709" y="4.88477" width="7.31235" height="0.192311" fill="#6FADFF"/>
<rect x="3.69727" y="4.88477" width="7.31235" height="0.192311" fill="#6FADFF"/>
<rect x="3.69727" y="13.539" width="22.3219" height="0.192311" fill="#6FADFF"/>
<rect x="18.709" y="6.61328" width="7.31235" height="0.192311" fill="#6FADFF"/>
<rect x="3.69727" y="6.61328" width="7.31235" height="0.192311" fill="#6FADFF"/>
<rect x="3.69727" y="15.2695" width="22.3219" height="0.192311" fill="#6FADFF"/>
<rect x="18.709" y="8.3457" width="7.31235" height="0.192311" fill="#6FADFF"/>
<rect x="3.69727" y="16.9982" width="22.3219" height="0.192311" fill="#6FADFF"/>
<rect x="18.709" y="10.0801" width="7.31235" height="0.192311" fill="#6FADFF"/>
<rect x="3.69727" y="18.7285" width="22.3219" height="0.192311" fill="#6FADFF"/>
<rect x="3.69727" y="20.4627" width="11.6353" height="0.192311" fill="#6FADFF"/>
<rect x="3.69727" y="22.1914" width="11.6353" height="0.192311" fill="#6FADFF"/>
<rect x="3.69727" y="23.9219" width="11.6353" height="0.192311" fill="#6FADFF"/>
<rect x="3.69727" y="25.6523" width="11.6353" height="0.192311" fill="#6FADFF"/>
<rect x="3.69727" y="27.3829" width="11.6353" height="0.192311" fill="#6FADFF"/>
<rect x="3.69727" y="29.1172" width="11.6353" height="0.192311" fill="#6FADFF"/>
<rect x="3.69727" y="30.8477" width="11.6353" height="0.192311" fill="#6FADFF"/>
<rect x="3.69727" y="32.5762" width="11.6353" height="0.192311" fill="#6FADFF"/>
</svg>
