<svg width="22" height="19" viewBox="0 0 22 19" fill="none" xmlns="http://www.w3.org/2000/svg">
<path d="M12.2586 0.999763C11.0551 0.965394 9.85692 1.17277 8.73499 1.60961C7.61306 2.04645 6.59014 2.70389 5.72676 3.54302C4.86339 4.38216 4.17709 5.38594 3.70849 6.49498C3.23988 7.60402 2.99848 8.79578 2.99857 9.99976H1.20857C0.758566 9.99976 0.538566 10.5398 0.858566 10.8498L3.64857 13.6398C3.84857 13.8398 4.15857 13.8398 4.35857 13.6398L7.15857 10.8498C7.45857 10.5398 7.23857 9.99976 6.78857 9.99976H4.99857C4.99857 6.10976 8.19857 2.93976 12.0986 2.99976C15.8086 3.04976 18.9386 6.17976 18.9986 9.89976C19.0586 13.8098 15.8986 16.9998 11.9986 16.9998C10.4086 16.9998 8.94857 16.4698 7.76857 15.5698C7.36857 15.2698 6.80857 15.2998 6.45857 15.6598C6.02857 16.0898 6.06857 16.7998 6.54857 17.1598C8.11402 18.3547 10.0292 19.0013 11.9986 18.9998C17.0586 18.9998 21.1386 14.8298 20.9986 9.74976C20.8686 5.04976 16.9486 1.12976 12.2586 0.999763ZM13.9986 8.99976V7.99976C13.9986 6.89976 13.0986 5.99976 11.9986 5.99976C10.8986 5.99976 9.99857 6.89976 9.99857 7.99976V8.99976C9.44857 8.99976 8.99857 9.44976 8.99857 9.99976V12.9998C8.99857 13.5498 9.44857 13.9998 9.99857 13.9998H13.9986C14.5486 13.9998 14.9986 13.5498 14.9986 12.9998V9.99976C14.9986 9.44976 14.5486 8.99976 13.9986 8.99976ZM12.9986 8.99976H10.9986V7.99976C10.9986 7.44976 11.4486 6.99976 11.9986 6.99976C12.5486 6.99976 12.9986 7.44976 12.9986 7.99976V8.99976Z" fill="#2B94F5"/>
</svg>
