<svg width="22" height="22" viewBox="0 0 22 22" fill="none" xmlns="http://www.w3.org/2000/svg">
<path d="M16.325 11L21.05 6.275C21.65 5.675 21.65 4.775 21.05 4.175L17.9 1.025C17.3 0.425 16.4 0.425 15.8 1.025L11 5.675L6.275 0.95C5.675 0.35 4.775 0.35 4.175 0.95L0.95 4.1C0.35 4.7 0.35 5.6 0.95 6.2L5.675 11L0.5 16.175V21.5H5.825L11 16.325L15.725 21.05C16.325 21.65 17.225 21.65 17.825 21.05L20.975 17.9C21.575 17.3 21.575 16.4 20.975 15.8L16.325 11ZM16.85 2L20 5.15L15.275 9.875L12.125 6.725L16.85 2ZM5.15 20H2V16.85L6.725 12.125L9.875 15.275L5.15 20ZM16.85 20L2 5.15L5.15 2L7.775 4.625L6.2 6.2L7.25 7.25L8.825 5.675L11.975 8.825L10.4 10.4L11.45 11.45L13.025 9.875L16.175 13.025L14.75 14.675L15.8 15.725L17.375 14.15L20 16.775L16.85 20Z" fill="#FBFAFA"/>
</svg>
