<svg width="36" height="34" viewBox="0 0 36 34" fill="none" xmlns="http://www.w3.org/2000/svg">
<path d="M34.1651 6.25477L18.4151 1.00477C18.1456 0.914954 17.8544 0.914954 17.5849 1.00477L1.83492 6.25477C1.57358 6.34189 1.34627 6.50904 1.18521 6.73253C1.02414 6.95602 0.93748 7.22452 0.9375 7.50001V20.625C0.9375 20.9731 1.07578 21.3069 1.32192 21.5531C1.56806 21.7992 1.9019 21.9375 2.25 21.9375C2.5981 21.9375 2.93194 21.7992 3.17808 21.5531C3.42422 21.3069 3.5625 20.9731 3.5625 20.625V9.3211L9.07336 11.157C7.6092 13.5224 7.1436 16.3722 7.7788 19.0807C8.414 21.7891 10.0981 24.1348 12.4612 25.6027C9.50812 26.7609 6.95531 28.856 5.08828 31.7206C4.99118 31.8649 4.92374 32.027 4.88987 32.1977C4.85599 32.3683 4.85637 32.5439 4.89098 32.7144C4.92559 32.8848 4.99373 33.0467 5.09146 33.1906C5.18918 33.3345 5.31453 33.4575 5.46022 33.5526C5.6059 33.6476 5.76903 33.7127 5.94011 33.7441C6.11118 33.7756 6.2868 33.7727 6.45675 33.7356C6.6267 33.6986 6.7876 33.6281 6.93008 33.5284C7.07256 33.4286 7.19379 33.3015 7.28672 33.1545C9.75914 29.3613 13.6638 27.1875 18 27.1875C22.3362 27.1875 26.2409 29.3613 28.7133 33.1545C28.9058 33.4406 29.2032 33.6394 29.5411 33.708C29.8791 33.7766 30.2304 33.7095 30.5193 33.5211C30.8081 33.3327 31.0112 33.0382 31.0846 32.7013C31.1581 32.3644 31.096 32.0121 30.9117 31.7206C29.0447 28.856 26.482 26.7609 23.5387 25.6027C25.8997 24.1349 27.5821 21.7907 28.2172 19.0843C28.8523 16.3778 28.3882 13.5299 26.9266 11.1652L34.1651 8.75344C34.4265 8.66637 34.6538 8.49925 34.815 8.27575C34.9761 8.05226 35.0628 7.78373 35.0628 7.50821C35.0628 7.23269 34.9761 6.96416 34.815 6.74066C34.6538 6.51717 34.4265 6.35005 34.1651 6.26297V6.25477ZM25.875 16.6875C25.8754 17.9325 25.5805 19.1598 25.0147 20.2688C24.4488 21.3778 23.6281 22.3368 22.6199 23.0672C21.6116 23.7976 20.4446 24.2785 19.2145 24.4705C17.9844 24.6625 16.7263 24.5601 15.5434 24.1718C14.3605 23.7834 13.2866 23.1201 12.4097 22.2363C11.5328 21.3525 10.878 20.2734 10.4989 19.0875C10.1198 17.9016 10.0273 16.6428 10.229 15.4142C10.4306 14.1857 10.9207 13.0224 11.659 12.0199L17.5849 13.9887C17.8544 14.0785 18.1456 14.0785 18.4151 13.9887L24.341 12.0199C25.3382 13.3718 25.8758 15.0077 25.875 16.6875ZM18 11.367L6.40078 7.50001L18 3.63305L29.5992 7.50001L18 11.367Z" fill="#0065B5"/>
</svg>
