<svg width="24" height="18" viewBox="0 0 24 18" fill="none" xmlns="http://www.w3.org/2000/svg">
<path d="M22.9503 10.1002C22.8715 10.1593 22.7818 10.2023 22.6864 10.2267C22.591 10.2511 22.4917 10.2566 22.3942 10.2426C22.2967 10.2287 22.2029 10.1957 22.1182 10.1455C22.0334 10.0953 21.9594 10.029 21.9003 9.95017C21.4482 9.34254 20.8598 8.84953 20.1824 8.51084C19.5051 8.17215 18.7576 7.99723 18.0003 8.00017C17.8528 8.00015 17.7086 7.95666 17.5857 7.87512C17.4628 7.79358 17.3667 7.67761 17.3093 7.54173C17.2704 7.44946 17.2504 7.35032 17.2504 7.25017C17.2504 7.15002 17.2704 7.05088 17.3093 6.9586C17.3667 6.82272 17.4628 6.70676 17.5857 6.62522C17.7086 6.54368 17.8528 6.50018 18.0003 6.50017C18.4211 6.50013 18.8335 6.38208 19.1906 6.15942C19.5476 5.93677 19.8351 5.61844 20.0204 5.24058C20.2056 4.86273 20.2812 4.4405 20.2385 4.02185C20.1958 3.6032 20.0365 3.20493 19.7788 2.87225C19.5211 2.53958 19.1753 2.28584 18.7806 2.13987C18.3859 1.9939 17.9582 1.96154 17.546 2.04646C17.1338 2.13139 16.7538 2.3302 16.4489 2.62031C16.1441 2.91043 15.9267 3.28021 15.8215 3.68767C15.7969 3.78308 15.7537 3.87271 15.6945 3.95144C15.6352 4.03017 15.561 4.09645 15.4761 4.14651C15.3913 4.19656 15.2974 4.22941 15.1998 4.24318C15.1022 4.25694 15.0029 4.25135 14.9075 4.22673C14.8121 4.20211 14.7224 4.15893 14.6437 4.09967C14.565 4.04041 14.4987 3.96622 14.4486 3.88134C14.3986 3.79646 14.3657 3.70256 14.352 3.60498C14.3382 3.50741 14.3438 3.40808 14.3684 3.31267C14.5144 2.74765 14.7903 2.22451 15.1741 1.78487C15.5579 1.34523 16.039 1.00124 16.5791 0.780246C17.1192 0.559256 17.7034 0.467375 18.2853 0.511915C18.8672 0.556454 19.4307 0.736184 19.9309 1.0368C20.431 1.33742 20.8542 1.75063 21.1666 2.24356C21.479 2.73648 21.672 3.29552 21.7303 3.87618C21.7887 4.45684 21.7107 5.0431 21.5026 5.58831C21.2944 6.13352 20.9619 6.62263 20.5315 7.01673C21.5514 7.45829 22.4379 8.15899 23.1031 9.04923C23.1622 9.12822 23.2051 9.2181 23.2294 9.31371C23.2537 9.40932 23.2589 9.50878 23.2447 9.6064C23.2305 9.70403 23.1972 9.79789 23.1467 9.88262C23.0962 9.96735 23.0294 10.0413 22.9503 10.1002ZM17.899 15.8752C17.9533 15.9605 17.9897 16.056 18.0062 16.1558C18.0226 16.2556 18.0186 16.3577 17.9946 16.456C17.9705 16.5542 17.9268 16.6466 17.8661 16.7275C17.8054 16.8084 17.729 16.8762 17.6414 16.9268C17.5539 16.9775 17.4569 17.0099 17.3565 17.022C17.2561 17.0342 17.1543 17.026 17.0571 16.9978C16.96 16.9696 16.8695 16.9221 16.7912 16.8581C16.713 16.794 16.6484 16.7148 16.6015 16.6252C16.1291 15.8252 15.4562 15.1622 14.6493 14.7016C13.8424 14.241 12.9294 13.9988 12.0003 13.9988C11.0712 13.9988 10.1582 14.241 9.35126 14.7016C8.54436 15.1622 7.87149 15.8252 7.39903 16.6252C7.35214 16.7148 7.28761 16.794 7.20932 16.8581C7.13102 16.9221 7.04058 16.9696 6.94343 16.9978C6.84629 17.026 6.74444 17.0342 6.64403 17.022C6.54362 17.0099 6.44671 16.9775 6.35914 16.9268C6.27156 16.8762 6.19513 16.8084 6.13444 16.7275C6.07376 16.6466 6.03007 16.5542 6.006 16.456C5.98194 16.3577 5.978 16.2556 5.99441 16.1558C6.01083 16.056 6.04727 15.9605 6.10153 15.8752C6.82865 14.6258 7.93734 13.6427 9.26466 13.0702C8.51778 12.4983 7.96887 11.7068 7.69509 10.8069C7.42132 9.90695 7.43644 8.94385 7.73833 8.05295C8.04022 7.16206 8.6137 6.38816 9.37816 5.84005C10.1426 5.29194 11.0596 4.99716 12.0003 4.99716C12.9409 4.99716 13.8579 5.29194 14.6224 5.84005C15.3869 6.38816 15.9603 7.16206 16.2622 8.05295C16.5641 8.94385 16.5792 9.90695 16.3055 10.8069C16.0317 11.7068 15.4828 12.4983 14.7359 13.0702C16.0632 13.6427 17.1719 14.6258 17.899 15.8752ZM12.0003 12.5002C12.5936 12.5002 13.1736 12.3242 13.667 11.9946C14.1603 11.6649 14.5449 11.1964 14.7719 10.6482C14.999 10.1 15.0584 9.49684 14.9426 8.9149C14.8269 8.33295 14.5412 7.7984 14.1216 7.37885C13.702 6.95929 13.1675 6.67357 12.5856 6.55781C12.0036 6.44206 11.4004 6.50147 10.8522 6.72853C10.3041 6.95559 9.83552 7.34011 9.50587 7.83346C9.17623 8.3268 9.00028 8.90682 9.00028 9.50017C9.00028 10.2958 9.31635 11.0589 9.87896 11.6215C10.4416 12.1841 11.2046 12.5002 12.0003 12.5002ZM6.75028 7.25017C6.75028 7.05125 6.67126 6.86049 6.53061 6.71984C6.38996 6.57919 6.19919 6.50017 6.00028 6.50017C5.57946 6.50013 5.16709 6.38208 4.81 6.15942C4.45291 5.93677 4.16542 5.61844 3.98019 5.24058C3.79495 4.86273 3.71939 4.4405 3.76209 4.02185C3.80479 3.6032 3.96405 3.20493 4.22176 2.87225C4.47947 2.53958 4.82531 2.28584 5.22 2.13987C5.61469 1.9939 6.0424 1.96154 6.45456 2.04646C6.86672 2.13139 7.2468 2.3302 7.55163 2.62031C7.85646 2.91043 8.07383 3.28021 8.17903 3.68767C8.22876 3.88036 8.353 4.04541 8.52442 4.14651C8.69584 4.2476 8.9004 4.27646 9.09309 4.22673C9.28579 4.177 9.45084 4.05276 9.55193 3.88134C9.65303 3.70992 9.68188 3.50536 9.63216 3.31267C9.48613 2.74765 9.21026 2.22451 8.82648 1.78487C8.4427 1.34523 7.96161 1.00124 7.42149 0.780246C6.88137 0.559256 6.29712 0.467375 5.71524 0.511915C5.13336 0.556454 4.56991 0.736184 4.06971 1.0368C3.56952 1.33742 3.14639 1.75063 2.83399 2.24356C2.52159 2.73648 2.32855 3.29552 2.27022 3.87618C2.21189 4.45684 2.28989 5.0431 2.49801 5.58831C2.70613 6.13352 3.03862 6.62263 3.46903 7.01673C2.45023 7.45871 1.5647 8.15938 0.900281 9.04923C0.841125 9.12802 0.798067 9.2177 0.773567 9.31313C0.749066 9.40856 0.743603 9.50789 0.757488 9.60543C0.771373 9.70298 0.804335 9.79683 0.854492 9.88164C0.90465 9.96644 0.97102 10.0405 1.04981 10.0997C1.12861 10.1589 1.21828 10.2019 1.31371 10.2264C1.40915 10.2509 1.50847 10.2564 1.60602 10.2425C1.70356 10.2286 1.79742 10.1956 1.88222 10.1455C1.96703 10.0953 2.04112 10.029 2.10028 9.95017C2.55233 9.34254 3.14073 8.84953 3.81812 8.51084C4.4955 8.17215 5.24295 7.99723 6.00028 8.00017C6.19919 8.00017 6.38996 7.92115 6.53061 7.7805C6.67126 7.63984 6.75028 7.44908 6.75028 7.25017Z" fill="#66A3D3"/>
</svg>
